<mxfile host="app.diagrams.net" modified="2024-02-09T20:57:04.348Z" agent="Mozilla/5.0 (X11; Linux x86_64) AppleWebKit/537.36 (KHTML, like Gecko) Chrome/121.0.0.0 Safari/537.36" etag="peme2JssaEh-rdh8qyd0" version="22.1.15" type="github">
  <diagram name="Page-1" id="dfae79vAuqxBXq1bnEYs">
    <mxGraphModel dx="880" dy="465" grid="1" gridSize="10" guides="1" tooltips="1" connect="1" arrows="1" fold="1" page="1" pageScale="1" pageWidth="827" pageHeight="1169" math="0" shadow="0">
      <root>
        <mxCell id="0" />
        <mxCell id="1" parent="0" />
        <mxCell id="EOirtJMXRNqf9kbRObzp-1" value="" style="shape=image;verticalLabelPosition=bottom;labelBackgroundColor=default;verticalAlign=top;aspect=fixed;imageAspect=0;image=data:image/jpeg,/9j/4AAQSkZJRgABAQEASABIAAD/2wBDAAMCAgICAgMCAgIDAwMDBAYEBAQEBAgGBgUGCQgKCgkICQkKDA8MCgsOCwkJDRENDg8QEBEQCgwSExIQEw8QEBD/2wBDAQMDAwQDBAgEBAgQCwkLEBAQEBAQEBAQEBAQEBAQEBAQEBAQEBAQEBAQEBAQEBAQEBAQEBAQEBAQEBAQEBAQEBD/wAARCAN6A3oDASIAAhEBAxEB/8QAHgABAAEEAwEBAAAAAAAAAAAAAAcDBQYIAQIECQr/xABvEAAABQICBAQLEA4HBAgEBAcAAQIDBAUGBxEIEiExExRBURYXIjVSVGFxcpHSCRUyNDc4V1h3gZKUsbO2wRgjMzZCVVZ0dXaVlqGmGSRik7LD0VNztdNDREdjZoKk4SVltMImJ0aERUhkhaLE4v/EABwBAQACAwEBAQAAAAAAAAAAAAACAwEEBQYHCP/EAEERAQABAwIDBAcGBAUDBAMAAAABAgMRBBIFITEGQVFxE2GBkaGx0QcUIjJSwTNT4fAVIzRCYiRykhYXNfFjZKL/2gAMAwEAAhEDEQA/APpmAALVQAAAAAAAAAAAAAAAAAAAAAAAAAAAAAAAAAAAAAAAAAAAAAAAAAAAAAAAAAAAAAAAAAAAAAAAAAAAAAAAAAAAAAAAAAAAAAAAAAAAAAAAAAAAAAAAAAAAAAAAAAAAAAAAAAAAAAAAAAAAAAAAAAAAAAAAAAAAAAAAAAAAAAAAAAAAAAAAAAAAAAAAAAAOM9uRFmZirxSX2uodYp/11kudQvoxM4SiMrJxSV2urxBxSV2urxC+AI7pZ2wsfFJXa6vEHFJXa6vEL4AbpNsLHxSV2urxBxSV2urxC+AG6TbCx8Uldrq8QcUldrq8QvgBuk2wsfFJXa6vEHFJXa6vEL4AbpNsLHxSV2urxBxSV2urxC+AG6TbCx8Uldrq8QcUldrq8QvgBuk2wsfFJXa6vEHFJXa6vEL4AbpNsLHxSV2urxBxSV2urxC+AG6TbCx8Uldrq8QcUldrq8QvgBuk2wsfFJXa6vEHFJXa6vEL4AbpNsLHxSV2urxBxSV2urxC+AG6TbCx8Uldrq8QcUldrq8QvgBuk2wsfFJXa6vEHFJXa6vEL4AbpNqx8Uldrq8QcUldrq8QvgBuk2wsfFZfa6vEHFJXa6vEL4AbpNsLHxSV2urxBxSV2urxC+AG6TbCx8Uldrq8QcUldrq8QvgBuk2wsfFJfa6g4pK7XV4hfADdJthY+KSu11eIOKSu11eIXwA3SbYWPikrtdXiDikrtdXiF8AN0m2Fj4pK7XV4g4pK7XV4hfADdJthY+KSu11eIOKSu11eIXwA3SbYWPikrtdXiDikrtdXiF8AN0m2Fj4pK7XV4g4pK7XV4hfADdJthY+KSu11eIOKSu11eIXwA3SbYWPikrtdXiDikrtdXiF8AN0m2Fj4pK7XV4g4pK7XV4hfADdJthY+KSu11eIOKSu11eIXwA3SbYWPikrtdXiDikrtdXiF8AN0m2Fj4pK7XV4g4pK7XV4hfADdJthY+KSu11eIOKSu11eIXwA3SbYWPikrtdXiDikrtdXiF8AN0m2Fj4pK7XV4g4pK7XV4hfADdJthY+KSu11eIOKSu11eIXwA3SbYWPikrtdXiDikrtdXiF8AN0m2Fj4pK7XV4g4pK7XV4hfADdJthY+KSu11eIOKSu11eIXwA3SbYWPikrtdXiDikrtdXiF8AN0m2Fj4pK7XV4g4pK7XV4hfADdJthY+KSu11eIOKSu11eIXwA3SbYWPikrtdXiDikrtdXiF8AN0m1Y+KSu11eIOKSu11eIXwA3SbYWPikrtdXiDikrtdXiF8AN0m2Fj4pK7XV4g4pK7XV4hfADdJthY+KSu11eIOKSu11eIXwA3SbYWPikrtdXiDikrtdXiF8AN0m2Fj4pK7XV4g4pK7XV4hfADdJthY+KSu11eIOKSu11eIXwA3SbYWPikrtdXiDikrtdXiF8AN0m2Fj4pK7XV4g4pK7XV4hfADdJthY+KSu11eIOKS+11C+AG6TbDH1EpCjQtJpUXIYCrU1f19Rf2E/WKJbhKOiE8nIAAyAAADiL1wY8IZCMejen2PDGQiFSdPQAAEUgAAAAAAAAAAAAAAAAAAAAAAAAAAAAAAAAAAAAAAAAAAAAAAAAAAAAAAAAAAAAAAAAAAAAAAAAAAAAAAAAAAAAAAAAAAAAAAAAAAAAAAAAAAAAAAAAAAAAAAAAAAAAAAAAAAAAAAAAAAAAAAAAAAAAAAAAAAAAAAAAAAAAAAAAAFiqnXBXgJ+sUy3CpVOuCvAT9YpluFsdFc9XIAAMAAADiN6fY8MZCMejen2PDGQiFSdPQAAEUgAAAAAAAAAAAAAAAAAAAAAAAAAAAAAAAAAAAAAAAAAAAAAAAAAAAAAAAAAAAAAAAAAAAAAAAAAAAAAAeaXLiwmFSZspqOyj0TjqyQku+Z7AHpAYTU8acI6K7wNVxKtuO52Kqi0Z/wMeuj4pYbXBkmi37QJijyyS1UGjUfva2YDKwHRJkoiUkyMj2kZco1T0lPNE8IdGS9X8PbpoddqVajx2pK24zJIbNLiSUnVWrYrYe3LceZcgDYTEzEW0sIrFrGI18VEoNFokfjEp4yzPeSUpSXKpSjSki5TMhrzol+aE4X6UdcqlosRlW5cEZ9aoEGW6RnOikfUrQfKsi9EnxD52aaHml1zaSlqu4ZWZbx27aUzUXUUPqJyRMNCyWhJnuSklJSezeZENMLbuSuWjXYVy21U5FOqdOeTIiyo6zQtpaTzIyMgH6kwGlvmf2npSdJuhIsG+HWYWIlKj6zqC6lFTZSW15suyL8JPv7hukAAAAAAAAAAAAAAAAAAAAAAAAAAAAAAAAAAAAAAAAAAAAAAAAAAAAAAAAAAAAAAAAAAAAAAAAAAAAACxVTrgrwE/WKZbhUqnXBXgJ+sUy3C2OiuerkAAGAAABxG9PseGMhGPRvT7HhjIRCpOnoAACKQAAAAAAAAAAAAAAAAAAAAAAAAAAAAAAAAAAAAAAAAAAAAAAAAAAAAAAAAAAAAAAAAAAAAAAAAADzSZMeFHclS3m2GGUGtxxxRJShJFmZmZ7CIh6R8odPjS7vrHXEpGiNo2uyZbT0riFUlQVHrT5GeS2iWW5lG3WPceR8gCTtKTzVy3LJqsjD3R5pKLsuFKzjqqRoNcVtzdk0ktrpkfvD536RGNOlpX6/Fj40XXX4U2qR0ymKSTymdRlwz1CNlB7CPeRHtyMh9QNG/Qnwj0McMKli7ibHiV666RS3qrUqhIQS24pNoNZtMErcezIj3meQ1P0DcOKlpn6Wd1aR2KUbjtIt6Z54pYdLWaXMcUfFmCI9mo0hOeXJkgB5NHrzJvFDFi0o96YpXm/aTdSbJ6LB1Ddlah7SU4SjyTnzbxF2lZoK406IhN3lCr0mtWstwm01eCtba4qzPqUvJI+pz5Fbsx96UpShJJSRERFkRFyELFe9mW9iFadUsm66a1PpFZiuRJbDhZkpCyyPLmMt5HyGRAPh1gJpcaaOFVpov62qnU7rsqDK4rNZmEcxphZZGaXN62zNJ5krdkNttI+4cF9LrQuLSExgtp/Du5Keh1qgSnkkb058kkZNtF6J1hatm3dkZ9/HdHrCSr+Z/XXjBfWNtajMYWoJ2kU2mSCS45cTusS462mz2Zk2o0mf9tWe4aM6SeknfelDfbDzsRUKixFFCt23YKT4GGznkhCEJ3rPZmeWZmAg48s9gzrBbCK7sc8SqLhfZEUnqpWXtQlK9Aw0ktZx1Z8iUpIzPvZco3awP8AM0rPuyyKlZWJl+sUfGat0gq1RaCh4jVTYyTLI5CC3qWaiI070ltGVeZaaN2I2FWljfHTGtaXTnrTt96ATrjR8C4+/Ia1FNryyURttOGRlyKAbX6HnmeGHuilcdQvjz6fuS5JCFR4c2Q2SChx1EWulCS/CVtzVzbBt2AAAAAAAAAAAAAAAAAAAAAAAAAAAAAAAAAAAAAAAAAAAAAAAAAAAAAAAAAAAAAAAAAAAAAAAAAAAAAAAsVU64K8BP1imW4VKp1wV4CfrFMtwtjornq5AABgAAAcRvT7HhjIRj0b0+x4YyEQqTp6AAAikAAAAAAAAAAAAAAAAAAAA4I8xhF5Yw4fWI7xa4a+y3JLfHaI3HS76S2kMV0h8VZ9g0ONRbbM/P2umpmMpG1TKNhGsi7LMyIu6fcFlw20a7fjwEV3Elhdark8ifkIkLM0NKPbqntzUotmZ98TpopiN1fRVVXMzto6rirS3wnJRkl6pKItx8UVtF9tzHC279pdacsVt2ZU6XDXJRFlNqaS5kWwtbLcZ5EL6jCPDRpJITZdLIklkX2nMXei2nbVtoeaoFFiQUv5cKTLZJ18ufxjNU28fhiSmLmecwhc9KVElclFKtpL5OUGJNpqlPGRSam8bZKgns2KTw7Xd2ns2DzU3Eq+LRxAvR2VR48+2+jCBTJD65q+GjHIjRkFwLZllqJWrMyzL0RmRbxIFPwAw3piaUmLTJCSo9feuSNm+Z/1xzPPW2bUFs1U8mqnmF3m4VWrPOrJkIlmVZrEauSsnss5LBNk3q7NiftKMy5dobqO6GcVd8sHnY7TWsR02Ewu3paJ7syJGXDlurkRnmY63SN9Jo1CIzQaepUZkeWwXLDC57rqmBKLovZ2PNqPEpjzio7qy4VCFLIs1ZEaVdSZbC3ZcouEHAuy6bcke448qrmqHNlVGNBVMziMvyErS8tLern1XCK3me0xfrew9oVtWnJsiC/Odpcg5BEh9/XU0h4zNSEKyLJJGo8i25ZjEzTjkzEVZ5oybxuqNGTZVKZpFLptOq9BgTuNVWY8SVG62j7Q05qmSlpI9puGWewZTivcF6Ui7MPoNrSYjUeq1lceeh9aiJ1omVK1diT2bM+TaRD0VXA20qzT6dRpVSriaVT4ManHAbm5R5LDBETZOp1eqPYWZkZZjI7rsmkXe5SnZ70uO/RZiZ0N6K9wa0OEWWWeR5kZGZGXMYxmnPIxVhCuHGKd423JOPcdGak29UrkqsFmecxTkpC2zUtOaDLLg+p1S25lzDJcJdIDpk3GzSDpcNMWoRXZcR2I644plKFZakjWSSUqNO0tUzLkGZs4S2iwxCjcDJW3Bqj1XaSt7Mjfdz19bZtT1R7B2s7C+h2NLcfotTrC4+qtDEKTMNyNFSpWsaWkZFkWfOZ5DMzTLERVCD8ZqxUWqjiVGcmVdyKzKttBR4T7qXNRZucIlokGRkasturlmM+wTpFYhXNcUmBRLko9oPMx0wIVecdN/jJZ8ItBOqUtKMst579wzCs4S2nXqhVqlPRMN6svQX5Wo/kWvEMza1Sy2F1R584zYYmrlhmKeeZQzCxsuGoVeM6m2obVAq1RlUemSzkqN/jLRHkp1vLIkKUky2GZlkPPgbWqvb2Bkm/LuUiXKWmdVH1tSnXlPajjmw+E9D6HIiTsIshmEHBezqbcZXJHOeam5DstiGuSZxI8h0slutt5bFH3xdqfZVFoNjOWRTIZyKcmK+whiS5nwhOGpRpUrmM1nt5CGZmnGIIirOZRS1pCXhS1zju6yadHyt+LW6cmHOU4bxyH0tNtLzIiSZa5GZ9/IXR7G266e9KtGqWpT03eipw6bHjtTFKhuHJbNxDhuGWsRElJ5llnnuFjw6wEnKrFclXxSpjFLm0VmiMQ5NXKa4lDbvCJU2tJFwaUmREkj27CzGft4G2YmkyqY9Iq8iRLltTl1R6YapyX2i1Wlpdy2GkjMi2ZZDM7IRjfLGEY6XbUXodr0a0YC7qObUIc6O/MUmK1xNKTcUhwizVraxauzv5Cy0fF6bVKjQcSK3FchR1WVNqkumx31LbJbTyiMizyJR9TlmZcovd9YNIhW9S4li0KoTp8OVJfXMRWUxJprfTk4tbyiMlkvItYstxbBdbFwKo9Fs+16VcS3X51EpD1KfJp37U+y8Zm424Rl1ZdUe3Zt2hmjBiqZw64PY0v4lVOVS5cCGhSILNRZfgOuOtE24ZlwTilpTk6WWZkWZZHsMVafixclQXcNyN23D6D7dcqDD0rjR8cWuIRmtRN5auqZpMi259wXqiYTUigQHadCuK5FNLNlLfC1A1Gw20olJab2bEbMj3mZbMx2YwhtSPXahWWXqilmqG+uXTClHxFxx4snVm1l6JRZ57ctu4YmacpRFWGAycfrto9HqM6vWZCbmKobdepLMeaakvsrdJsm3TMuoWWZHszLaPHLx3xWpciss1bDujpRbrEOfUHWaktRLiyDTkTRGnM3EkZmZHkWzYYziFgJY0OBUKe47VpaKhFbg68mYbi48ZDmullo8uoQSu+fdF5qeFlq1Y60cxEs/P6HHgzNV7LNpnLU1dmw9m0xnNHgxirxYBLoEo8b7fnW/W629MlpdrlXU9JXxVqmqQbbUVLXoMzXtI8tbqDzPaLxcukxhpa1dl2/UJE5UmC4bLxtxlGkllvIj5RIEW3IcOsFWWZErhCgtwCaU4RtE2hRmR6uXouqPM8+YeOp4dWPWZjlRqlrU6TKePNx1xkjUo+czEYqpz+ImmqI/Cjn7LfCj/a1L4qoPst8KP9rUviqhn3Slw0/Iulf3BB0psNvyLpP9wQnm14Sj/m+MMB+y3wo/2tS+KqD7LfCj/a1L4qoZ90psNvyLpP9wQdKbDf8i6V/cEGbXhJ/m+MMA+y3wo/2tS+KqEbYZaVM6BWnqVfLjs6lyZKjYm6pcLHSpWwlEW9O7ukNiOlNhqZfeVSvi5CNcM9GSh2xWXrkuo2KjLKQtyJGSn7QynW6kzI/RHl7xCdNVrE8kZi7ujmxXzQPSNLAPRsqtwW/PJuvXQRUiiLSeSkqdSZreTy9Q3mZHyKUkas+Zt4f4XaPWFsrSrx4uSmUmq3YSyo66i6XDNwSM83EJPqjU6ojPMi2pJPOMD82rvx+fipY+GzLx8UolEXUltkeRE/IdUk9ngMt+MWDRn8z0xo0pKTR76xpuqpUG0GYzTNLjOmZyHYyEkSCabPY03qkWWzPlGu2Eg6ePmluF2K2D9ewZwgYqktyuOMsyqo6jgWuLocJa0pSfVHrGhJc2WY1/0VtK7SSwLw3XYGB+E5TiqM1ypP1FdJdkKkOLJKUnnlq5ElKSLbyd0Zh5pzo04N6MlFwytbC6gqjS6gmov1Kc+6bj8lKOAS3rGfMZueMfXHA+yaTZOEFmWzDpsZkqdQoMZWq0kjNSGEJMz2bT2APmEelv5qZWCN+HhjNQgz/wCioRJL+Jio1pn+ad288lVYwreW2ZkSifoGZF3cyPYPruTTZbCQkveHBstH6JpB99JAPkN5qZa2PWL+PNt2XatlV+tU2i25FUhEKMpUd2Y8pa3nC/Bz2oT3NQe7Q+wV0ftEi7aDdGllddLgYj1hvjFIosnJxqit7kuSDLMkuq5M938Rtj5qHdV72LotyrssC4pdEqMSuQUvyYitRxcdZOIU3rb8jUpB/wDlIa/4AaD2Eembon2jilds2qwr9qTU5iXXW5KnHH3mZbzKVupWZkrqW08wCK9OmJWtHHSttTTAwkuYqtRLskpqLchiVwzPGG9UpEQ1EZkTbjaiMk8hKUX4I+ttg3fQcRLLod/226TtPuKnx6jHdIizU26glJI+6RHl3B8H9LTRgx/0Wac3ZV3VaVWMP5k4pVOmsqUqLxhKVEnNJ/cnNVaiy5R9L/Mj7+k3pojwqLMeU67Z9am0VJqPM+CPUkILvEmQSS7iQG6wAAAAAAAAAAAAAAAAAAAAAAAAAAAAAAAAAAAAAAAAAAAAAAAAAAAAAAAAAAAAAAAAAAAAAAAAAAAAAAALFVOuCvAT9YpluFSqdcFeAn6xTLcLY6K56uQAAYAAAHEb0+x4YyEY9G9PseGMhEKk6egAAIpAAAAAAAAAAAAAAAAAAAANZMT0FWNKu0KdK+4xWoq0pPcZk44v+OReIbNDWe+fXdW3+bx/80bMHuF13pT5KbXWrzcgAClcAAAAAAAAAAAAAAAAAAAAAAAAAAAAAAAAAAAAAAAAAAAAAAD4weaTOUKF5oTbE6+myXbbfnA7UErLNKoKXU8OWXKWqS8/fH2Mt+TR5lEgS7ecjuUx2O2uIqOZG2bRpLV1ctmWWQ+TPm12HsuFiNYmKDLB8TqlIco7yyLYT8d1ThZnzmh8iLwTEfaPemdpL6G9FodHvu2Zdw4eVSMzMpnGdZSExnEkpJx3y2EWR+gPl2AJL828Jzo1wyM89Tzqm5d/hk5/UPq7bppO36YaMtXijOWXNqEPiX5o3pZYTaWNBw3uGwET4lWo3ngzVIExrJTKXCYU3kstiizS5uH1twDxasu+sIbLrcW7KS5Im0KC88zx1vhG3FMpNSVJzzIyPMjIBLICg3LivJ12pLS086VkZCm/U6bFSapdQjMpLebjqUl/EwGpfmrZtFoWXWThbTn0wkeFxpH1Zjp5k+S/sKbTNZbDqFWNPe4899eYwDzXbFC1C0XmbRpFy0ybUavckJtcaNLQ44lltt5xSzSkzMiJSEFt5yEI6PHmkWE2jFok2bhpRqFPuO74DEx2THJPBR2Xn5bzxEtZ7VFk4RbAG7PmiU+woWiJiAi/lxtSTTjapaHctddRMy4vwZHt1iXkZ5fgkoa9eYmFJ6R1+moj4ud1kSObX4mxrfw1RoVpUYv6S2kXSI2L2K8CXTLO49xGjRDQbEUnVJUo+CQe1wySnql90ucfUTzJzDuTYuiHSqrNYUy/eFVmV40qLI+DUaWGj7ym46FF3FANzAAAAAAAAAAAAAAAAAAAAAAAAAAAAAAAAAAAAAAAAAAAAAAAAAAAAAAAAAAAAAAAAAAAAAAAAAAAAAAAAWKqdcFeAn6xTLcKlU64K8BP1imW4Wx0Vz1cgAAwAAAOI3p9jwxkIx6N6fY8MZCIVJ09AAARSAAAAAAAAAAAAAAAAAAAAazXz67q2/zeP/mjZg9w1nvn13Vt/m8f/NGzB7hdd6U+Sm11q83IAApXAAOD3AOCMzM8twdV2X8Bwjl747gOvVdl/AOq7L+A7AA69V2X8A6rsv4DsADr1XZfwDquy/gOwAOvVdl/AOq7L+A7AA69V2X8A6rsv4DsADr1XZfwDquy/gOwAOvVdl/AOq7L+A7AA69V2X8A6rsv4DsADr1XZfwDquy/gOwAOvVdl/AOq7L+A7AA4yPnDPbkORa0ViG7Wn6CnheMxo7clZm2epqLUok5K3GeaDzLvc4C6AAANctPLR7XpGaO1dtSlxku3BSsqxRdm1UlpJ5tl4aDWnvmnmGoPmYWM1l4i2dUdELHGjwJs2iOPOUSPVGUqNxg1HwsctbaS21GoyLfqn/ZH1LHy680N0JrvtS8/ssNHCNJj1KI+VQrEGnkZPMvpPM5TKU7yP8ADSXdPlMB6PNAfM7MGbIwUuLGXCG3ZFIq1BWzKkQo7pqjqjKcJDhkg9xp1yVnzJMav6JGgxfekzhnLv3DPF6PQqhTKi5TpkB43Um2pKUrQojQe5SVF75HzDdzRa80Ewv0mrDl4LY+vxKDc9TgO0iYckybi1JDiDbUaVHsQsyP0J8u4ay6HWItQ0D9MO4sDcSZnF7XuSUmnqlrPJnW1jOFMI92otK8jMuRZZ+hAX97zM/TkgK4Kn44cI2WzNFXkoLLvawqRvMu9M2smTNbx2ZZbV6I3ajJdLxEofXJp1t9tLrTiVtrIlJUk8yMj3GRjG8ScRLUwnsir3/etSbg0ijRlyX3FqIjVkWxCS5VKPIiLlMwHwI0otF+48B8X6Fg0/eyLvuatR4zriWCXk0/IdU2011RmesZElXeWQ+tmC3mcGjFhBBg1aoWg1XqxFYQ6/Oq6+FQhwk5rUST6lKc89h7iGjOiKw7pT6ZVz6XGK0qNTLRtGaqsuPzXSQw2+RGmFGJSthm2hJL2bftaecZ5ppeaGVzGucvRz0U2J9QTWXOITarEQrhp2Z5G0wRbUoPlXylzEAjzSnu2dp5aXVsaP2DpJKzLZeOmxnYqCKOlJKI5k3ItmqSUklPOSE5eiH2Is+1aPY9qUezbfipjUyhwWafEaTuQ00gkJLxEQ1c8z80KIGi5ZLlxXW2zKxAuJpJ1J8uqKE1vKM2fcPao+U+4RDb0AAAAAAAAAAAAAAAAAAAAAAAAAAAAAAAAAAAAAAAAAAAAAAAAAAAAAAAAAAAAAAAAAAAAAAAAAAAAAAAABYqp1wV4CfrFMtwqVTrgrwE/WKZbhbHRXPVyAADAAAA4jen2PDGQjHo3p9jwxkIhUnT0AABFIAAAAAAAAAAAAAAAAAAABrNfPrurb/N4/8AmjZg9w1nvn13Vt/m8f8AzRswe4XXelPkptdavNyAAKVwOD3DkcHuAdUcvfHcdEcvfHcAAAAAAAAAAAAAAAAAAAAAAAAAAAAAAAAAABSNCCXrkkiUotp5bTFUU1eiLvAKgAAAKa0IcQptxBKSoslJMsyMuYVAAfPbS40ScI3L8UzZ9mUmmVa+oykOvEyRIakkrJLqMtrZ5qIzNOW4hoFjxocaYlmTmV39aVZuSNTGeLRqnDWcxCWUmZpLWLqi3nkR7h9bdJT1XLA/3n+agbKqQhadVaSUXMZZi2r8lKqifxVPidgN5pJpO4C2yxZF1WJKuyn09BMwyq0d9qQwgthJNwk5qIiyIsxHekhpOaT2mTUYtGm2lV41Cac1otEpcF42TX2Szy6tXMZj7vzbOtKpOG9PtmmSVnvU7EQo/wCJD0QLdoNKLKmUWDF/3MdKPkIVLXxIwL8zv0vcVKHHtiurlWNZa5Bynmqg6aDcUrLNfAJ2rMySWRq3bB9PtFzQdwb0W6emTblO89rldbJMmuTUEp9XOSC3Np7hDYoiIiyIcgAAAAAAAAAAAAAAAAAAAAAAAAAAAAAAAAAAAAAAAAAAAAAAAAAAAAAAAAAAAAAAAAAAAAAAAAAAAAAAAAAAACxVTrgrwE/WKZbhUqnXBXgJ+sUy3C2OiuerkAAGAAABxG9PseGMhGPRvT7HhjIRCpOnoAACKQAAAAAAAAAAAAAAAAAAADWa+fXdW3+bx/8ANGzB7hrPfPrurb/N4/8AmjZg9wuu9KfJTa61ebkAAUrgcHuHI4PcA6o5e+O46I5e+O4AAAAAAAAAAAAAAAAAAAAAAAAAAAAAAAAAACmr0Rd4VBTV6Iu8AqAAAAAADWbSU9VywP8Aef5qBsvyDWjST9VywP8Aef5qBsv+CLLn5aVNv80uwAArXAAAAAAAAAAAAAAAAAAAAAAAAAAAAAAAAAAAAAAAAAAAAAAAAAAAAAAAAAAAAAAAAAAAAAAAAAAAAAAAAAAAAAAAsVU64K8BP1imW4VKp1wV4CfrFMtwtjornq5AABgAAAcRvT7HhjIRj0b0+x4YyEQqTp6AAAikAAAAAAAAAAAAAAAAAAAA1mvn13Vt/m8f/NGzB7hrPfPrurb/ADeP/mjZgXXelPkptdavNyAAKVwOD3DkcHuAdUcvfHcdEcvfHcAAAAAAAAAAAAAAAAAAAAAAAAAAAAAAAAAABTV6Iu8Kgpq9EXeAVAAAAAABrNpJ+q5YH+8/zUDZf8Ea0aSfquWB/vP81A2X/BFlz8tKm3+aXnXKjNPtx3JDSHXiUbaFLIlLJO/It55ZlmLdTrvtWsOSm6TclKmrhEapKY8xtw2SLeaySZ6pbD2nzCGtJKRHi3Vab82XUI0VNAus33qeg1yW0cSbzW0ktqlkWZpLnIhBVNep1rk1TGCsuulUrGr8eHW7VcNmUTSYPCa89hPU5K1CyUe0lnlymK1zdylXZa1fdcYoVy0qpOtJ1nEQ5rbykFzmSDMyIXkasYB4K3ozWrBv+pUWzrbp1HoijUmgIdTJqan46EoTJNXUmlO1eW3qsjG04AAAAAAAAAAAAAAAAAAAAAAAAAAAAAAAAAAAAAAAAAAAAAAAAAAAAAAAAAAAAAAAAAAAAAAAAAAAAAAAAAAAAsVU64K8BP1imW4VKp1wV4CfrFMtwtjornq5AABgAAAcRvT7HhjIRj0b0+x4YyEQqTp6AAAikCk662w2p11xKEILNSlHkRFzmYqjVjzQG/LitDC2m02gzXIhVyaqPJW2rVUbaU56pGXOAnebi7hhT31Rpl+0Rp1GxSTmIPLxGKPTswl9kKh/G0iMtETD+yl6P9q1aTa1MlTapHXJlPyYqHVuOcKtOZmojPckhM3QJZH5HUP9nM+SAs3Tswl9kKh/G0h07MJfZCofxtIvPQJZH5HUP9nM+SHQJZH5HUP9nM+SAs3Tswl9kKh/G0h07MJfZCofxtIvPQJZH5HUP9nM+SHQJZH5HUP9nM+SAs3Tswl9kKh/G0h07MJfZCofxtIvPQJZH5HUP9nM+SHQJZH5HUP9nM+SAs3Tswl9kKh/G0h07MJfZCofxtIvPQJZH5HUP9nM+SHQJZH5HUP9nM+SA1mu++bPmaTdAumLccBykR47CXZqXiNpBlwmZGr3y8Yn7p14TZ+qFQ/jaR7V4Y4dOVBurLsiinJaQbaFcSbyIj/s5ZZ93LMe3oEsf8jKH+zmfJE6690R6oQop2zPreah4kWHcsriNCu6lTpGWfBMyUmo+8We0ZOPlnphW4rCjSGqE6zF+dDMtuNUIqIajbJlZtpJeRFuzWlSst20fRDAu66he+EVq3VVVa0uo01p55XOoy2mIJs8HB7hyOD3AOqOXvjuOiOXvjuAAAAAAAAAAAAAAAAAAAAAAAAAAAAAAAAAAApq9EXeFQU1eiLvAKgAAAAAA1m0k/VcsD/ef5qBsv8AgjWjST9VywP95/moGy/4IsuflpU2/wA0vI/ToUl9mTJhsuusEtLa1oJSkEsiJREZ7syIs+fIWak4c2DQXZT9Es6jwXJzampKo8JtBuoV6JKsi2kfKQyYBWuUI8dmMyhiO0ltttJIQhJZJSktxEXIQrgAAAAAAAAAAAAAAAAAAAAAAAAAAAAAAAAAAAAAAAAAAAAAAAAAAAAAAAAAAAAAAAAAAAAAAAAAAAAAAAAAAAAAsVU64K8BP1imW4VKp1wV4CfrFMtwtjornq5AABgAAAcRvT7HhjIRj0b0+x4YyEQqTp6AAAikDTfzSr7wbV/SbvzZDcgab+aVfeDav6Td+bIBM+iH626xP0ev55wTCIe0Q/W3WJ+j1/POCYQAB11kls1iDWSZ5ZlmGEd1Lghz7w4NSc9hkLbWq1BoUE589aiaJxtvNKdY9ZaiSnZ3zIZiM8karlNMTMziIXUB1JaeyINdJb1EMJbqXYB1109kQcIjsi8YYN1LsA4zI9xjkEnzQ80Q9XFj9EsfWN2NFb1vdjfoln5BpP5oh6uLH6JY+sbsaK3re7G/RLPyAJXHB7hyADojl747imZKI80mOpqe7niAVgFHWe7niDWe7niAVgFHWe7niDWe7niAVgFHWe7niDWe7niAVgFHWe7niDWe7niAVgFHWe7niDWe7niAVgFHWe7niDWe7niAVgFHWe7niDWe7niAVgFHWe7niDWe7niAVgFHWe7niDWe7niAVgFHWe7niDWe7niAVh0V6Ih1JTvLl4h2SR55qMB3AAAAAAGs2kn6rlgf7z/NQNl/wRrRpHmlzF6wWkHrLJwupLftdRkNly3Cy5+WlTb/ADS7AACtcAAAAAAAAAAAAAAAAAAAAAAAAAAAAAAAAAAAAAAAAAAAAAAAAAAAAAAAAAAAAAAAAAAAAAAAAAAAAAAAAAAAAAACxVTrgrwE/WKZbhUqnXBXgJ+sUy3C2OiuerkAAGAAABxG9PseGMhGPRvT7HhjIRCpOnoAACKQNN/NKvvBtX9Ju/NkNyBpv5pV94Nq/pN35sgEz6IfrbrE/R6/nnBMB7hD+iH626xP0ev55wTCAgO9H3Y92y11R+pN1NV00dFO4NThMnANyKRls6nVNZukrPbrZcguEPz+O5kKi+eHRF58zeNa+vwHndk7wG/qNXU4HLLbrZiRahZVIqNdRW5rsx1TbqJCYynz4vwqCIkL1N2sWRGXdLMZGlKU7iIbE3o2xEQ8/Twq5XcrmuvEZzGPn5oDh9EhUKQdv+e3nj0OyPPjhdfPzxza1dXW2a/3fLV2ZZDqwunvpu1m3jnv0+Miivpbd4RRpydcNw0pVt3J290jE6zIbM+I9BcNRIfbU2s0KNKiIyyPIy3GLZblqU62zkriuSZD8tSTefkvG66skkZJI1HyERnkXdMZ9NGJ5ITwe5FynFeacTEz4cpjlHrzzRmjoifxDdXImKju+eTLkVXBvqNyBqIM0pIvteqfVkZntIxebpnwqlcNMmVZc/zhXEeJngUuJ/riXUpLWJO3PIlZZ7BJ+RZ55EBpTs1i8Yr9LzicNu3wyqiiaPSZzOecfDqhyoeeZ3XI1fPPz389I/EdXX4LiGqnW1vwcvR62e3cPGxab82RT5kh6rJXNrUpqX9ucSS4+atVBlyJ5hN+qnPWyLYOTLmItYhL02I5Qrng8VTM11Z556evPixLDZuZHt5cKYt9XFZb7LJvmZr4JK+p2ntPZyjLCHJJ27CyIdtwqqnM5dazb9DbijOcRh80fND9mODH6JY+sbj6OdcpVuaNVmVetT2okSPR2lOOuKyItn8T7g0480Q9XFj9EsfWL3Lp+I54P2POnHIdtUqPHKHwJnwTR6pa3CEW5Wee0xm1b9JViZSuV7KcxD6B0OtU64aRFrdIkk/Cmtk6w4RGWsk+XI9ouG8tg1Rw9pOk69ZdHdtGt01qjKipOEhxSNZLfIR5oP5RkHnJpf8ALcFK+GjyBObMRON0IxcmY/LLY3MwzMa5+cml/wDj+lfDR5Aecml/+P6V8NHkDHoY/VB6T1S2MzMMzGufnJpf/j+lfDR5Aecml/8Aj+lfDR5Aehj9UHpPVLYzMwzGufnJpf8A4/pXw0eQHnJpf/j+lfDR5Aehj9UHpPVLY4YjVcS7TpbTrypjkgo9XZob5MNmZtS3VJSlCs8tmaizMsxgeHdM0jo90R3b8rVLeopErjDadU1q2Hq6uSSyPPLlEe3Bh5EkOX1QGbSqDMmp3/S5slxiG6kpEFbratdLpFqqSX2zWyPNOZ55CGyInEylvnGYhtXs7gtVwVyFa9v1K5KnwnE6TDenSODTrL4JpBrVqlszPJJ5ENYLptO7LfhzbcpFMmdB1MvR03IkiDKmMlCXCSpGTTSkuOsk8pexBmRKy2Hlskqn0Wus6MNdo0mROqk123qs3FSuE6y8ptbT3AtJZWpbmxJpSklGajyLPbsCaIjnlmKpnuXesY/W3Sqk7AjWrdNVKLTI9Xlv0+C243FjPEpSFLzcJWeSFGZJI9wzZFz0+bQYFy0hmRVIFT4suOqIklKU2+pJJcyMy6giWSlHvJJHsPcIKoGGd23Pe9Zjlc1wWxTpFo0OFJOLDaIpZ6j5ON8I62o0qSR5HqGRlrbeQZ7ibbC6Fhhb9rWfBlnHpNdtuOy1HJS1ois1KLrGeW3VJtJmoz2ZEZnsGZinMRDEVTiZlKww25MTbate77csaplNVU7nfWxDNmMpbSDS245m65sSjMmXMi2mZpPZltES2VEl0bH2YqPRpdW89KjUnZdQmUqVHk01o9ZSE8ZUrgH2MyShtKS1iSZGe4xIeK9OmTbiwykQoDz5RLyS9JW00auBaKmVBOusyLqU6y0lmezNRFvMR2xE4lndmMw6XpjhQ7Hrcuj1C0bpltwnoUeRPhwm1xUOy1pQyglKdSpRmpaSySk8jMeubjLa8C80WZJhVhC1zm6V54nDygpmuNE4iObpnnrmky3JNOZkWeeweW+qZNuvEmzbYTAf86KU49c1SkcEZNOOsETURg15ZGrhHVO5Z5lxdJ8pDE65dMK7sdIFqVyBWoNHtKYzJiJ85JamatV1oyQ6b6WjaJlhK9hmos3DzPIkEZ5iIkmZhI984iUywygomUes1WVUTdNiJSonDvGhpJKcWZGaSJKSNO88zNRERGYts7Gyw4bNlSG5cyW1f7jCaM5GiqWhSHiSaHHFbCbT9sQW0881bCPI8sYxlxQkRrZpcC2olfhSLomyqUurN0OU+ukRmVmiTI1G21LJZ6uTOZZKNSV7UpHe7KBTE2FhjS7HpEw6RTLhoCYjfFHUuMQmlERGtC0ktBJSRa2uRZcoRTHLJmcyvV9440XD+qzafUrRuqc1T0RFypsCE2uM2clw22U6y3UmpRqLLJKT2mXOMovi9qJh7a0+77g40cKAjWWmKwp51ZmZElKEJ2mZmZFyFymZFtGMYiU2ddd/WVaaYDyqTFluXLVn+CPglcT1SisGvLI1HIdbdJO/KOoXm8JzdctK8qPBhzXJNPhyIqkrirInXVRScTwRmX2wsnElmnPqiMt5GMYjkzmebyVrFel0mjW5W4VuXDWk3Q0l+DHpsRDjqUGxw2s5ruJSgtT+1v2bRaUaQVnvW5QrhiUe4JXRBEkVCNBYhJXKbiMLJDr7iSXqkgjUnaSjz105EeY8FXK5qdo7UKi0GDMTcFRolLocbVYUbkN+Q20wp5ZZZoJolqWozyyJB5i1XXTWcLr0t+ow7eqkm3odkzbZilT4S5SmnydiqYbUlBGZEtDSi1j6nNO0yzEoiEZmUsP3hb7NonfJT+FoxwCqKJDLanOEjmjXSpKUlrKzSZGREWe0Y23jJQJOH9JxGpdAuCowqy+iNEhRoaTmG4p02iJTalkSclJPMzVsIU8IYcmgYb2xhzWYMlurUG1aW3OSthRskvgODNtLmWqtSVNKIyI8yLVPlIWKwZdZsvR4KoroE56qU6PUXmaeUZZvuO8ZeNtJIy1szzTls3HnuGMQzmWSUPGG16xZFZv+RCqlJp1BelR5rdQZQh5C4/3QiJC1JVtzSWSt5GQzOBL49DjTiYeYKQyh4mnk6riNYiPVUW3JRZ5GWe8Qpc2F9907CyzbJtqlwK153zGajcbMmecTjzqTVIcyWTa89eUZKURltTmXKPVasrHa4cEKfJZaapN3rfdJ0p7puLUyTy8jM1ILVVlkREadxEee3Y2xPSTdMdU26xDyVKp0+jwnalVJjUWKwnWcddWSUpLumY1885NMD8oKV8NHkDyLwBxkv19CcTsQi4gStc47DqnfeJJkSUn7xiz0VMdaoQ9LM9KZeKhynMd9IFi6abHc6HrZ1NR8y2L1DM0mfhq5OYhtMewhjtk2NbuH1EboNuQksR0dUtR7Vur5VrPlMZDmXKIXKoqnl0hmiiaY59ZdhqPpfadNC0ZcUsNbBcTHkJrk9Mm5VK2qhUpWs0lZcyuEM3OfVZMvwhtwNQNIfRFwSu/FuyLsvG3Xa7U78vRVPqb06QpepERb9UWhhkthNoSuOysiL8JBGILW20WVGmxmpcV5DrD6EuNrQeaVJMsyMj5SyHpGN2BZVNw4sujWJRJc2TT6HERCirmvm89wSCyQSlntVkWRd4iGSAAAAAAAAAAAAAAAAAAAAAAAAAAAAAAAAAAAAAAAAAAAAAAAAAAAAAAAAAAAAAAAAAAAAAAAAAAAAAAAAAAAACxVTrgrwE/WKZbhUqnXBXgJ+sUy3C2OiuerkAAGAAABxG9PseGMhGPRvT7HhjIRCpOnoAACKQNN/NKvvBtX9Ju/NkNyBol5oviJalXhUKxaZVW5VWp0tyTKaaPWJpJpyIlGXL3AGxmiH626xP0ev55wTCNS9FrSZwVt3A+27Wue+YNGqdGYXGfYlmpJmfCKUSk5EeZZKIS39lZo6ey5Qv7xXkgJZARN9lZo6ey5Qv7xXkh9lZo6ey5Qv7xXkgJZARN9lZo6ey5Qv7xXkh9lZo6ey5Qv7xXkgJZARN9lZo6ey5Qv7xXkh9lZo6ey5Qv7xXkgJZARN9lZo6ey5Qv7xXkh9lZo6ey5Qv7xXkgJZARN9lZo6ey5Qv7xXkh9lZo6ey5Qv7xXkgNKfNEPVxY/RLH1jc7Rop0GraN9mU6pRGpMZ+jNIcacSSkqIy3GQ+fOl3ivQcW8Yp1btZwn6TCYahRpJZlxgkpLWXke4tY1EXcIjG9ehtiFad04LW7btIqjTlSoUJEWbFM8nG1p5cuUu6Am6kUinUGmRqRSYqI0OIgm2WkehQkuQh7gAAAAAAAAAAAAAAAAAAAAAAAAAAAAAAAAAAAAAAAAAAAAAAAAAAAAEU41ffvgn7oDv0drIlYRTjV9++CfugO/R2sgJWAAAAAAAAAAAAAAAAAAAAAAAAAAAAAAAAAAAAAAAAAAAAAAAAAAAAAAAAAAAAAAAAAAAAAAAAAAAAAAAAAAAAAAFiqnXBXgJ+sUy3CpVOuCvAT9YpluFsdFc9XIAAMAAADiN6fY8MZCMejen2PDGQiFSdPQAAEUmpWmbpSVnCxXS6s2O4xWJ0YnXqgotjLai3I51d3kHzonz5tUmPVCoSXJEl9ZrcdcUalKUe8zMx9m7+wkw6xNYSze9qQqmbZZIcdR9sQXcUW0RsehFo8mZn0HqLPmkKAfKXIgyIfVn7CHR6/JFfxhQfYQ6PX5Ir+MKAfKbIgyIfVn7CHR6/JFfxhQfYQ6PX5Ir+MKAfK+mMQpFRjMVGScaK46lLzxJ1jbQZ7VEXLkQ3otq89Aah0GDSpVLZnPRmUockv09ZrdVltUZ58piaPsIdHr8kV/GFB9hDo9fkiv4woBFXTI8z//ACbg/s5f+ojnHit6Gt2WHJaw7IqRX4p8LEXHgrSTx8rasz3HzjZv7CHR6/JFfxhQfYQ6PX5Ir+MKAfKbIgyIfVn7CHR6/JFfxhQfYQ6PX5Ir+MKAfKbIgyIfVn7CHR6/JFfxhQfYQ6PX5Ir+MKAfKcZLh/iHdWGVyRrotGpuQ5kdRGeqfUuJ5UqLlIx9M/sIdHr8kV/GFCrH0KdHiO6l47KJ3VP0Lj6jSffIBetG7HWLjxYvRF53uQp8Jwos5rLqOFIiPNB8pHmJcFitKzLYsWkIoVpUWLS4LZ5pZYRqlnznzmL6AAAAAAAAAAAAAAAAAAAAAAAAAAAAAAAAAAAAAAAAAAAAAAAAAAACKcavv3wT90B36O1kSsIpxq+/fBP3QHfo7WQErAAAAAAAAAAAAAAAAAAAAAAAAAAAAAAAAAAAAAAAAAAAAAAAAAAAAAAAAAAAAAAAAAAAAAAAAAAAAAAAAAAAAAACxVTrgrwE/WKZbhUqnXBXgJ+sUy3C2OiuerkAAGAAABxG9PseGMhGPRvT7HhjIRCpOnoAACKQAAAAAAAAMTxTrcy3MOLjrVPVqyotOeUysvwFmnIle8Z5+8Axyu4r1aXXJNq4YWku5Z8JXBzZi3yZgxF9gpw/RqLlSncPMqq6SsVHG3rYsSY2W3iseZJQ8fc1llq5jJMJLdp1r4d0Sn09BZLiIfec3qddWWstZnymZmZjNAGC2JifGuydJtys0WXb1xwkkuRTJhkalIPc40stjiO6QzoRHjvEapT1pX5BPgqpSa7HipcTsU7HfzS40fOR9SfvCWUKJSEq5yIwHcAAAAAAAAAAAAAAAAAAAAAAAAAAAAAAAAAAAAAAAAAAAAAAAAAAAAAAAAAAAAAAAEU41ffvgn7oDv0drIlYRTjV9++CfugO/R2sgJWAAAAAAAAAAAAAAAAAAAAAAAAAAAAAAAAAAAAAAAAAAAAAAAAAAAAAAAAAAAAAAAAAAAAAAAAAAAAAAAAAAAAAAFiqnXBXgJ+sUy3CpVOuCvAT9YpluFsdFc9XIAAMAAADiN6fY8MZCMejen2PDGQiFSdPQAAEUgAAAAAABbq9R4dw0WfQqgjXi1GM5FeL+wtJpP5R5Lvumk2Tbs656ytSYlPaNxRJLNSz3JQkuVRmZERd0RnTbMv7FphNdxJr06hUeV9si27S3jZUTR+h4y6XVKUZbyLIiAWu2cZbfwZ4vhdjDccOmPQf6vTKs86ko81gtiCUZH1DhFkRkfMJAqOOeDdJpp1efijbDUTV1uE882lbO8SjP+A89PwBwepzaUIsGmScuWYg5JmfOZuGoXJeDuEziDbXhpbGqf8A8qYL/wC0BHVNuaBpF3VR51sykLsq2pRVDjKlESqnLSRk3qJzz4NGZnme8zE7iM6jo74TTzJ2JbBUmSn7nIpj7kVbZ86dQyL+AsL1XvjBCoROiWtyLnseU8iMc+SnOdS1rPJBuqLY40ZmRa28gE1AKTbiHW0utKJSFESkmR7DIxVAAAAAAAAAAAAAAAAAAAAAAAAAAAAAAAAAAAAAAAAAAAAAAAAAAAAAAAAAAAAABFONX374J+6A79HayJWEU41ffvgn7oDv0drICVgAAAAAAAAAAAAAAAAAAAAAAAAAAAAAAAAAAAAAAAAAAAAAAAAAAAAAAAAAAAAAAAAAAAAAAAAAAAAAAAAAAAAABYqp1wV4CfrFMtwqVTrgrwE/WKZbhbHRXPVyAADAAAA4jen2PDGQjHo3p9jwxkIhUnT0AABFIAAAAAAES4sI6JMQbCsNzqobst6sTUcikx0lwRGXKWuo/EJYIiSRERZEWwhFtSIpGknS2VbeK2o4+XcNUlSfqEqAAAAALPc9BhXVb9StuooSqPUorkZwjLPIlJMs++R7S7wvAAI5wBrkyt4XUnzyWaptPJdPkGZ5nrtKNHyEQkYRVgGRMwLwgl6GHdtUYSXMROmJVAAAAAAAAAAAAAAAAAAAAAAAAAAAAAAAAAAAAAAAAAAAAAAAAAAAAAAAAAAAAAB899MnTbq2BOOdrWdeuF78pu2q+m56BKp756tUhu0mfCJCiUXUuJflkRkXI2fOQ+hAiLGbRqw6xyu6wbyvKHwk3D+rHVIeSSMpBauxlzPegnUtOd9vLcowGaYa1i66/YVCrt9UaNRq9UILUmdT47iloiuLTrG1rK2mac8jPnIxlI4IiIiIiyIhyAAAAAAAAAAAAAAAAAAAAAAAAAAAAAAAAAAAAAAAAAAAAAAAAAAAAAAAAAAAAAAAAAAAAAAAAAAAAAAAAAAAALFVOuCvAT9YpluFSqdcFeAn6xTLcLY6K56uQAAYAAAHEb0+x4YyEY9G9PseGMhEKk6egAAIpAAAAAAAhK+qxVrKx3h3iux7nrlKftfzv4ajQONcG+UlS9VZaxZdSZGLv0/2PYhxP/d0/wDmCVhjGI91vWRZNWuuPFRJcprJOpaWoySvqiLIzLvgMQ6f7HsQ4n/u6f8AzA6f7HsQ4n/u6f8AzBWurGNu0qraLFTiR2adX4EyfNkrWecVDDSXD1S5fRHv5h44OkvhpNoEm4M63GJh9uO1EkU1aJMtbhZt8Aj/AKQlkWZZHu5gFbp/sexDif8Au6f/ADA6f7HsQ4n/ALun/wAwGNJHDCUVGRFm1F2VXJDkSNCRBWchDzaiJxDiN6DSZ9VnuEqEojIj5yzARPo9s1hdMu2tVW3apRU1q6qjUYsapscC/wAA45mhSkZnlmXdEtAAAAAAAAAAAAAAAAAAAAAAAAAAAAAAAAAAAAAAAAAAAAAAAAAAAAAAAAAAAAAAAAAAAAAAAAAAAAAA4AcgAAAAAAAAAAAAAAAAAAAAAAAAAAAAAAAAAAAAAAAAAAAAAAAAAAAAAAAAAAAAAAAAAAAAAAAALFVOuCvAT9YpluFSqdcFeAn6xTLcLY6K56uQAAYAAAHEb0+x4YyEY9G9PseGMhEKk6egAAIpAAAAAAADHb8tVq97Oq9qPSVRiqcZTBPJLM21b0qy5cjIjyGRAA16i4LYv3NNhyMRbitdSLdpEqm0hEGK4pL7jyCQbskl8mqki1U7N4wQtDi8p1AkRalPtxhceoxp8Gkxnph09am0mlRrNSuEb1s88kHkXINwAAQBhPo2zMPa1b9wPyaMw7TlVB+ZGgNu8GpySaT6hThmo8tXapR5mJ/AAAAAAAAAAAAAAAAAAAAAAAAAAAAAAAAAAAAAAAAAAAAAAAAAAAAAAAAAAAdDPIsz3CF63pDKOrSafZdoya5HhuGy5M4Um2lrI8jJHPkfKJWuRa27fqbjajJSYbykmW8jJBiAsDrTbr9jwjbnsxlISajSotqszMzMX2qaKbc3a4zziMeamuaprimJwvf2QF7+xgr42QfZAXv7GCvjZC6UyzUVOqzKW3VmCVGNJIVvJ3PPd3sgiWe3LrkijIq7GbKUqS5yOGZEeRd7MS9Lb/RHx+p6Or9U/D6LX9kBe/sYK+NkH2QF7+xgr42QuiLPbXcCqGVXYzJrXJ3kNWZFq9/aD9nNsV9qhqq7Ga2jWbvIlRGZap93YHpbf6I+P1PR1fqn4fRa/sgL39jBXxsg+yAvf2MFfGyF0nWc3ArUWkOVdjOQSjW5uJvIjPI+/kOatZqKVUYVPcqzClSlqStW7giIiMjPv5h6W3+iPj9T0dX6p+H0Wr7IC9/YwV8bIPsgL39jFXxshdazZyKO/CYXVmHDlvJbPL8BJ5dUfc2jpclppoEJqX56MyDeUkkoRvNJkZkrvbA9Lb/RHx+p6Or9U/D6LaWkBe5f9mKvjZB9kBfHsYq+NkLfqLJJLNJ6p7CPLYPRLrto2tDkNVIzqdxnDVNi0VozJbiCQayUfc1EqUfcIxO3VTcq20URM+36o1UzRGaq5+H0V+n/AHx7GKvjZDNMNMWqZiA/LpL9OfpNagJJx+DIMjUbZnkTiDL0Sc/FmQje07xtK9aFSUTGU0G5qo2a4sBRmaJic1JJbfMlRoURd1JijZJG1j7RDQWqp2izEOZbNYiURkR++LK7UfioqoxMRM5jPd7WKa5iIqpqzE4+LY/nHgOvUQjMjq8IjLk4dH+orzlGmDIMj2k0syP3jEE0xiScWE1Hcb+202C8rXYQoms2E7sy2mpRKM8x5ziHEJ0e3FOc5+DpabTxfzMzjCb+iCh8tZhf36P9Rz0QUI//AOMQv79H+ogNutk424s31INs8lIXT2SWR6xJMss95Z5mXMRjiXWZMUtci1kJjlJdM4bKTQ2ajSR5cueqZ7OQcy3xyu7VtoozLar4fTbjNdWGwEerUuS4TUWoxnnD3JQ8lRn7xGPbmXOIVtxLyLnpjzi0k4VXQwaEtpSTf9UfNRJMizMlZpPaJldPNpfgn8g6/D9XOtomqYxicNPU2YsTEROcxlUzIca3dHz1hXPWlG0ZVeoKfOGg9Rck9Q/7R9V6LPePQu57gN11uDMmvyVG0hLJyFGnWM8iJJEref8AoPUf4PV+v4f1cj79H6X0DzLfmOCV3R8/+iWvcJIS1OnE8hwm1tPyFFwRp2KTlrZly590ZzgLXKlLxaokVdRnOtrkSzcS7INSfSbp6uWseZEeR98V3eFVW6Kq93SM9P6p06yKqopx1bjn3QPnIcLWSU58hCF750rsMbGrblBkyX5sllWo9xZJKS2rmMxqaLh+q4jXNvS25rqjniIS1eu0+hp36iuKY9aaC6raW0MuXlGIWXipZN+UhutUOtx1MLVqGl1wkKQvsTIz3jLkqQ4kjQojI9pGXKKb2mvaeuaL1M0zHKYmMLLOptaimK7VUTE98KoDgciteAAAAAAAAAAAAAAAAAAAAAAAAAAAAAAAAAAAAAAAAAAAAAACxVTrgrwE/WKZbhUqnXBXgJ+sUy3C2OiuerkAAGAAABxG9PseGMhGPRvT7HhjIRCpOnoAACKQAAAAAAAAAAAAAAAAAAAAAAAAAAAAAAAAAAAAAAAAAAAAAAAAAAADjMgHIAAAAAAAAAAAAAAAAAAALVc5/wD4bqv5i/8ANqGtGGLrjVl0tTTikHwRlmk8jy1jG0FRiJqFPkwFnqpksrZMy5CUky+san02bMw3ZVZ94UmcxIpy1oafajqcakN6xmlaVF3DGzZpmu1VRTGZzE49SiuqKK4qq6Yn9mbNuutLJ1pxSFluUk8jL3wQ442snG1qSsjzJRHkZDCVYt2ilxbRqnmps9VRFEVsPuh027R5qh8UWH3S9+mfcl6aj9UM2Jxwl8KS1Esj1tbPbnz5gpxxSzdUtRrM9Y1Ge3PnzGE9Nu0eaofFFh027R5qh8UWH3S94T7j01H6oZs4446s3HFqWo96lHmZg4668s3HnFLWe9SjzMYT027R5qh8UWHTbtHmqHxRYfdL3hPuPS0fqhmzjrrpkp1xSzIsiNR57AW667q8I4peokkp1jzyIuQu4MJ6bdo81Q+KLDpt2jzVD4osPul7wn3HpaP1QlGVcJSLYj0PzuQg2V58OReiyz/jtHF9YXUS+beO/bfkOwLmhU/JmU0oz+5tKSplSeUlJNSffGFSsf7OkW5HoRQJiVMr1jeKGrM9p/6jyUnHmjURalU+TUmyV6JHFFmk/eE7VnU2q99EShXXbuRtqmGSYGYRUqBbNFxJvZ2Q/VojCFwyezQUBhvW1WySfLtUZ90xQtN0ntIOiPEnVJykzlZc2ZkLZNx6p9yoUy/MqDjbRkSm0Q1kRH3SIXrBukVW6cSOj9VNkwqNTKe5Cirktm2uS84ojMySe3VIiP8AgL65vVVV3L0TEYnr645RCFMW4ppoonPOE+z/AEhJ/wB0v5DEPW1H4SJBXlvotN/wLExTiM4UhKSzM2lkRe8YhCkXFGg0+HFmtVJp+HCjRk8HAUo0KQ2SXEqPcotYsyHkuKUelqo5dM/s7Wi5U1R5O1wopNtwnqpVXGEpecUaCRBQtxSszWrIvwjJCVZmfIRmPDTavY1wtw6idXiy0rZQbLao5tqQkzzSRkXdIyy3C6Sbko81HByyqLyNVSdVyj6xZKSaVFt50mZH3DHDVx0VgiJhqc2ScstSiknLLvDWt0WKLf5J3+MYj9ltVNyqr80Y9eVzpzXBXPTsyyzuBH/0Dglp77kvwT+QRBQ6ozVrno8ansTDaYqCZOb0VTZpSUd1K1KUe8zUtIl937kvwT+Qb/CqNluYx3/Rra2czHk+dkVU9URptam1tcTQfAEfV7t/oc8uQbIYY4RWhR7VtzEy65bTTjLa6q6bxFwX20kcXNR/92lKTIuVSjGtkSM8mMy8okob4kj7eSjNRbPQ5ErPLlGUVa+Lql2IVjVCrpRQ4zjTrKuDzXqkZ5NntzNBHqmRdwh7/U0VXqIot1Y58/J5u3VFE5qjPgz7HLBToOdcv2lyXJrNRnrVP1zJJtuPPqW2osi9CRqJPiFjwDXNXi/b/GXGnEk/MItQyPU/qb2w9hbf9R4r3xWvi+KTHoldlsRoEdbOslhvLjTicjJSsjzLaRHlyHtHrwBjOs4v2+pxtDZG/MMslZ6/9Te6ree3/QVTFynSVRdmJnE/JLlN2JojEZj5tisdsT6dhZYcutTW1rflEcSI2g8jU6pJ5be5tP3h8x5cp+bJdmSXDW68s3FqM8zNRnmZj6a474RsYxWadv8AGuLSo7xSYrplmSXCIy29wyMyGq6tBnEolGSaxTDLPYe0e7+zvjPBeD6OurVXIpu1TzznpHTDw3bXhnE+I6qmLFM1UUxyx4z1y12jVOow0cFEnPsp1tfJDhpLPn2Dc3RCx8euBLWGVyvvP1FtK1wpLitbhEJLM0Ge/MizPvEI5+wZxMzy896bn4RiWdHvRXqOGV2JvK5qoy/LjIWiK0yXUpNSTSajPvGZe+Ox2x432c4twy5TTciq5EZpx13d3d08XM7NcL43oNfRM0zTRM4qz0x3+3wbOgAD4M+xgAAAAAAAAAAAAAAAAAAAAAAAAAAAAAAAAAAAAAAAAAAAAAAsVU64K8BP1imW4VKp1wV4CfrFMtwtjornq5AABgAAAcRvT7HhjIRj0b0+x4YyEQqTp6AAAikAAAAAAAAAAAAAAAAAAAAAAAAAAAAAAAAAAAAAAAAAAAAAACmnPuDk9osKbojuXm/Z6YznDs09qoG9mWoaVuOIJOW/MjbM/fHnlYiWXCuFu05dyRG6s4ZJTFUvqtYyzJOe4jMuQzzE4s1zPKmZ5Z8eXipm9biMzVEc8eHNk3cyDLujE6didYlWny6ZAuqA/Jp6FuSUE5kSEIPJSsz2GRHvMjPIW+0cX7Rvm659sWxNROKnQmZjslpX2v7YtaSRkZEeZamee7IyEvul/EzNMxERmeUxiO5D73YiYjfGZnEc+ss8284becQ65pAkzNdeesiWikM1pVEVUCnMmrhieNklEz6M0mv+B5jMnsUrHRUpdCYuCM/VIbLrq4aVHrmbadZSSPLI1EW8s8yFlWg1FGN1M+zn78eaFOv09fSuPbyZgOctgwCjY1WHUafQ359bj06ZXozMmPDfXm4knfQEoyLIsz2FnlmLlFxRw/nV47Xi3XAdqieEI4xOdURtn1ZZ7s08pZ5iNWmvxM5pnl6pTjV2aoiYqjn64ZZnmOc+6MNiYtYdTY9RlRLtgOM0kiOWvhDImiM8iPaXVEZkZEZZ5mCsWsOE06LWDu6nlDmuqZjuGs/tjiTIlIIss9YjUWzLPaI/db2fyT4dJ80vvVj9ce+GY7N5mBER7BjNyXvCoFVo1GRGdmS6wby0IbMi4NhpGs48rP8ABIzQnvrIY8xjRQX7XtW5kRVZXTKixWY5OoNxhT6VGRr72rtyEqdLeqp3RTynp/fslGvVWaKttVXOP6fVI+sY7bRH8bF635eKcnCpEaQUyPE4xxszLgVukSFLYL+2lDrajLmV3B7IuLuG89yZHiXjT3FwWFyHyJzIkNI9GrMyyMk8uWeXKFWkv04zRPOInp3T0n2sU6uxVnFccpmOvfHWGaZ8w4zIYOrGXDBtMN1d504k1BSkx1a56q8l6hnnlkRa2zWPIj5x7pmJlhU5l5+bdMBpEeS7Ed1l7UPNoNxaDLfmlCTUfcLMRnTXonE0z7pSjU2Z57498MpI8/wRTdYjvkRPsIcIt2ukjy8YxK6MTLdtliPKXKRLQ7xd94mVlrMxHnODTJMuVslmkj7mZ8hi+VC46JSZMaJUakxHdmNuuspWrLhENJJThl4KTIz7gj6K5TicTzzj2dSL9qc/ijljPt6Ijr2j7XJ90Viv0m8GYDdVkHINgohKJGwiIsz7hDyfY73mX/aIz8RSJKl4o2m0xBfgVWNOKolHea4N4izjPKNKXizLanNKsi3nkYxmBpLYYzVxHnawmJAlxX5CJcjNKc2XuCUjVyzz/Cz3ZDoUffq6c00zOOXT+57mvXe0lM4mqIz62N/Y73l7IbPxFIfY83l7ITPxFIk+/MQKZY9pHdjjZzWXHY7EZDTiUk84+4lDZa59SlJmos1HsItoxOTjodHolWnXLZsymzKY7CZZZ4y24xMOW5wbJtyC6jLXzJRn6HLMxK3XrLtO6iImM47uvLu9sI3LumtVbK6sTjPf082OfY8Xn7ITPxFI5+x3vT2RGfiKRlcXGaUy1JRcNlzqZIYn0uElJPoeYeTOfSy2628nqVElRnrFvLLukJGmzo1OhP1Ka8lmPGaU884o8iQhJGalH3CIjMVXL2pszEVY5+qJynaqsX4maJnl5wg77He9PZEZ+IpHH2O9555dMNn4gkZTQMZKrWF0irLw6qsa3a7IQxBqRuJWsyc+5OuMl1TaF7Np7tYsxkiMVcPHpVShIu6Ap6kNOPzU8J9xbQeS1Ge4ySe/LPLlE6q9ZTOMRPlETjzxnHNGm7pqo51Y85mM+/qjP7He8/ZDZ+IpHX7Hi8/ZDa+IpGYt4+4fzqnOpFBqzVSlQWIklXBq1G1oflcX6lZlkZpVkZly6yct4p2fjpb14zZyGo6YsGDNqUVUx+SlKVJhG2TjuqZEZJPhPeItu8S/67bM7cRHXMY7s/JH0+kiqI3ZmenPPfj5q+FGFDmHyawdVqTNVeq0huQbhsEnVNKdUyy8X8RI6UpbSSUpJKS5C3DC2cY8M3qK5X27vgqgsyExluEpWZOqTrJRq5axmadpbNpbRTRjLh87cFOt2NX47rtUpb9YYeSf2k4zSiJSjXuLeo9vYKzyGpXa1N6qaqqZz38p7o+jYp1GntxEbo98M6VlmW0UuLsHtJhv4JCx2re9q3rGelWxXI1SbjLJt42jPNBmWZZkZEZZltI8sj5BSgXlFqVSuSFFiuqTbTqI772ZarjxsJeUhPgpcbz7qu4NebNeZpmmYmOueWFsX6MRVFUTE9Mc8shKOx2u38Eg4sx/sG/gkIjt7Hat1y3GrwXhzIiUd6mnVESXapH2NG1wiNZJbU63Ult3Z7RmcnFTD6BLqEObdMBqRSkG5ObNe1giUlPVbN+akkRbzz2ELrmhv26ts05n1Yn5ZVW9fYrp3RViPXy+bLCZZLqkNII+ckkO58xjFIeJlgyoBVGPdUFcXikicpzhMiJhgyS8s89pEg1JIyPaWZDrVMUbBo7RyKhdMFpokR3c9c1GaXyUbJkREZnrkhZllyJMxXGnu527Jz5Ss+82pjO+MecLqVo2tnmVtUsv/wBo3/oHQfah/wD6ZpXxNv8A0GCXRj7a1uvsJiRnarGlUxuqMyozqeDW0qYzGyLPlJT5H/5TLeMyuq7YtrNU5TkZ2U9VKlGp0dlsyJSlurIjVt5EI13D/soMTqtX6cbsxnOPZ19yunUWKs7ZicYz7ej0FaVq8lt0v4o3/oKkW3aBCkJkwaJAjvoz1XGo6EKTmWR5GRZ7jMYdeWK0igXYiy7ftl2tVQqf55vNlLbjEhk1mhJJNfo1GaVbC3Zbd4vdIxEtyp0NVdlSDpxR6c3VJseWk0OxGF6+SnC5NrThf+QxmbF+mmK5icT68/D1s06qxVXNETzj9voyvmDnGEVLGLDKkT3qZUrzp7EqOakutKWeslSSzNOwvRZHu3nyCrMxYw5p9Pp1Wl3fAbiVVJqiO65mTqSPI1bCzIiPYZnkRHvEfu16Mfgnn05TzSjVWZz+KOXXnHJmPLlkOCMY9dF4QrWgU2oOsqktVKpQqc0bSiyI5LyGkrz5UkayPZyDm6b4tay47Mq6K1HgNyFmho3DPNZkWZ5JIjM8i2ns2CuLVyrEREznOMepOb1unOZiMYz7ejIdpmQax8ow+s4sYd29xNNXu2nRymslIjmp7MnGj3LzLPJJ7iM957BRkYr2ZSoD9Qr9YjUxlE12CypbpLN1SEko1ESSM9x5ns2cosjTXsRO2efTkh96sxMxujl15s4LPlAyzHlhTItSiszYbyHo77aXWnEHmlaFFmSiPlIyMerMhTMTE4lfExMZhyAADIAAAAAAAAAAAAAAAAAAAAAAAAAAAAAAAAAAAAAAACxVTrgrwE/WKZbhUqnXBXgJ+sUy3C2OiuerkAAGAAABxG9PseGMhGPRvT7HhjIRCpOnoAACKQAAAAAAAAAAAAAAAAAAAAAAAAAAAAAAAAAAAAAAAAAAADgcgAi26YWINJxKXdlqWpGrcWTRmae4TlQRHU24h51e5RbSMnCGDTcN8SahIqFFdtintt1i4Wa8usKmJWuKhK0um1q5aylJNPBkZHlqmNiMhxlnuG9a4hXZiNtMZiOvPPLp34c27w6i9M7qpxMzOOWOfsallgbi5UZDTMunpbNVKnU999dRbNjhHVocSbbKUlqtq4PVMszPqzMSthhad3Q7+qt1XDaUCgxX6NCprLUeSh1TjjKnDUpWqRZFkosu4JfUWezkAi27hfqeM39TTsriIiYxyz3zme9TY4PZsVxXFUzMTnnjwx4NW6lgPdc+VU4fS/pqJsu4nKpGuJVU6ths5XCpWTJfhEnqcu6DmEOLb13QalOpiZCYdUqL63iqTaGHGpDTqEKbZJOaVdWk1Go8zMbRhkWe7aYnb47qLfLETynrmesY8flyRr4JYqnMTMc48O6c+DU2oYIYvppkSlN0puSUSHSENcXqTbDOtFNtTiHSNJqcM1IVqnmRERkMvmYF3NPtaDTWo8ODUV16rT5UlDiTW2xKalIbVrEWajLhW8y7ncGwhlnvIcGRZZZBXxzU3IiMRGJzyifDHizRwWxRMzmZzGOc+vPg1mrWEeJV0WxBprloUqjvUBFPS2cSYknp/AOKNaUuEWTacjJSdYj6reLnZOCNyQrpolyVqjtoZbrFQqUpmZNTLdbJxhpppRnqkk1nwZmeqWzMbDhs3kYhVxnUTRNuIiInPTPfGJ70qeDWIriuZmZjHh3TmO5F97QJUfFO1q0Tbi4cum1GjEZJzS1Jc4NxvPmJSWllnu6kucYLTNG9ij2rYr1Pt2E3c1FqEOXVH0yFdUSEL4XVMz1TM1GW4hsQpCHMtYiPI8yzLPIx2PYNejiN61RTRROMdevPGevvXXOHWrtdVdcZz09XTp7musPAa86edLxB8/JC7ubrh1mZBOSXFCJ9epIbSeXIyZER57eDIYbRsMsQcRMNaPTItpQaU3T6bVjjyzlJJc1yS2tttCk5Zoz19ZetypIbdK1s9m0u+OG20NIJtttKEFuJJZEQ2qON36Y5xE1Z5T4RiYxjw58mtVwazVPKZiO+PGeXPPjya/3dhPeMd246ZblqUuoRLroMWjpeceQ0mlqQhTazJBl1SOq4QiTt1hQi4M3VBxRViLWKZS36YplykSoTjhGfEijkg5+e43lahpUnLPUURZ7BsV3CHVSCUkyUkjIyyMj5SFUcXvxE0xEc4xM88zHKPHwhOrg9mqYnM8pzEcsRPuam2rbVWXg5d0uStVSk1/Us623ODURuQGlmxHcyMsyIzU66Z8xZiXMb8M6/ftn0qDbUtqPV6fJSjhlqy/qzzK48kiPn4J1Si7qEiUkR4zbaWm2G0pb9AkkkRJ7xcgq79hEMXOJ11XabtMRExMzHuiMeWITt8NoptzarnMTER7pmc/FrraOAl2W8qSh9UV1iHcMFNJRwpfaaJGdcdQg/7RKfcLLmIh7bYwcuNqQtVboFPSUSjVelxVcMhZLVJkm4hZFl1OsgyI+bIT8ZHyDnYMV8W1Fe6asZn6Y/+0aOEWKcRGeX1yiSZY95NYH0GzWqfS6lUqbCgMVGnzclsTUNISl5kln6EzyzSvkMiGEwcKL9Yh3E5RbPp9Mo80oCUWvPnccZlpaWs5GSj2MmpKkEnLcbZHyjY/MyPPLMc5ZcoWeJ3bFM00xHOcz19U9M47uvVZd4ZauzE1TPKMd30a1M4S36xErE23bSbo8JU6hzIFvvVbhkqchzCeecJZ5pb1kElJJLsc+UTFEYuW97SrNEvW3UUM6gw9BJtqYmRrNONGk15pLYfVHs7gzLcBkWeYhf19epxNVMZieU8893jPPp382bPD6LGdtU4mMTHLE/Dl7EL2tTsco9KtuxZlKp1Lj0VxlqoVlmUl0psRjIiS21lmhTpJLWz9DmeQi6Po3Yirth62pMJapNNoNXp0aW7VSUxLfkoNtBoaJJGhKiPWVrmeRkQ245T2bSHJGRnlnuF1ri12zu9HERnrjPXnz6+ufUpu8ItXtvpKpnHKOcdOXLp6kH3hhRcsu4KgVv0Onop06k0COh1DiGuBdg1RUh1GoRblNOZkZcqMuYWG58B7xrNvnSYbUOOs3LpdM+FIiXx2otyYyFZb0rbb1F8xHkNj/eAthiujid63MTTjlOfbjHP2J18KsV569MezOfm11uWycVrgmR65EsenUdtNSYU/DgTmm5rjLUN1tLnGDSaE5OO6pERZ6hGMZjYBYlybHg2s9SocaSdBuOjPSeOpXwapUxuTHXnlmpKiQps+UtYz3GNrwLaeZ7iF1HGb1NMUxTEYmJjr3ZiO/196irgtmqqapqmc9enjHqRBgxh/X7ar1fuav0yTBeqUWFCZbk1JMt1SWOEMzM0JSkkkbmSeXIjz5Bk9hWnV6FYsqHWEtFW6w9NqE/UXrJKTJcWvUJXKSCUhsj5kEM5y29wBp39Zcv1zXVjnj4Ryb1nR27NEUU55Z+KAoGj1Co+BL1t0ygxWLwl2r50yHSlLNC5KmUpWWZmacjWW8iHiujA27Z9NuCXCjs8ekXy1cbKGZKWnZUNDLSOD4UyMkKIyWpJKIyI0lzjYrYGRcoup4nfpq3TOZznnmfDl5clNXCtPVTFOMRiI5erv8ANq89o73lUaLCWhlESTU7ikLrbEibw7iqNKS0iS2pwiIjcUUdpRkksszPlzHSn4H4pW5RITLSUz5DNbXwvFZbbEkqXHhnFgpbeWRkkyIiUsss/tihtIODPIt+0XxxrUxynEx4Y+Hj8fBRPA9N1iZifHLU6maPuJ3Q3T6ZKpsJl+FTH4J5zSWS1qrTMwjI8t3BIXv5S7o2BrNtVSsYh23WHm2/Oigx5ckur6pU5xKWmz1eZLS5G3nWQzDLP/UN+RjW1HEbuoq3VRHf09fVs6fhtrTximZ7uvq6IaxasevXBdaJrmH1NumknAJqMopRQ5sGUSlayid3qbUlSdnIaO6MGkYU41Um0KnbsaFDr0y47TYoMiU/UNQ4bjbspREZqLNwialEglbzNsjPeNn9+8N2Ynb4nct0U24piYjHXPd07/l171d3hVu5cm5umJnPTHf17kIR8GagdVizplIgLMr1dr761qSpSo/FFtNntLaZK1Op5MsxjFOwmxItB2oSYVp0uuee0Gp05LD0tCEwjcqMl9pe0sjQtt9OsRbSNsiGy23kAyzLYMU8UvRGJiJjwnPr8J9ZPCbOc0zMT48vV6vUie57CueDhTatsW+y3VqpbEmivKS6+TRSShutKX1St2ZNnlmLVW6ZijV7mo19SsOoT71OhzqYumLqbatVL/BKTIQsy1cyNs0GW/VUYmsz5Bzv2EIWtbVbj8sTPPnOc8+scpW3OH0XP90xGI5Rju72lF4W3WMM7cuCypVPp1ZqlftuKwSXFmS4jhyJCjbjkaT4QiN/JJJMjI0JM9hiUY2F9/2zXo90RLap1dNC6mzxB6UlBIRJTH1HyNRGWZGypKi36qhPsiBElOtvPxWXHGTzQtTZKUg+cjPcPTyGN65xu5coiIpjM5znPPMRHs5R3NK3wWimqZmqccsYxyxOfas1oUyTRrWpVLmsRmH4sNplxqKWTLaySRGlBH+CR7C7gvfL3A2bhyZZji1VTVM1T1l2qaYppimO5yAACYAAAAAAAAAAAAAAAAAAAAAAAAAAAAAAAAAAAAAAACxVTrgrwE/WKZbhUqnXBXgJ+sUy3C2OiuerkAAGAAABxG9PseGMhGPRvT7HhjIRCpOnoAACKQAAAAAAAAAAAAAAAAAAAAAAAAAAAAAAAAAAAAAAAAAAAAAAAAAAAAA4HIAAAAAAAAALfWK5RrfhrqNeq0OnRWyzU9KfS0gv/MoyIVKhPg0mDIqdUmNRYkVtTz77yyShtCSzNSjPYREQ+TWK+jji/jTjzYVZavi9rpwzvC4ziJdrS1FrxI5E867waMkpZcSS0tqWRGernykA+tbTrb7aXmVpW2siUlSTzJRHuMjFYeaJFZgxWYcdBIaYbS2hJbiSRZEQ9IAAAAAAAAAAAAAAAAAA4HIAAAAAAAAAAALHTbttOuTJFOpFzUubLivLYfjsS21utOIUaVpUgjzIyMjIyMuQXwfL/SK0GsQK3ptSLjwteqMCgXVSnbrnohTXISXZLDrTcqMTyNjbjpuIWkz5XFciTG/eClwWrPsmFbVuSak3ItxlFPmwKw8a6lDcQWWpINW1R8y9yi2kYCRQAAAAAAAAAAAAAAAAAAAAAAAAAAAAAAAAAAAAAAAAAAAAAAAAAAAAAAAAAAAAAAAAABYqp1wV4CfrFMtwqVTrgrwE/WKZbhbHRXPVyAADAAAA4jen2PDGQjHo3p9jwxkIhUnT0AABFIAAAAAAAAAAAAAAAAAAAAAAAAAAAAAAAAAAAAAAAAAAAAAAAAAAAAAAAAAAAAHiqE+DSYMip1OY1FiRW1PPvvLJKG0JLM1KM9hERDmoVCDSYMip1OWzFiRW1PPvvLJKG0JLM1KM9hERCDYsWq6TVWbqVTZkwcK4DxORIiyNt25HUnsedLeUUjLNKD9HvPZkQBFi1XSZqrdTqbMiDhVBeJyHDcI23bkdQex50t5RSMs0oP0e89mRCdo0diIy3GjNIaaaSSEIQnJKUlsIiLkIcxozERhuNGZQ000kkIQgskpSW4iLkIVwAAAAAAAAAAAAAAAAAAAAAAAAAAAAAAAAAAEc4gYUM3HVo99WlUzt69Ka2bcWptJzRIb38XlN7nmjyLYe1O9JkJGABHGHeKx3HVZNj3jR1W5edPTrSKc4rNqW2X/WIjh/dWj+EncZbMxI4xDEDDuhYiUtESpm/Dnw18NTapEVwcuA+W5xpZbS7pbjLYZDEbWxIuGyqpDw+xrejtVGQomKRcLaODhVjkJKuRiRzoPYr8HmAS6AAAAAAAAAAAAAAAAAAAAAAAAAAAAAAAAAAAAAAAAAAAAAAAAAAAAAAAAAAAAAAAsVU64K8BP1imW4VKp1wV4CfrFMtwtjornq5AABgAAAcRvT7HhjIRj0b0+x4YyEQqTp6AAAikAAAAAAAAAAAAAAAAAAAAAAAAAAAAAAAAAAAAAAAAAAAAAAAAAAAAAAAAAPHUKhBpMGRU6nLZixIrann33lklDaElmalGewiIgqFQg0mDIqdTlsxYkVtTz77yyShtCSzNSjPYREQg2NHquk1VW6jUmZMHCqE8S4kRZG27cjqT2OulvKKRlmlB+j3nsyIAjRqrpNVVupVJmTBwqgvEuJEWRtu3I6k9jzpbyikZZpQfo957MiE7xozERhuNGZQ000kkIQgskpSW4iLkII0diGw3FjNIaaaSSEIQWSUpLYREXIQrgAAAAAAAAAAAAAAAAAAAAAAAAAAAAAAAAAAAAAAAAAsd0Wnb160KTbV00lio0+UWTjLycyzLaSiPelRHtJRZGR7SF8ABCTFx3XgVUGaLebsqu2A4fBwriVm5JpG3JLM3Latos8ie5Mslc4mSNJjzI7cqI+2+w8kltuNqJSFpMsyMjLYZHzhJjR5kdyLKYbeZeSbbjbiSUlaTLIyMj2GRlyCG3rZuTASRKrtjxptesV1ZvzrbQZuSaVntU7Bz2qb5VMd808wCbQFitO7bfvmgRLntSqs1GmzEazbrR+NKiPalRbjSeRke8X0AAAAAAAAAAAAAAAAAAAAAAAAAAAAAAAAAAAAAAAAAAAAAAAAAAAAAAAAAFiqnXBXgJ+sUy3CpVOuCvAT9YpluFsdFc9XIAAMAAADiN6fY8MZCMejen2PDGQiFSdPQAAEUgAAAAAAAAAAAAAAAAAAAAAAAAAAAAAAAAAAAAQ/jzjFVcLnbcplJTRYj1xPvteetdW6inRODSk9VxTZZkpet1OeRdSYwS49JLEOj0W0SciWDTajcEuoR3ahUKss6StEbU1XWXWzzMnCXmRKPMshJuL9kX9dD1Jn2PVKE4mHwrU6i3BGN+nT215ZKWSSNRLQZbDLsjERI0Ur5psChTqTKsF+pQKrU6nJpc+muro7fG9T7Ww1tNJI1NhmXKYC8V3SAxDpVLs9hmp4VvzrnkVBC6kdVeKktIjkjJKXM8zWevkZGfIYrWfpL3LU6rS4NfoVBdgruJy2p9Xo8xb8NUg2SdYWwo96DMnEK1j2KIiF4hYE1q4KhaE3EelWIuNbLlRUumUmlqTCdKQTZIUltwsiUWorM8vwhTl6N5t2tiHa1vTqZR41y1JusW+UWOaEUqW2ltSVmgtmXDINRkneSjLlAWC+9J+6qTKldDdOtSNTVXa5bEKqV2Y6zGUbLClPuLNO7J1C0Jy35ZjvXNIPEWjWpb9RRUsLZs24K6qlonsVR/zrjtpZU4anHDPPXzTllnltIeu4NGu40YZ2DaNsVS3KhVLQn+eExy4Ya34tSeU0tLq1oTt1lKWaszHvZwHuW52LZi4iUvD9ES3a4uqHT6JS1oiSG1MKb1VNuFlr6yzPPLLIucBfcDcYK1iRNueh19u3nptsy2o6p9vS1SYEknGUulqKVt1kkvJRZ7yF2s7Fl+7MU7qw5ctKpUpFsx47yZU1BI47wqllrtERnm31GxXLtHGHmEkLDe9bwrdAZp0Gj3O9Fks0+FH4Eo7rbCGlnql1PVGjW2FynmLlTLElwMVq3iGue0uPVqVDp6IxJPXQplThmoz3GR8IXiAZuAAAC2XJXqfa1vVO5qs8TUGkQ3p0lZ/gtNINaj8STFzHjmwodShvU+oRWpMaS2pp5l1BKQ4hRZGlRHsMjLkAfKHRbx1xgx0xMqtqX3YF6XLYFfup6uL4g0ri3251JIQ+tzLOK3ka9RJ5HylkREPrHHjsxGERozSGmmkkhDaE5JSki2ERFuFCm0qmUWIiBR6bFgxmyyQzGZS2hJdxKSIiHuAAAAAAAAAAAAAAAAAAAAAAAAAAAAAAAAAAAAAAAAAAAAAAAAAAAaZ6ZWJUjRfZcvHCOjV3ohuNpw5lKg0t1+lzfwTfcUgsmJCNYlEovRZZK5xcvMz8fpGNWjrCotwzXXrpsVwqLUykKM3ltERnHdXnt2ozRme0zaMz3jbR1pqQ2pl9pLjayyUlaSMjLmMjFso9pWtb8mXNoFu02mvz9TjTkSMhlT+prauvqkWtlrK385gLyAAACAMW8fbotPEo8ObbVaFLdYpLNVTJumU7GaqRuOOI4vGWnqNdPBZq1j2cIjZvE/iD8WcKsS7ruabNt6VZtboNWp7cVyk3ZAW+inPoNZHIjGgsyNaV5KSfKhJlygMVunSSv6HeMO1oLWHtsLXa9Nr0lF11VxtwnpS3kqZbNo9VZI4Haot+sQ9FzY/4jQLxRaNLqOFsI41sU+uyZlYqzzLMtySt5JpimRlrNkTJGRnt6sha4+i9f8AalUpUq1ZVgXAxCtSm2670WUt2S4lyK4+s3GtUjJKVcPllzJLmGf0nASFU7ymXniPRLTqzsy2qdREQ2qaS2IjkdyQpamScI9VtRPIIiLIy1O8At2GWkbNvKo0xNzW7Ho1Prdsya5T5CXjWTrkSSpmUklHsNBpNp1sy2qQoz5BhD+lXiFOetVqGxh7biLmocu4mHblqL7CVRClpbikjVyzWtlxtxRcmZkQvdx6KtdrmDdr4bQb0apNTtmpSiZqUVtZF50yXXkOxUke0j4q9wZchKQk9xELviVgTdtWxAol4WFCsB+DSbeXQE065qa5JbaRwrS0La1CMk5E1q94wFruXH7EimXDblrQKhhZHkVO3nq5KqNSqrzUF00yENpRGVmRrI0ua2Z8xjPcNcYahfWDb2JZ27xmbFOeycKmucK3NdivONGcdZ+iQ4beaTPkMWik4DlWbwo95YnUWz6i5T7bfoh0+JTdaI04uS24lbKXS6hJIbJOWWeZnyC4WlhPdNhYO17Diz6/T6dUH5FWdoctDKuBgplPuOskaN/2s3Msk7MiLIB2wxxXum571qmH9621T6ZWIFLj1c/O6bxltlt1Rp4B7lQ6Rl3lFmZbhLIhjR+wsvnCyJLp1zM2etqQ2lbs2kpkqmzZRH1Tsl1/M159UezcZ7CIhM4AAAAAAAAAAAAAAAAAAAAAAAAAAAAAAAAAAAAALFVOuCvAT9YpluFSqdcFeAn6xTLcLY6K56uQAAYAAAHEb0+x4YwjSGu28bWtu3WrHrbNIqFduinUZcx2GiVwLLxr1zJtZkRn1JZZjN43p9jwxHWk51qw/wDdAo3yuCFSdPRcel5jr7Yn+UYflB0vMdfbE/yjD8oSqAikirpeY6+2J/lGH5QdLzHX2xP8ow/KEqgAirpeY6+2J/lGH5QdLzHX2xP8ow/KEqgAirpeY6+2J/lGH5QdLzHX2xP8ow/KEqgAirpeY6+2J/lGH5QdLzHX2xP8ow/KEqgAirpeY6+2J/lGH5QdLzHX2xP8ow/KEqgAirpeY6+2J/lGH5QdLzHX2xP8ow/KEqgAirpeY6+2J/lGH5QdLzHX2xP8ow/KEqgAirpeY6+2J/lGH5QdLzHX2xP8ow/KEqgAirpeY6+2J/lGH5QdLzHX2xP8ow/KEqgAirpeY6+2J/lGH5QdL3HX2xP8ow/KEqjg9wDVmp3RjvCrE+lRcWH5SafKciqd84Kc3rqQeRmSTVmRDzneuORssm3ivJU+6462po7fpxEnUyzPW1sjzzFtvaPRnL4uJU+JVHnfPSR1UV1RIy1zyLIi3i1rjUA4jJKp9d4DXXwZcYP0X4XdHWt6a3VTnH9+9ozer8f79zJ+jDSC9lB79iU3yh0cvXHiPwa5WKchtpTrbSlpoVOUaddZJI8iVt2mQxYotDJElLMCrJJSEEnhVLUrW1uq1T5NgIjWy240rzvrqVcIgkGp9WWvrFq7y58hL7rbjGY+H9T09Xj/AH7mUsXtj3JaJ+PijIU2rak1UKmpMy72tsHfou0gfZPe/YlN8oYlxW2F5qTTq8eZntS+rL+BDzMFSlsR5NVpFYZbW00w2tDqkpcdQkkuHn2RqI9m8S+6UVZmI6er+rHp6oxEz/fuZr0cY5cAozxYklITJ4vwPQ/Tsj6gl62trZbjHPRfpBeyg9+xKb5Qxgo1v8SUkoFd4vw+Rlxg/uuqXczz1chSTFoSXDOPAq6SNpwj4da1lrGXUmXdzGPu1uZiIpx5x/Vn09Ud/wDfuZRJvbHyJHclP4oSCbaSa1mmh00zyLfs1to7IvbHl81qiYpyHGkrUglqoNOQZ5HlnkatgxJUW10MmqRTq6REnqzN9Wr3eTcKrkW21OLNdOrxq1j1jJ9W/l3EMfdbeOnw/qemqz1/v3JfselY43tQSraMenIR8YejqZXa0Fw0qbWaD6pKsjLMhkfS8x0L/wDmI3f+EYflCvo9paRh00lglk2U6ZqJcPNaU8OvIlHziTi2kOVfpii5VTHSJbduZqoiZRX0vMdfbE/yjD8oOl5jr7Yn+UYflCVQEE0VdLzHX2xP8ow/KDpeY6+2J/lGH5QlUAEVdLzHX2xP8ow/KDpeY6+2J/lGH5QlUAEVdLzHX2xP8ow/KDpeY6+2J/lGH5QlUAEVdLzHX2xP8ow/KDpeY6+2J/lGH5QlUAEVdLzHX2xP8ow/KDpeY6+2J/lGH5QlUAEVdLzHX2xP8ow/KDpeY6+2J/lGH5QlUAEVdLzHX2xP8ow/KDpeY6+2J/lGH5QlUAEA4gt45YZ0am3Y9ja1WWE3JQKbIgu2zFZS+xNq0WG6XCJVrJMkSFGRlykQn4RVpMepjE/XKzvpHThKhbgECWKjG/EuLXrjj40tUOLHuq4aPFgNW1GfJqPBqsmI1m4tWsozQwkzM+UzGT9LzHX2xP8AKMPyhxo3feRcHugXp9IqgJWARV0vMdfbE/yjD8oOl5jr7Yn+UYflCVQARV0vMdfbE/yjD8oOl5jr7Yn+UYflCVQARV0vMdfbE/yjD8oOl5jr7Yn+UYflCVQARV0vMdfbE/yjD8oOl5jr7Yn+UYflCVQARV0vMdfbE/yjD8oOl5jr7Yn+UYflCVQARV0vMdfbE/yjD8oOl5jr7Yn+UYflCVQARV0vMdfbE/yjD8oOl5jr7Yn+UYflCVQARV0vMdfbE/yjD8oOl5jr7Yn+UYflCVQARV0vMdfbE/yjD8oOl7jr7Yn+UYflCVRwrcYDWDp33RSnZVIreJ9PTOp0uRCeNVKbSazadU2SzSR5EaiSSsi2FmPMxjnd7DqJtQxPpZQ5xOmwXnW19r4NZJIsyPM9Yj1tvNsFknM3SqtVtVOtOiTI51qpaj8hZE4v+tu557OQ8y7xEKOtczjcbi1oW648+TxrbPqeD4NZIPbltzMx26bNvE8o+HL4OfNdfLn8J+rL0471dbS3m8TaeptvIlrKloNKc92Z8g8kzHi5JSWodIxPppypL7TCVedjR8GS1klS8jPI9UjM9vMMb4heK2JOtaNIbcdVHUltt9JNHwazUesWW3PMcKVdTD8dudZtuMNyH2mNclEo0mtZII8iLMyzUQRYt5iYxPq5fRmbleOfL2T9WTw9IKsvRGHZOJlMaeW2lTjfnYjqFGW0t/IY9DuO1XYXwb+JtPbVkStVdLQR5GWZHt5DIyMYYyV5T4Tclmxrd4OQ0S0HwhEeqosy5O6OvEb7ptFiXDKtKkToMtLcY5jp9SwthCY+ovYer9x37jzEo09qc9M+GY+iM3Kox9J+rKEY5Xel8qg7ifS/O519cVCfOxrqTQhKtfPPPaajTlll1I9zeO9YdJRtYm09ZISalatKQeqRcp8xDDyXcymW+DtC3VSVyXI5s82o2hetrZZHmSyA6feL3Dm7aNHYNyK4wko76SIzVl6LZtLYMTYt5jdER7vozFdfdmfZP1ZLUdIGvtwnl07EumPSSSfBI87W+qVyco7Rce66yzwNQxPphSWlKbc/+GN7TSoyz2Hltyz98YrLcu6BGXMl2PbqGWi1lqJZGZF3sto7oTd7+uuNZNuONE4tCVmsk62qo055ZbNwz6C1t6R58vd0Y3156z7pSzaFNxov+3o12wMc26bGqCnTZjN2xFeShCHVIIyWpWZ5kjW284vnS9x09sT/ACjD8oXXA0nEYYUcn2kNOa8slto9ChXGnc0l3CPYQz7dvHFvRFNcxHTMt63OaImUW9LzHX2xP8ow/KDpeY6+2J/lGH5QlUBBNFXS8x19sT/KMPyg6XmOvtif5Rh+UJVABFXS8x19sT/KMPyg6XmOvtif5Rh+UJVABFXS8x19sT/KMPyg6XmOvtif5Rh+UJVABFXS8x19sT/KMPyg6XmOvtif5Rh+UJVABFXS8x19sT/KMPyg6XmOvtif5Rh+UJVABFXS8x19sT/KMPyg6XmOvtif5Rh+UJVABFXS8x19sT/KMPyg6XmOvtif5Rh+UJVABFXS8x19sT/KMPyg6XmOvtif5Rh+UJVABFXS8x19sT/KMPyh5sIK7iCvEHECwr5u9m4024mlOwpaaa3CWRSW3lLSpLZmR5G2WRiXhEGG/rhMX/ze3fmZICQqp1wV4CfrFMtwqVTrgrwE/WKZbhbHRXPVyAADAAAA4jen2PDEdaTnWrD/AN0CjfK4JFjen2PDEdaTnWrD/wB0CjfK4IVJ09EzAACKQAAAAAAAAAAAAAAAAAAAAAAAAAAAAAAOD3DkcHuAaj3fUEx70uJvosRTMqpJPgFZmfoz6rdy7xaznMJZaUV8Rkaq1qS6TaiUZqy1tuW3cLvdjVwLvO41U63KZPZ89ZOT0hZkvPXPMu8QtpwrqKLHSm1qcp1t15am1O/aslmWWXLsyHdtxiiMzEf35OfOc9PmpJqzptyVN3ubxMoQolpPIiM1ZHnmWZ5Ft2D2W/R6je9xRaFTb6OStaFv6iUmaCU2aVINZGXodYiHjcXX47chcy1aEyphtLhJNSj1iNWW/kE4YE2acOkFetVp8eNUaq2RNNNF1LLHIRcuZ7zGL1z0NG/Eerv5lNM3KtufmhpijXizVlWhGqb/AJ+MuG153tpPqf7etuJGW3W7o2DtXDiFSbD6Gbndbnre4SRLeUW51ZmpSknyZGew+4Mmatmis3C/dLcQiqUlhEdx7lNCc8i/j8guT0duSw5GdLNDqDQoucjLIxzr2r9JiKeXfPm2aLO3q0vdnzmaNKqUWqSZbUSRwjrzTJqNpWRISSl7i2EWwehmsOuGXB3qbx8Ct00oPI0mlOZEeZDZun4YW3T7KfsUmTXCkks3VmREtS1K1tfPnI8vENfbutu4LHr6qBKoVIkRTZW9EnOJUnjCElnkZFsJRco37Oopv1TGMzHl0a1VuqiMzPz6rG9UGZcZbEnEFo0OoNK0GStxltLcO6agywakNX8wyRqNRoSlRERnv2ZDiRCu6ZEcZRZ9FbJ5BpJxDh6ySMt5d0VShXa0twm7RpLyVLUpKnnT18jPceQuxGMZ9mY+iOefT5p+0fnCdw8Q4UrjGtUJp8Nt+2fb19Vt594kwt/vCMtH8nyw8QmWw2y8VQmktts80IPh15pLuEJNLf7w4mp/i1ebetfkhyAAKlgAAAAAAAAAAAAAAAAAAAAAAAirSY9TGJ+uVnfSOnCVC3CK9Jj1MYn65Wd9I6cJULcAirRu+8i4PdAvT6RVASsIp0bvvIuD3QL0+kVQErAAAAAAAAAAAAAAAAAAAAAAAAAAAADhW4xyOAGkNfTZ3RNX/PRNx8a8+qjwnFOE4L005lq6uzdl7+YpySsriMEnyuzi5E7xXInN2sXCbtvoss8+UZFOXcxVqtlTLmpcWN581LUafbQa0/1t3PPM+fM+8ZClwVyttxeLXNRmnmCeJbh6quE4RZLPYZ5FkZcg9BExEc5+M/Rz/Z8P6saSVncUmcCVf4LXjZcLw3D5a58Jqe9lmMqwuse1b7uh+nUt2vsJiwlyFSJK1pVHdJaOCUnW2GesR7OUiMeaRUrtiw5bzt0U9a4/A5KajIUjJajLaee/YNjMJLVety1Y8+q6rlXqraJU53VyMjNOaWyLkJJHllzmYq1F6bVvOefdzz7y3RFdWMfD+rXekYOPVm5JdgwfPRip0oyTNlOS3OLMtH6BxPZaxZZJ7/MNmWbaoFo4fuW6bXC0uBBcS4Tpa5uFkalqVzmZmZ++MibiRmX3ZTLDaHX8uFcSkiUvIsizPlyHeQwxLYcjSG0uNOpNC0K3KI9hkY5t3V13qoiekc/a2aLMUZx1aRLt53pbx7rYp1bdpTL6NdxyUtGb6zJCjQRdUothFnu2EQoITZ+UriSbgy4m76a4bPX2aup/a3jc5+06BIttVonTGkUo2uBTHQnJKE7yy5jI9ufONcL3oV7WJXpFJerrZ05UZyRTZDkVKjcSgtqFqP8ACLl5y2jpafVxemaY65nrPd8ejWuWptx6vJH+WHhbVFdmWf4RO5e/nsFR9NhcO7wpXbwnCL4TInctfM9bds35i/S2Lsnx1xJd3UVbLpaq0pQhJmXfz2CogruZ10RrtorbSnFrSg0IVq6yjVlmZ7d4u3R48/Ofojj1fBsHgNwXSpofF+E4H+tanCZ6+rxl3LWz5ct/dEhiP8DVL6WNJ4V1LjmvL11pyyUrjTuZllyGeeQkD8IcK/8AxJ85btr+HT5Q5AAFa0AAAAAAAAAAAAAAAAAAAAAAAAAAARBhv64TF/8AN7d+ZkiXxEGG/rhMX/ze3fmZICQqp1wV4CfrFMtwqVTrgrwE/WKZbhbHRXPVyAADAAAA4jen2PDEdaTnWrD/AN0CjfK4JFjen2PDEdaTnWrD/wB0CjfK4IVJ09EzAACKQAAAAAAAAAAAAAAAAAAAAAAAAAAAAAAOD3DkAGmd+RLZcvy5V1RNdU+dUkZnDdcJvLXPLYnZnzizKh2qcKMhbdd1EvPGrUcd4bVzLU1j5t4y27qg5HvW42kXYxTSKrST4BaTM/Rnt98Ww6tLKMw6d6tJJxx1BuGRauScsjIt+3Md+1M7Yxnp4+ruc2qIzz/ZZig2qcCe3DRcqSWySXdd1Zlln1OZHty1uYbUYUXtSbttSCURZMS4jKWpERZarjZpLL0J7cj5xrbxzhidU5fEJ01JSk1m2Z6pErMv4ig7UZDUuPUIl+s8cS802hcfNDhEpZJPb3CMz27NgrvWov0xRmc+vM/szRX6Od0Y+H1beXNcdMtSjSK5WHTRHjpzMiLNSz5EpLlM+YRzg1iZXb6uCupqyOAjm2xMhRlFkbbLhHq5HykZER98zEO1S9riueDBjV7EWGpEJZuIQpjJevllmsy9EZfWY8kGoO0OqQ6xSb8iQpcWO0yhRIVk42lBJIlEfoiMiIU0aOii3VTV+ae/E8vgtqvVVVRMdPOG5OzlEPaRFUt92gMUSQtb1RU8TyG4yvtzbJJPhFdwjSeXdEfVnF29axCcSm+oMFnjHAcLEYJJ6vBko1Znt3mZbhiDBscM48u94cl1xK9dbiFLWrWLIzMz2jGn0c2qorqn3ZLl7dE0xHyWaVBtHirvEm7nJ/UPgjU86adbLZn3BU4laSnHVTG7j1zcUZcA66SNXPZkXeF3k1qVFiOOMX5FdU0gzQ2lB5qMi2EKiaxLUpZOX1HYNKjTqLTmeRHv2DezOO/3zn5NfEZ/pH1T5o6txm8M2UQ+G4Ap83g+GMzc1eHXlrGe3PnEnnvEbaPzhu4docOSUg1VCaZvJ3Ofb19UXfEknvHD1H8WrzdC1+SPJ3AAFKwAAAAAAAAAAAAAAAAAAAAAAARVpMepjE/XKzvpHThKhbhFekx6mMT9crO+kdOEqFuARVo3feRcHugXp9IqgJWEU6N33kXB7oF6fSKoCVgAAAAAAAAAAAAAAAAAAAAAAAAAAABwrcY5HCtxgNM6wxTnLhrq5VmyZ7h1mo5yG1Fqr/rTuXiLIveHnXFp5x4SXLLkvE0mQS2iQSTSanCNHVfhZJzIVqtUYLNfrrTmIjlMUmtVHOIRZ8H/AFt3ucu/3xQXVo5R4LjuI7zCX0yDN41kol6jhJTsy2ZkZmPQU7ts4/dzeXLP7OkiNTHKdLZj2XLjqyQky4YiPWUZkg9Xl2kNpcO78p160VhxZlHqTLaUzIjnUuNuEW0yLlSZ7SMhq6mbSnGH1niXwpKU0a3jazUg0KM0ZHls2mYopnU86pT5UbEt6RKKWw0Rtr4NZIU4klHrERbCIzPbs2Cq7Yi9EUTnzxM/PuSouTbnd9P2ba35eUCxaC7V5jan3PQRozfo33eRJfKZ8hEZjBMB7srtxybkauSXryzdizkM6+sltD7Wukkf2SQbZZf6iEJ93quiHS3bgxXUp+GyrVI2y1kqcSWvrHltMsss+6fOO0CswbfrbNap2JvEZjLLLRElrVSptDSG0kpJltI0IR394pp0lNNqqic7p78T3T5LJvTVXFUdPOPq3N75CCtIK5KBUo8K248dNTlxZBzJSWVl9oZSkyURq51Z5Zd0xH1w4n1+44CfPDE8osR6U9GNcNCWkqQltCiMyLbtNRl7wxqH5wNNPNsYipdSbK0LNTWsaUn6JWeWeewtphp9H6GqK65nPqifmXL2+NtPzJkGA9Gcbh2HLYeUWSHDMjJJ8+Qq8UpZLcN6wpbyjdcVwhGSSURqMy2cmzIUZlbjMRnHYmKDsh5JdQ0REWufNuFbz3hmt0nsUXY60uuI4M8j1SJRkW3LbsIhufi2+r25Uf7v/psvgaRFhdRiJvgyI5RE32BcZdyT3y3e8JA/CEf4EqSvCyjLQ+b6VKlGTp/9J/Wneq9/f74kD8IcK/8AxJ85b9v8keUOQABWsAAAAAAAAAAAAAAAAAAAAAAAAAAAEQYb+uExf/N7d+ZkiXxEGG/rhMX/AM3t35mSAkKqdcFeAn6xTLcKlU64K8BP1imW4Wx0Vz1cgAAwAAAOI3p9jwxHWk51qw/90CjfK4JFjen2PDEdaTnWrD/3QKN8rghUnT0TMAAIpAAAAAAAAAAAAAAAAAAAAAAAAA4zIMyAcgOMyHIAAAAhOt4J3DPr9VqsaRQHWp8x2UjjTDhuJJas9UzLZsHk6Q90dlavxd4TuAu+83I5Qq9DSgYsA7gW3K4SbQGlONoS2llhzUM0r1j1s+5s2DsWBN089qfF3hJ1935SbApkep1eNNkIlSkQ2WobBvOuOrJRkRJLuJMeK3sTKZXXkMnRazSzXwuR1GHxcskEk1KMzPd1Rbe4YvivU107ojl4+TXmuxRc9HNXPwR90iLo7K1fi7w6pwCuBngSZqFBkakSOwrjDDmxTbZJM05ch5ZiYeiW3kJaUdbgET6zaaM5KMlrI8jSnbtPPkIekqrTlLSkp0c1KWptJE6nNS070lt3lykI+nv08sdfUsxameqGOkRdHZWp8XeHCcA7hddNT0632E8C6guLsOZmpRZFnnyEJhVcVvk+xHVXIJOyNrLfGEazvglnmfvDH6JinaVcrybbp70g5ripiSSpk0pzjO8G7t8I9nOM03NTiaqY6epGarETFMzHP1o9RgNdCEknXtU8iyzOO9tHbpEXR2VqfF3hOwCn71cXehpYhhraMyyrZTRZ70Z17jL8gzjJUltJOOKWSSJW3ZnkMtLaeY5PINhEKq6prmap6yspiKYxDkAAYZAAcAOQAAAAAAAAAAAAAAAAAAARVpMepjE/XKzvpHThKhbhFekx6mMT9crO+kdOEqFuARVo3feRcHugXp9IqgJWEU6N33kXB7oF6fSKoCVgAAAAAAAAAAAAAAAAAAAAAAAAAAAAAAEGSMDblXPqEhmRbbzcufKloVIjOG5quvLcIlGXKWvl7w69Iy6v/CfxV3/QToORd95udVXoqUDngLca2ZJqm0Btx1cdSG247hNHwazUesW/bmO5YG3Sf5J/FXf9BI194h0ewGqc5VIdRluVWXxKIxBjG8647wa15apGWzVQo8x0t7EWlVw0pXTKpSjU089/8TjcXyQ0bZKM8z2F9tTl3lcwv36mumK8cu6VHpLFNyaN3PwR0vAu6VoUjWtROsRlmUV3Mv4ArAe42Xs48y35CDYita0qO4ayU1GaZPdyGbZmXfEw9EdAPi6DrcHWlqNLBcYRm6ojyMk7eqMj2bOUV01amqUgkVCOo3DWSCJ1Jmo0ejItu3LI8+bIR9NfiMfsni1Pf8UMdI66Oe0/irv+g6KwEuJ/hzdnW+wa4rjKCjx3CI1Kyy1s+TYJiO46AqS1DTWYSpD6OEaZTIQa3EZZ6yU55mXdIWG18UrUu+rJotIekKkrjyZJE4yaS1GJJx3Nv+8LZzltGabupxNURyjrOEc2ImKd3OfWj/pGXVz2n8Vd/wBA6Rl1f+E/irv+gnTZ3ByKvvNfit9DSxjD22JFnWlCt+ZIYeejG8pa2Emlvq3luZJI9uRa+XvDJSPeY5yINmQoqmapmZ6ytiIpjEOQAAZAAAAAAAAAAAAAAAAAAAAAAAAAAAEQYb+uExf/ADe3fmZIl8RBhv64TF/83t35mSAkKqdcFeAn6xTLcKlU64K8BP1imW4Wx0Vz1cgAAwAAAOI3p9jwxHWk51qw/wDdAo3yuCRY3p9jwxHWk51qw/8AdAo3yuCFSdPRMwAAikAAAAAAAAAAAAAA4HIAOhbj2Do642whTjq0oQkszUo8iIu6Y5WrUbNZ/gkZjVy6qliRikpXB1+PCprjy0MwmiWnMiVkWuafRHsFtmxF2fxTiI71dyuaOkZlLlzY00anuuUy1Yq65UE9SZtHlHaP+05u94hH8+r33XZBzavd8yGo/Qx6crgmmy5t2aj7pjHp2EmJNtpiQUXZBQuRlwbLSFbM+fYK1WwuxSpUmNDdvOI5IlZaraCWZlnzjd9Fao5UV0x6+cz8lG6ur81M/D6rnwVx/l3cXxv/ANg4K4/y7uL43/7C2VTC7FKlzo1NXekRyRJyyQglmZZ84VHC7FKnVKPSTvOI7IkZZJQSz1c+cPR//kj+/Yln/jP9+1c+CuP8u7i+N/8AsPTCrN+W++U2kXbLnGXo41SVwrbhc2ZFmk+6Qsc7C7FKFVmKN0aRHZL2WxBLPVz5x5a5h9iVQpfEZF7RHHCSRq1CWeXcDbHfXTPskz/xlM1sY1UWpPN0u6IyqFUVHqkTx5sOn/Yc3e8YkZtxDqCcbWlaVFmRpPMjIahHYmIVZMqeq448rhTyJs21KzGT265iphC/DYqdWbkUx2SyyuG8lajJK1kjqDPdvzFdemtVRm3XGfDmRdrp/NTOPHk2bAdUK1kkrnLMdhotlGWN9oVK9aXb1KgNzNVuvRn5LkNzg3WWUoc1lkrkyMyLPujFMQ8L63AgsU+2HK1WE+c9ZbW5Llm84TzrbRNo1jy3mlWXeMTrkZ7gNJjcsa65YimKekZ5ebn3tBavTVVV1qxz8MNSr6wbuCHJjQqTbs/zufoLEOKzBhIk8XlmozdM1LUXAqNRkrhCzPZ3Au7CnFyn16bULYhypKKClusUfNz01OkoS1JbVkeR6vVL98baHvLZsHJbTHQo4/ft7fwxOPHvzj9vm06uB2as/imM46epp/deHF7UqosRabZ9SfVTFUlcd+HBQ8p5to21PGb6lZtmR65aiS28u8Z/hnZN2U3EmFXanQpMeER1xSnXSItXh5aVtZ7fwklmQ2By35lmG8Qvccu3rfo5pjpMZ84wza4LbtV74qnrE48pyDE8U72aw3w6uK/HY/DlRKe9MJnPLhFJT1Kc+6eQyzlyES6WfrcMQf0I/wDUObordN7U27dXSaoifbLr3JmmiZjwfKm4fNIdKWr1eTOhXhHprDjijajR4iSQ2nPYW3fkXKLb/SG6V3sh/wDpECIcJ8Ir0xsvFFjWDDZlVZ1hySlt10m06iDLWPM/CITsXmZ+leWzoXpf7SQPu13TcA0OLV+mimcdJiInHteZpr1Vz8VEzPvWb+kO0rfZF/8ASID+kP0rfZF/9IgX6J5mJpWSnDQq3qKxkWes9VEJL5B7P6LTSs/FltftZP8AoNab3ZeOUzb+DONb/wAvixYvNDtK0/8AtG/9Igb2eZ2aXF+6Qse47SxJ4vJqtvNsSGZ7Teob7ThrLVWktmsk0b+XMaA4z6DuOuA9mLv2/YVFbpTchuMpUWoJec4RZGaepIt3UmNhPMf/AFRL+/RcP5x0c3tDouEajg93U6GimduMVUxHKcx3x6l+ku36L9NFyZ590vqmAAPjr0QAAAAAAAAAAAAAAAAIq0mPUxifrlZ30jpwlQtwivSY9TGJ+uVnfSOnCVC3AIq0bvvIuD3QL0+kVQErCKdG77yLg90C9PpFUBKwAAAAAAAAAAAAAA42ZdwcZlzDk9wxq7L/ALXs1kl1qpIS8v7nGa6t9w+ZKC2mEUzVOKYzLEzEdWSeINghSTjBfs59T1Etynwoe5tNQcUbyu6ZI2J7wo9NbFLtC3vhOi70Ex1mPeh6T1SnH3y8Qe+XiEHdNXFP8X298J0Omnil+L7e+E6HoJ8Y95v9Upx2ZBsy2CF6ZjRc9Mf1rvt1h6ErLN+mKUpbPOakK2qLvCT7cuy37riFOoFUYltn6IkK6pB8yk7yPviuu1VTGeseMMxXEzjvXsAARTAAAEWYzWPPvao2RGi+eDcWHXFSJkiA9wTkdrij6SXr8haykp/8wwvFbC64UU+TSLZRWKuyq1KxDJ2RJN51Ul52IaG9Y8tpkheXeMbB5Ee3MMu4Q3LOvuWYpiOlPSPOcufd4favTVM9Zxz8sNUMRcHLgau2pU2gUGo+dkqnQItG874bbqIi0LWbv25aiOOeuolmoszVy7hRu7CvF6n3PWara0B+Qm35al0AtfJMpNT1UzTUWf8A0Z8Ivua421PVM+6BbT2Dfo4/foiI20ziMc4znpHP2R8ZaVXA7MzMxVMZnPJqLXsO7xol4R0UizaouPRaxSOAeiwEOcYp8dtlKnDkGrWI9iyNtJZHkZnvGf4M2Pddv32xU6zRX4sZNLq7JrcyyJx2rKebTv3qb6ou4J8yIzzIhzy7hTf4tcv2vRVUx0xnvWWOD0WLvpIqnrnHc46nlA9gxzEG+qDhnZlYvq55Bs0yixHJclZFmeqks8iLlM9xD5/VLzYGCma8VIwifXEJRk0p+aRLUnPYZkWwhjhvBNbxaJnSUbojrPKPm6N7U27ExFycZfSXWINYh80f6YZz2IP/AF3/ALB/TDOexB/67/2HT/8ARvGP5Xxj6tf/ABGx+r4PpdrF2QaxdkPmh/TDO+xD/wCu/wDYC82Gc5cID+Pf+wf+jeMfyvjDP+Jaf9Xwl9L924hwRlzCD9FnSltTSitOZX6BAfplQpLqGKhAeUSjaUsjNCkqL0ST1VeITjnkPO6jT3dHdqsX6dtVPWG5RXTcpiuicxLsAAKkwAAAAAAAAAAAAAAAAAAAARBhv64TF/8AN7d+ZkiXxEGG/rhMX/ze3fmZICQqp1wV4CfrFMtwqVTrgrwE/WKZbhbHRXPVyAADAAAA4jen2PDEdaTnWrD/AN0CjfK4JFjen2PDEdaTnWrD/wB0CjfK4IVJ09EzAACKQAAAAAAAAAAAAAAAAKTpa7ak86TIaoW7iRS7Bq7kKq0l6c5AfdLNhRGg1ax5GRja1/7i5l2B/INdMNqNDrJx40gmEoN5xTql6voSWee8benmmLdU1RmMx34U3IqmqNs46/s8idISku3Idfn2/NeJP3JrkRzcgR9IOk9ETlfqFvzXz/6JvkR/ASZVYtDr9zx6NEYgtQoP3RZJQRKy37eXmCdGodxXWzTo7EFmBA9GokISS8u7yie6x/Ln3/0Q23P1/BGcLSEpLVwPV+oW/NfcV9yTuJH8ApukJSY1ckV6db82Q+5nwZbiR/ASY7GolyXcmM3Hgs0+n7zJCEkvL5czBMehXLd2ZR4LNOp/9hCSXl8u0N1j+XPv/oztufr+CM6RpB0qDVpVbmUCbIkv56h7iRn7wsU/GOHUJjs2RTJhuPKNRmZf+wmmNHoVyXYuUuPBap9P9CWohJKy+XnGM3VOptVrDr0aLFbYQeo2SW0p2Fy7A3WP5c+/+htufr+DAaPjZDotQanx6TJUts9yi2GXiHur+Lp4oVSk0ZFNOEpU2PqG4rJBarqVHmZ94ZVbzNvFV2DrLLHFc+r6ksu5n3AxWbtAvO5VttR0qKdE4Q2UkSc+HR/ETt1WpqjbbmJz4ozFyInNXwT02Wq2kuYiIdxTb+4o8EvkFQc6W0AAAAAAAAAA4PeQiPSz9bhiD+hHvqEuHvIRHpZetxxB/Qj/ANQ2+G/6y1/3U/OFd7+HV5S+E9kYg3lhnXyumwril0SrIbWyUuKoicJCstZO0j2HkXiEllpqaVR/9uVx/wB6jyRCajLWPZyjrkfMP0dc4dpNViu9bpqnxmImfjDx9N65RypqmPamz7NXSr9nC5P71Hkh9mrpV+zhcn96jyRCmZ84Znziv/BuHfyKP/GPoz94u/qn3ykq/NJDHXE6gqtm/wDE2s1ylqdS+cWU4k0G4nPVVsItpZn4xt15j8X/AOYl+l/8rh/OOj59GR5j6CeY/eqJfn6Lh/OOji9qdNa0vBL1FmmKYxHKIiI6x4NrR11V6miapz/9PqoAAPgj1IAAAAAAAAAAAAAAAAIq0mPUxifrlZ30jpwlQtwivSY9TGJ+uVnfSOnCVC3AIq0bvvIuD3QL0+kVQErCKdG77yLg90C9PpFUBKwAAAAAAAAAAAKS3EtoUtZ5JSRmZ8xEKo808jXBkISWalNLIi5zyMZjqNdbzx2vq4mSZw9tyZEgPlmicbRKddQZ7FILPJJGW3n2jCm3L7osgpMzD6c5Nk7VSZWst5w++Z5+8QyvCW4bQp1PojdyVhiJxCG1wjTuZK4VKSLVMu4e/vDM28SrHrV4HVarcUVuFD9LJUZ9VkfU/wAczHT3zbzRTb5e3n5tOKYqxVNfP2Iwk13EiG4hqVh9KbW76BKkHmrvbQkV3EiK83HkYfSm3HfQJUg81bctm0ShDxKser3c7W6xcUVuNF2RUKM9uR9T9Z9/IdaZiTZFSup+4K1cUVtqPsitqMz7ifFv75iGZ/lfNLH/AD+SMXq7iRHkIiv4fSkPO5aiDQeZ5nkWzMHa7iQzJRDdw+lJfcy1WzQesee7ZmJOo2JljzbmlXHW7hjN8FsitKMzPueIv4mOaDiZZD9emXNXLgjJcSR8WZMzMy5su8Wz3wzV/K+Zj/l8kWyrkxChO8BLsKS05lnqqSZHl4xaV1e92ppVSk2nOpdQSeZSYhmhR+EWeSi74z6r4gUKsVF+oyKwxrPLMyLW9CXIXvEPZat/WVS6y1Lqs+O6wkjLLfqnyHlyiVFyqnnFv5sTRFXKa/kuOHeOFzOy4FAxBtuQw5MkNxGqghvUSbiz1U66c9hmoyLZzidtuQ17vK77Vu68LabtVxDq01qnKWTaMjUSZCDNWRchER7RsFvLIaepjnFW3bM9y21PWM5w7gAChcAAAAAAAAAA1809sy0UL/y/F5f40j4bUyj1WtPnFo9Mlznkp1zbjMqcUSefJJGeQ+5Gnr61DED9Hl/jSPkPo1aQ9X0a72l3tRrXp9eelwFwDjzlqS2lKlJVrFq7c+p/iPrfYSu7b4VersU7q4qnEZxnlHf3OBxOKZv0xVOIwwLoAvr8i67+znvJFVnDbEKSZpj2JcDpltMkUx48vEkbp/0t1++wraXxh3/Qd2vNdMRGTM2cGrWQZ7DNMp5OfiId+eJce7tJH/nDT9Fpf5k+5pd0q8TS/wCzu5f2U/5I8FYsu77djpmXDatXpjC1aiXZcJxlBq5iNREWfcG8v9MBiZnn0ora+OviHtJvTuu3SdsqHZVfsWkUZiHPTPS/DkOLWpSUqTqmStmXVC7Sa/jdy9TTqNNTTRPWYqicezvRuWtPFMzRXMz5NkPMdTPgcRi/tQf8wfScfNfzHX7liN4UH/MH0oHybtj/APM3vZ8od7h3+npdwAB5hvgAAAAAAAAAAAAAAAAAAAAiDDf1wmL/AOb278zJEviIMN/XCYv/AJvbvzMkBIVU64K8BP1imW4VKp1wV4CfrFMtwtjornq5AABgAAAcRvT7HhiOtJzrVh/7oFG+VwSLG9PseGI60nOtWH/ugUb5XBCpOnomYAARSAAAAAAAAAAAAAAAABReVqtrXlnkkzyGpEKyDvGc5U25ZxXp8lzJmO3khJ65lsLMbcOkRtqIzyIyMjPmGpdDv6tWVVXm6Nb51dmM+6lmQTK9VfVHtIbujivbV6OcTy8P3a93bmN3Tn+y+1rAVilTYlNj3JIflystZCWz6nPn6odqngFHgVaJRo1zPvSZGRuElsy1CPn6oeRGL1+xKyqvy7DkLed2I4WO4SS7wR8X7+p1YcrcixJK5EgjJBux3CIs+YbP/V/qj3wq/wAnw+avUcCI8Ous0KDckh95wyJwybMtU/hcw7z8BI8WusUGFcsh953LhDJsyJHf6rmHip+LV+UaqO1Z6w5LkmTnqm7HcLfzDtAxev2j1R6pu2HJXKl55G7HcIyzPkGf+r/VHvg/yfD5vXKwEYauBq34NyyHnFZG6omzIkc/4Qt9x4M06iVFVPZuN99TZdWrg8sj5vRCrTsXr9os9+WqxJKpcvcp2O4Siz5hZp1+Xmchb02zpiHHTNZ67CyM8++H/V/qj3wf5Ph83op+EB1SW3CiVV9bjh5EWp//AND11bC6dhvVKXVpb6JSkTo2o24jXbVrOpSfLvLPPvi1wsUbupElFQYtp9lbR5kpTSsvfzMVJ2LlWxDrVLplwEzCZOdHzd1epRk6ky2Z8pkRe+J0UayZjdOae/p0Rqqs4/DHP2tuWzzbSfORGOx7hTZMuDTqnmWqWR84qHuHGnq3o6MBuy68UaRXHIdq4SIr9PShJomnX2Iusoy6ouDWRmWR7M+UWnpgY8e18b/eyJ5IlUBhlFXTAx49r43+9kTyQ6YGPHtfG/3sieSJVAB8xtJLSY0scMdKmm0/Cyz5j06t06M5UrP48iqxzUXUIWRtEXAGpCUnmfPnyj6E4WV+9rnsWl1zEO0OhevSWtaXTCkk/wACrwi59+W8twvMa2beiV2Xc0aiwm6rPShMmaTKeHdShJJSRr35EREWXcF3AcHvIRHpZetxxB/Qj/1CXD3kIj0svW44g/oR/wCobfDf9XZ/7qfnCu9/Dq8pfAZXoj746jsr0R98dR+m6Pyw8TIBbwHYkL7Ewqqpp/MOvOPoJ5j/AOqJf36Lh/OOj5+6i+xPxD6B+ZAJUWIl/ZkZf/C4fzjo8x2vrpq4PexPdHzhvaGP+op/vufVMAHGZD4A9Y5AAAAAAAAAAAAAAAAEVaTHqYxP1ys76R04SoW4RXpMepjE/XKzvpHThKhbgEVaN33kXB7oF6fSKoCVhFOjd95Fwe6Ben0iqAlYAAAAAAAAAAAHmmrU1DfWg8lIaUoj7pEPSPPL4Pij3C+g4NWtlvyy2jMdRqpYGG9EvSHR5E+K4/MqTDciS8bh5makkpaz/iYzKpYIYeSLpYt2iUt4kt7ZTin1Ky5T8RfxMYBaEzEenwoj1lTVsQHmUIhE4TRukweWoR93LLMZA5Dx2t2pEZzkNTKhnu4I1LzP6zHVrpubpxciPbLRjZtjNPwZBKwRw9mXa1QaJS3iZZ2ynDfUrLL0WXe2F3zBeCGH1Ru0qLSKW8USN6ZcN9St3osj8Rd8WBun48W/VUxWpqGptQy3cEalZny++OrMXHW36odMjzkNzJmrrJTwRqVmZ5ZmIYu/zY98pf5f6Z9zIWsEcPKrdqqTS6W8UGJ6YcN9R55b8j5NuwcQ8EMPazdTtPplMeTTof3ZZvqM1Zb8j5Mz2e9mLAxBx1oM86RGnIalTctZCeCNSs88s/4hGhY7UWcqgRJyG5EvLXbRwRmeZHvPvZmGLv8ANj3yf5f6Z9zmv4Z4fM1Z9ilUxwozStRJqeUo1GW88++KtsYOWbX6s3T3Y5sJURqNXCHmeXIXdFiqVFxZpMpUKbIZS6kiNSS4I8sxRYjYrG8ni0ouFz6nUJvWz7mQzi7/ADY95/l/pn3Mtr2G9DwzvK2ZVuOLS87WIDZr1+qJC30oWky5jSZkNjS2kRjVOls3i1eVvHfrshyL58Qy1U6hL4bhU8EZ8urr6ufczG1pbSzzGrq934d1W6fHOVtnGZxGPU7AAjq5ce8KrQrUq27huZcWoQjST7RQJLmqakkouqQ2aT2KI9hjVXpFART9lBgf+WLn7Ll/8oPsoMD/AMsXP2XL/wCUAlYBFP2UGB/5YufsuX/yhrFfvmn1qYRY9zbAvCknV7MqDUeZSqvTGHUSYra06q0PMuJSa8nELMjTyKLmAb5gLBZl4UO/7Yp1421IW/S6qyT0ZxxpTajTmZbUqIjI8yMhfwGvmnv61DED9Hl/jSPhUW8fdXT39ahiB+jy/wAaR8Ki3j7J9nP+huf937Q85xj+LHkAAD6I44AADL6W+Y6/csRvCg/5g+lA+a/mO33PEXvwf8wfSgh+fu2P/wAze9nyh6vh3+npdwAB5hvgAAAAAAAAAAAAAAAAAAAAiDDf1wmL/wCb278zJEviIMN/XCYv/m9u/MyQEhVTrgrwE/WKZbhUqnXBXgJ+sUy3C2OiuerkAAGAAABxG9PseGI60nOtWH/ugUb5XBIsb0+x4YjrSc61Yf8AugUb5XBCpOnomYAARSAAAAAAAAAAAAAAAABQeI+BcIt5pP5Brbh1ULbbfaiV6tRISWH3FOpedJJlks9mRjZN4zS2tRb0pMy8Q1WoVkQr3l8cnk89NnSXNdRGRF6M9uWXMNrTxRNur0kzEZjp7VNyZiqMdef7JPm31Ztw3S0iRctOapsD0Gs+kkryB6+7Nr92odmXLT2qdAL7WS30kSst2XvjG63gdZkasQ6DSylOyXMjeM1pMk/wCrYH2Y3XYtApSZTjysuHUayMk8/IJf8ATfqq90fVHFzwj3skTfdm3DdvHahctPagQS+0pW+kiVlu/wBQi35Ztdu1dVqVyU9qHC+4JW+nqst2wY3UcD7MO42KDSUynFFlxhZrIyTz8gTMD7Meudqg0lMpaUFnIcUsjy5+QP8Apv1Ve6PqYueEe9kdPvuzazdL1bqly09qNE9LoU+nbluyIYZfWJtJmPSaoxNamOmfBxo7KyUpZ/gkRELg7gfZcu500OlJlLaa9MOGsjyy38gwjEqyaRaF005mzkEtSTebNcpWaeE1NmWRb9+QttUaeuvEVT7eTFc3KaczEI/q9Un3GhybVHqito1cGw202pKHHT/BLLkLb38haCtqjRn5ThR6mZw1tm6ZNqIySaSNSu4ZHtIZtEcuU6XbRoapnApkZN5qX901Vej/AIiuTl0lOuk3GqX9yLjGal5EXBfg+9zjrU35oiaaMRHn64jwaU24r51dfL1ZXrDfGav2JU2KVVpFQqNGcMtkhtRqQ1/tUGe3Is9pDbGLJYmxmpkZZLafQS0KLcZGWZDSySq5iiUEn2qZkmM8ZZqXmbXBlra3cyyG1GDxTSw0t8qgRk/xJGtn3hy9fRTNMXIxnpOO9t6aqYmaZ6MA0ndLjDTRXoDNUvhuozJs1ClQoUOOpRvGWZbV5aqCzI95iN9GLTtt3GCzqjfWIkiJbzUqouN0mnRokl9xqMjJObq0tmk1molHsPYRkNnLxse0cQaM9bd623T6zTZCTS5HmMJcSZHvyz2kfdIYlglgJY+j/SqrbuHpzY9FqU5U9qnvPG41CUpJEtDWfoUmZGrLnMxzG2832UOCP5YO/suX/wAoPsocEfywd/Zcv/lCVgART9lDgj+WDv7Ll/8AKGa2ffFs3/S1Vi1KiqZES4bRuGw411RbyycSR/wGQgA4PeQiPSy9bjiD+hH/AKhLh7yER6WXrccQf0I/9Q2+G/6yz/3U/OFd7+HV5S+A6iLM+q5R0GRWRYV3YmXG1ali0GTWavIStbUSORGtSU7TMszLcJSLQe0rvYRr/wABHlD9G3OJaTS4ovXaaZ8JmI+bx9Nq5XzpiZ9iGKMlK6tCStJKSqS0Rke4y1iH1D0q8fMPdGKvWtasDR/tKulVqCzUlvvxkIUlRrW3q7E7fQZ++NLqToRaVbNVhSHMFbgS23IbWpRoRsIlEZn6IbWabuDMvG7SnwpwpRVEUiRUrQJByHGzWTRtuyFGRkXg5Dx/G9bodfr9PTNyKrcRVNW2rpiM88S6Gmt3LVqqcYqmYxmPqjH+kVszf9i1ZP8Adl5Iu9ueaiRbQfekWto82zS3ZCSJ1cNZtGsi3EZpLbvMZN/Q+V72X4PxFYhXC/QNqWJON1/4Ns35Ghu2M4ltc1UZSkyc1qTsTvL0P8Rr0VdmNVbrmKpmmmMzzq6ZiPHxTmNZbmInrPTomL+mDuv2Iqb8dcHP9MHdfsRUv464LFfnmYtFwypTVbv3SEotEgPPEw2/KhrSlThkZkku7kR+IYF9h1gMe/TAtD+4WKrWl7LXqc2rc1R4xFU/JmqvW0ziqrHthLRebB3Yo9mEVL+OuDM8GPNQ7jxTxUtnDyVhjAhNV6eiGuQiWtSmyUR7SI9+4Q7h/wCZzWTijLlwcPdJW364/BQlyQ3EirUbaVGZJM+/kfiHob0P5+irpPYLom3dHrnn/WlGngmFN8FwRFvz356/8BRe0fZq5TXZsUYu7ZmIndE8oz3pU3NZExVVP4cx4eL61p3DkdUehIdh8rd4AAAAAAAAABFWkx6mMT9crO+kdOEqFuEV6THqYxP1ys76R04SoW4BFWjd95Fwe6Ben0iqAlYRTo3feRcHugXp9IqgJWAAAAAAAAAAAB55ranob7SNiltqSXfMh6B5agZpgSVJMyMmlmRl3jGY6jV/DPEK0LOj0yHdJvok0mMhhbKUErVfQRJMj28hkYyWFjnY0i63bhrD8jUbzKM2lBHq8hZ7eQtvfMWTCexaNdNLoSZVKjOqdhsvSnltkajLVI1GZnyn8pjOpWH1kVu70Uik2xTmYkL0yttkuqy9F/HIvGN+5Vp907qas58YasRcxGJhj9Nx0sjoklXDV3pCl5GUZtKCPV5C5eQvlHS38brHZr0q4a2++4+vM2UpQRkkz9/kLYQyU8PrIr14lAplr05mBA+7qQyWS8j2+M9njCPh/Y9xXipinWxTmaZA+6mhksnMj+s9neIQzpv01e+E/wDM8Y9zHaDjnY7Fbm3BWH5DklzPgEpQRknP3+bIgt7HOx4dTnV6rSJDs17PgSJBGSc/f7xd4ZHAw/se4bveOFbFOZpVP9HqslquZH9Z/wACHFIsCx7iuqTJj2xTmaTA2GkmSJK8s8s++eZ94g3ab9NXvgxd8Y9yN5mK1u1CW9NkS3FOvLNaj1S3n7499sYy2pQas3UHNd5KSNJpyLMs+Utu8Vb1i2BT3ptWTQadEp8fYgksltIthd8zMRDXKouopkLpdOpVNjxstf7WhThqP0KM+yPMthbuUbOn01nUflpmI8ZmFN27ctdZjPkmStYkUnE687ZiUCMsnWatBd1VZZmht9K1qM8+RJGNjzHz3pEa6KLWmKhGuGE3KgVBtDS+p1UyEpS4jPL8EzPVz3c42awr0gE1+azbd5NsRKg65xdqS2oibceyz1FF+Co+Q9xjGt0GyIm1OYjn62LGo3TO/lMpxABiWIeKGH2FFCduXEO7abQaeyk1G7LeJBqIuxTvUfeIxym8y0BG2B+N9qY92c9f9mxprVDOoPwoMiY1wRzUNEklPtpPbqGs1pI+U0GJF4Zr/bI+EQCoIYk6KWDtZxgqWN93UDoluWZwKIqqofDMU9ptCUpbYbPqSLMlqMzz2rMTHwzX+2R8Ig4Zr/bI+EQDo0w1HaSzHbS22hJJQhJZJSRbiIi3EK46pUlRZpMjLuDsA1809/WoYgfo8v8AGkfCot4+6unt61DED9Hl/jSPhUPsn2c/6G5/3ftDznGP4seQAFvF5sykxa9d1Gos3W4vOnMx3dU8j1VLIjyPvGPoF25Fqma57nKinM4WYyyDPkH0Xxj0ePM+cCLtasnEOtXbFqrkNucSGXVOJ4JalJSeZcuaFDBvODzL/wDKa9P/APMebtdqrN+iLlFm5NM9JinlLcq0dVM7aqoz5pP8x4+54jbOWD/mD6Uap78x87dHzSM0CtGtNYLDy57jyrfBcZ43GW59zz1cub0RiZP6TXRW/Kapfs5Y+XdodDreJ8Qr1NmxXtqxjNMxPKIh2tJdtWLUUV1xmPW2vyMMu4NUf6TPRW/Kep/s5Yf0meit+U9T/ZyxxP8AAuJfyavdLa+92f1R721u3PcOTLLkGu+G2nZo94s3nT7EtCvzn6tUlmiO25CUhKjIs9pnu3DYfMiIaOo0d/R17L9M0zPPExhbbuUXYzROXcAAUpgAAAAAAAAAAAAAIgw39cJi/wDm9u/MyRL4iDDf1wmL/wCb278zJASFVOuCvAT9YpluFSqdcFeAn6xTLcLY6K56uQAAYAAAHEb0+x4YjrSc61Yf+6BRvlcEixvT7HhiOtJzrVh/7oFG+VwQqTp6JmAAEUgAAAAAAAAAAAAAAAAU1oJaDQZbDLIRJTcIbvt2W47bt5xmGtdZtE7D11JJR55ZiXuTaOMubaM0XKqImIRmiKuqKmMOMSo1Qcqjd+wuMuZ6yzg5n8oRcN8SYc52pMX7CKQ96NZwczP+Ilb3g94Wemq8I9yOyPGfeiqFhxiVAluzo1+Qiff9Gs4OZn/EIOG2JNOkPSol+w0uv+jWcHMz/iJV94Bn01XhHuPRx4z70VwMNsSaa489Dv2Ehx/0a+I5mf8AEWCt4DXfXY5tSr2ikslk6hxMQyUlZbjIxOfvB7wzTqa6ZzGPdCM2qZjEzPvlo/eFk4i2Ca6dWTmKi8OchD8eMS2zcI80rSZbi5y3jEWbsqdRlTY3HZ6lzzSUlKIpGpRJSRZERd0su8PoQ402+g23mkOJPelSSMj94x5GqBQmV8MzRYTbm/XTHQR+MiHQt8VpiP8AMtxM+pr1aSc/hq5NXMNcI76vmpR6pcr8iHSEtk26brJNqdaI8+DQW8iPlMbWRozMOO1EjoJDbKCQhJbiIiyIVsi3EBls2GOfqdTVqJ5xiI6RDZtWotx4y7gOByKFoAAAAAAOD3kIj0svW44g/oR/6hLh7yER6WXrccQf0I/9Q2+Hf6u1/wB1PzhXe/h1eUvi5ozVPF+kYu0+dgXT2pt2oYeKKy4yl1JoMur6lRkW4byFiL5q5yWPTP2Yz5Q+eOGOKF34PXjHvmxpzcWrxELbadcaJwiSosj2GJ1LzSfSt/LGAX/9vQPtXGuFanW3qblq1brjGM1ROfh3PNae/RbpxVVVHk2ehYheapqmx0yrIphMG6gnT87WdiMyz/C5hnmLJyVeaI4JqmpIpB2o+bpEWWS9aVn/ABGl1M80g0qpNSiRnbwp6kOvtoUXnejaRqIjG2GkJf8AbVi6cuDd831W49KpbForclTH8ybQpa5JFnkR7zMh4zXcM1Oj1NNN23RTNVNeIoief4e/9nQt3qK6M01TOJjr5t+Tz3DR7RW26dOkH+cN/POibPs4tFLL1aqD8JzyRqVo8aReClqaXGNN9XDiHTINBuF5tVLnOGrg5RE64Z6uzPcovGPP8N0GqpsaiKrdUZpxHKefOOjbvXLc10TFUdfH1NiPNAn6bHwlpi6pXaBSmjrCCJ6s09Uxkz4NfUkhO5Xd74+evnnZvsn4Xfuo7/qN6se9JDR2xYtOLQbZ0mLdt6SxMTJVJXE40S0klRauqtBkW8jz7ggHh8MPbyWr+70f/lD0nZ69Oi0kWr1NUTmeW2fpPzamrp9Jc3UzEx5x9UoeZ2S6LIuu7ypN2WlV1lBi66KLR1w1oLXcyNZqPqi5i74yPTK9dBo3/pmX/liy6PmM+A+EVVq0+6dLC27jaqDDbTTbdNTF4I0mozMzQ2WtnmW/mGP4944YV4yaT+j+rDK84FfKmVl8pZxTUfA6+pq55kW/I/ENG5Rdu8Wr1MUTs21c5iY/2zHfELYqppsRRmM5jv8AXHm+hCPQkOw6o9CQ7Dw7qAAAAAAAAAAIq0mPUxifrlZ30jpwlQtwivSY9TGJ+uVnfSOnCVC3AIq0bvvIuD3QL0+kVQErCKdG77yLg90C9PpFUBKwAAAAAAAAAAAPPMUhEV5ay1kpbUak85Zbh6BQlM8PHdZI8jcQpJHzZlkMx1GoNqWzdVVhwZduV6RTmqi22qPFZkOZNIXkaWyPmLMi94ZJNwrxAodWZpjF7vqlzcsyakuZ7T2Z7O+MgsCjX/YrEGLJw+kTnabGTGStEhGoakkSdcvEeXfF7gVPEOPcMi4ZmG82Q85mTaTkIybz2Fl3i2DpV37uZ27cZ9TTpt0YjOc+1gknCvEGi1dqjxr3fVKl5axMyXNmZ7M9nfMHcKsQKXWm7fiXu+ciTlrk1JcIizz9F72ZjPKVU8RIVck16ZhtNkyH89TOQgibz5ve2Dij1LESm1aXWZWG8yTKk56qjkIIkZ78v4F3hH01/wD4/BLZR6/iwQ8KsQIFZTbcO93jefy4QmpLhJTn2WzkLaOEYVYgRqz0MQ73eN1wvtvByXCSWzbns5hndCqOIlJnzKtIw3mSZkrPJZyEESc9p/V4hzQajiLR5M2oOYbzJEyXn9sVIR1Oe0/45eIPT3v+PwNlHr+KEL3tqpWTcrFJuCoP1tDcWTJ4Fs1OI4VCUknWI+QtfMWyIi3kItWMdszXEEg3n1HFzOSvgTPMtvVFrK1veISPdtp4nVd5isMWNKVNiuOLUS3kmTzayMnEH3y298iEXIuutUpilwZlJJuTQnlONcK8SV8ESVINhRH+HqHl3ciHRtbr1uI5Z78TEfJq14oqnw8vJVX5wOwLtQdtTCUbyzYWUb7hkynLPb1OR7RUqTlFVMp8li3JsZ2RTnicUiPqmThJSpDqdu9Jke3ujwrvSRKj16AwxGSVakmtSylF1DfAt6/jTsI+c8hlloQLpxVuVuHApBw4XFCiqka+aYUdSi4Uz/tqJJEkhOqmqj8VfKI9fqhGJpq5U858vW2ssaqyK7ZlBrE3PjE6mxpDvdWtpJqPxmYhnSn0LMKtK2nsLvJVQp9ZgsmzBqcN882i2mRKbM9RRZqVyZ7d4nqnwo1Ngx6fEbJDEVpDLSS/BQkiJJeIiHq5Mh5uqYmZmOjqUxMRGWq+jfoSWlhdhoiwsSaVT6/MpM6Q3AqUWVKZORCWZOINxBOESXCUtxJ5Flkkj5RK32MGBf5Cp/aMv/miUwGEkWfYwYF/kKn9oy/+aH2MGBf5Cp/aMv8A5olMAFktW0bfsmkN0C16cUKA0pS0Mk6tzI1bzzWZn/EXsAAa+aepZaJ1/wD6PL/GkfCskmZ5JSZn3CH3T09tmifiCX/y8v8AGkfJTRQxitvBDE1V4XTYbl2Q1QXo3EUNtrPWVlkvJwjLYPrXYW9c03Cr121RuqiqcRnGeUcsy4HEqYqv001TiMIZ4Nz/AGKvEMmwyaX0xbaybV11jcn/AHhD6E/0kOCftTJPxOH/AMsXK2fNDsG6zcdNpUXRbkxXpkpthD/FIhcEpSiIlbEZ7M8x0tR2j4lctVUzpMcp/wB9LXp0lqJj8fwlF3miOF964uaYkC0LBortVqztoxHkR2zIjNCHZJqPbzEQhP7ALSu9iqd8NH+o3+qx5+aj0Q//AAEf/wDtDc9R9QrPmHlP/Vus4Pp7Gls0UzGymeec8/KY8G9Ggt6iaq6pnOZfACydGHGzEWtV+3LQsmTUKhbEjitUZQpJHHdzMtU8z50n4hmJ6A2lYjarCuYXfcR/qN79AvLp86RGf5Sf5rwzDT7i3DJtO2U0GJdr6yqKzWVvTkRnCLglejNRlmnuc47F7tZrv8QjRURTETEc5ie+InxhTRobU2fSTnv+eHzfPQJ0qT/7L5f96j/UC0BdKtXocLZiu86j/USP51Yj/ifGX9vseWNx/M/4lyRY92+f8O8WDUqNwfRDPbkmfos+D1DPLu+8N3iXHeJcO09Wo3UVYxyxPfOPGVVnS2btcUYmP78ml2itgpiVgppf4eUrEq23qPKqDrr0dt0yM1oSkyMyy7pkPsmW09w0xx+9fzgh+ZzPlSNziMh8+7Ta+5xOqxqbkRFVVHPHTrLraO1FndRT0if2dwAB5pvAAAAAAAAAAAAAAIgw39cJi/8Am9u/MyRL4iDDf1wmL/5vbvzMkBIVU64K8BP1imW4VKp1wV4CfrFMtwtjornq5AABgAAAcRvT7HhiOtJzrVh/7oFG+VwSLG9PseGI60nOtWH/ALoFG+VwQqTp6JmAAEUgAAAAAAAAAAAAAEWY9XNV7Ho1BvOFWFQKZSq0wdazURNrhLJSVmvPkJWqYlMY9fdkW7iPaNUsi7IfG6RWGDjy2SVqmpBmR7D5NxANR4OOWJa0y6LWLqkNTL6rUSp20TWXDRKSpSlOpTzkRNGWfMsXaHpjV+7otSplKozTSptMmSKW9FJ7h4rjBkRFIWtBNka89hpMy3jYNzBHDddcte4lUMjm2fBcptKVr7GmFpJKkmX4WwvlFgh6MuHcIqjHTMuB2FOiPwmoLlTWceC0990KOjLqDPn25AOmEmJt91e5F2JiNQ6dEqhUePWIr8CQp1DkdwzTkvW3LJSTzy2HyCG7ju3EGgX5Ubju25L1p0LogS1TavS1omW8mEp0kIZfaTtQoyPVNR7SUZGNhMNMFrWwufkzKRUK1VJklluMcurzjlPNsNlkhpCjIskFzCwz9GawJ9akVJVTuJinTJxVGTQ2KkpFNekEol66mcuyIlZZ5ZkAjOBpoPzryepsegRJFHW/MhRiaS+ctLjDalE66erwRNq1D3KzLMsxe4Ok5d1LpjNZv+zabTI9aojtToSY8w3FSH0uaiY6zPYSj12j2dl3BnMTRyw/hVyTV2Ha0mM+chaaUVQWUFhx5JpccbaLYSjIz5cizF2rmCGHtx0q2aHV6U6/EtCW3MpZG8eaHEFkRKP8JO4zI95kXMAhhGmHVumExbL1sQkxGKk1Rp8dPDqmJkqLqnEGSDb4NKthkZ58ok7CPFS675sWqYhXJbkClUxkn3aehiSbrjrLRKzWvkTmaTyLkIe57ASyHr0XeiJVaYW7LKoPU1mepEF6URZcMpot6vfyzGVWvYtvWfaqLMo0ZwqWhDjZNur1zNK89YjM9+8wEFRMXsXqRb1NboVHp1wVOp0OVdU6RUJam2YzZOKMmGySWeRpSZJ5sto5qmk/fMimzLqtCxqbKoVDOms1Y5Uw0P8ACyzaz4Ii2GSOFLPPfyCR7Gwdh0Gj+d1wyVTXo8CRQ2H23DTr05S1mklF2eSzzMhE2I2iZVbiuVEK15iaZbj71MW+bVSdbNaYikK+3MkWq8s+DJKTzLIt+4BdFY7YloiHBsm14VVfbp0+tSn6rNUlLTTLyy4MtUszNRIMk8hZbRU+yirr2IVsYaR7MZOo3pEj1Slv8ZyaRB1f6yp095LQoskkXosyPnEq0vB6yqST/Fo0klSqe9TXTN8zzZdUtSyLmPNatosKdGrC1qYzVk0+cqpQ3or8OaqUfDxeLp1W22l5ZobMs9ZJbDzPMBc8F6/WqnSq3Q7gmOTJluVqXSuNOHmt9ptwybWo+yNOWYkcYThfZEuyaHLbq0xEqq1aoSKpPdbz4M3nlmoyRntJJZ5EM2AAAAAAABx3RZrstejXrbtQtW4onGabU2FR5LOeWu2e8sxeCMshzv3GMU1TTMVUziYYmM8pa2H5nropGefS5R8ZWLDX9C3QltesUSgXDa0CDUbjfXGpUd6Ysly3UJ1lJQXKZJ2jbDaNQMerOxhxPv25Lwsek0pUPD1qM1SPPFDqZLkuOopT64mqWWbn3AzPYZJHT/xniH86r/yn6qPu1r9Me5lzHmfeitGkNvNYeIS62slo/rK9hkeZCXrlwlwyvJ6K/dVl0mrvQ2CjsLlsJcU20RmZJIz5MzPxjUir3pT7wxCuGVAqF1tX8det5y34jZSCZYjuMRFyk6pFwZJNBv65K7gvOFFah1bEq21WrVrmk3ai5qszc/GeHOMVLQbxEnqi4PVJ3geD1Tzy1hTd4hqr8xVdu1TMdMzPLKdNm3RGKaYbDno5YDkZJPCu2yM9xcSRtAtHLAfMy6VdtZlvLiSNggvSCm1SDj7TJkWRPmvsvUlEKmpKWy6lKnkk65EcaI2VlkZ8Il3kSoi5BFrTuMj1fuOZ57zGbpTDuRVYjtMz1ylMFGf4uhWf9XSkl8EbRt7eTlEPvuq/mVe+fql6KjwhuN9jlgOeeWFdtnlv/qSBz9jlgRnq9Kq2s+biSP8AQQPW7MvuwY9r2rZb9yzI2J9KjUapSn5Djy6dKQ7w0mStZ7W1OR3H0kewiUhAxK3WsU0Y8riza4+isxbpqLbjXBTlvqoiUPcAhf8A1YmTRwJpUR62tlymYffdT/Mq98/U9DR4Q2kLRwwHPdhVbh//ALJA9tIwHwcoFRj1mi4b0GHOiLJxiQzESlbai5SPkMYzop2tKt/BW3qjV5FXkVuuw2ajVXKm+tx45Cm0kZZL9ARERESciyyEx+IRnWaiqMTcq98sejojuh2AAFCwAAAAAAAAABFWkx6mMT9crO+kdOEqFuEV6THqYxP1ys76R04SoW4BFWjd95Fwe6Ben0iqAlYRTo3feRcHugXp9IqgJWAAAAAAAAAAAAGCX5f8yzLssSlqp7TtKuurP0iXKUoyVEdKG9IZPmyUphSDz5VJER2hpY1S7LYjVJNrRYNSqV9RqBTmJDqiRIoz6ONt1Aj37ael53LdrNmQDZcBA1Y0tbBO0q9cNuJmuO0qknXoSJsVbSKnTkuNoXJjcrjZcKjaW3NSdm0SFh5irbOI7tVhUhiow6hRXGymwKjFOPIbQ4Rm05qHvQskqNKuXI+UjAZuA1ptHSPvW6r7cpseFaaYDdyv0J6guTFs12Ow3JUxxs0LyQtJkjhtVOZ8GZZbSGcw9JzC2ZUqhT0TZ7TMJmc/HnOw1Ji1AoRKOUmM5ucU2SF5ls9CZlmRAJdARJR9JfC+s0Ou3CiVUYsSg0ZuvvHLhLaU9AcU6lt5pJ7Vko2VEWW3annIeiLpFYdS72TZDb1RJ5cpdORPVEUUJU9DZuLiE7u4ZKUnmnnIyzz2AJRPupGJ3bhdY97Hwlft+O89/tklqOeMt/vi14f4y2diPZczEK3TqHnFFQtwpUmKpkn20tktS2yVtUktqc92aTGGlpR2xbtu0moX3S6lHqdSoqbndh0+E4/xKlOuq4N14/wTQ2aOE5la2WZDNFdVE7qJxKNVMVRiqF4p2i/hDTZJyW6I+8ZnmaHpKlJ8Qkuk0SkUOGmBR6cxEjo3NsoJJe/z++I1uDSWwzt64ytyRLqL58ch01c6PDW5DamSuD4BhbpbCWonW1Zcyi5xbp+lFYlswIx3Hx9+auA5VpCaXBcfbYhIkLZU+s/wUJNHVfwzFly/du/xKpnzlii3Rb/LGE2AIwd0gMPF3Qdjwqk45cjs5qBGp5snwjxuscMh8iLabGoRmbm4tVRb9gv+F17OX/ZkS4JcRMWeh6TT6jHQZmlqZGeWw+lJntNHCNqNJ8qTIxUmzAAAAAAAAAAGvenoWWihiB+ji/xpHyN0XMcKJgBiQq969aDdxxlQnYvE1amWsvLJXVkZbMh9s8ecK041YU1/DNVUOnFW4/AcZJGtwfVEeeXLuGjP9D8x7Li/iQ+g9leMcN0nD7uk19WN8zyxPTER1hyNdp71y7TctR0hbf6UzDD2ucf/ANN5Iulreab4aV25KZRWNHuNHcnS2o6XSOP9rNSiIlbE8mY6f0PsUjyPF5zbuLiQulseZLR7euOm17prOPed8pqTwfE8tbUUR5fwG5eu9lvRzsqnOPGpTRGtzzj5JCrDiU+ajURZmSS6AT2mf50NyzeYSg8n0bC7Ihr7jZoXWDjdiI1ibWLluGk1hmnt01K6XKNjJpClqLaRke3hDzGHf0cliey1iJ+23fKHkdRVoNZRamq7NNVNMUzG2Z5xnvy6FEXbc1RtzEznqxfQNebRjxpEKNxJEdzbMz/714SRpq4bVrE22rfhUCwpN1uQ5y3XGY9bXTzZI21FrGpHot+WXdGIwPMy8K6XIkSaZiFfER6WrXkOMVRbanlc6zSZGo9p7THu/o5bD9lvET9tu+UN6/q9BVrY1tu9MTERGNs90RHjCFNF30Po5p+MeOfBrP8AYp4he1tq379vjanQnwvr2GLFzJr+Hcm0znKjm2UivLqHD6utnlr+gyz9/MW7+jlsL2W8Rf2275Qf0ctiey1iJ+23fKGzruL6fX2JsXL2In/hV458ZV2tPctVxXFPxj6LTj262vT5wQNCyPKHM3HnypG5xDWTDbQQw5w5xEo+Jce8Loq9VoilKj+ec1T6SzLIy6ozMiGzZbN24ed4nfsXItW7FU1RTTiZmMc8zPT2tuxRXTNU1RjM5VAABy2yAAAAAAAAAAAAAAiDDf1wmL/5vbvzMkS+Igw39cJi/wDm9u/MyQEhVTrgrwE/WKZbhUqnXBXgJ+sUy3C2OiuerkAAGAAABxG9PseGI60nOtWH/ugUb5XBIsb0+x4YjrSc61Yf+6BRvlcEKk6eiZgABFIAAAAAAAAAAAAAAAAAAAAFkqd4W1R69TLYqlZixqrWSdVAiOOETkgmyI16pcuWZC9j5e6Utl6X9+6XNuYn2ZbDsCHbsiQi16fIkpbemsRNRT6iRn/0pObM+fuAPqEAs9qVGoVi3KbVatSn6bNlRm3JER8snGHDSWsg+8eYvAAACMbDqdQlYvYo0+VMdcjQpVKTGaUrNLRKgNKUSS5M1GZ98wEnAAAAAAAAAAAAAAAAAAAAAAALVTLco9HqNTqtPhpalVd9MmY4W91xLaWyP4KEl7w5olBpVtwfO2jxSYj8It3VI/wlqNSj8ZmYug4zIjyz2mA6mlJmRmkjMtx5bhzkRGZkRZnvMdgABxkWetkWfOKLD7MlpD8d5DrThayVoURpUXORlvFcAAAAAAAAAAAAAAAAAEVaTHqYxP1ys76R04SoW4RXpMepjE/XKzvpHThKhbgEVaN33kXB7oF6fSKoCVhFOjd95Fwe6Ben0iqAlYAAAAAAAAAABGWkNhPUcacLalYtEuRy3qu69Gl06rNkZrhyGXkrJZZbdqSUnvKMYlO0WqNIxat++YVWOLQqFaK7cTR0JPVOQlpcePKTyEpuNIlNc+ThcwnoAGoFraFlx25bVUpEKqWrBqUa1l21Q6ixHkurWZuMrKRJJxZkn0s1m22RJMzPmITfhbh/edGum5sQcRqnSZVw3FGgU3UpDbiIzESHwxtkXCdUazXJeUZ7sjSRbhKAANaqlo54i3FWqXAuav2rNpVHuBisRrgOAsrhUwxKKQ3HU6REnkJo1Z7UGezMxj9t6Fkqiy5sNcy3ihxYNajUqchqQuc4uc060lT5KWbaODQ+sjNsiNXvmNtMyzyz28w5AQdeujmu76rhvPTcCIjFpssU+usJbPKrwWVMvIY7hcZisK2/gG4n8IYpRtEl+lYpvXSp+gPUjojmXO1JWiQqo8O+pxzgTI18CSUOuGZLJOtqpIucbOAAja0MKVUDASnYNT6kmSuJbZUF2WyRoJw+A4M1pI9pZ7xh1q4WXHdVkT5NfUilVas2ExZcmO60eceVGOQ268RlvaWpZKTlvSRHyiegAaSXNh9itTLqPB+1WVv0Ko3pblbmuP0xzWUiMUI5LrT+fB8CSYhK6rq9cjSWwyE107ACfCotx0lyvRFuVy1F2624TSvtS1SJbvCH/Z/rKSyLlR3hOAANdKZo3XRRMV6bjeq74j1cosWPQm4yIx8A5QW2CJxjL0XDqe1nCXnkWSU7sxImBFCrFDsBMmvxFRKhXanUK67FUnJcdMuS4820suRaW1tpV/aIxI4AAAAAAAAAAAAAADS/HHFmuQMe2b1pNPup+g4YSIkOW9AZUumLKQZHUOMmR5azUdTZp2HkazGX1XGjFCHcdXuaFcdCk27TL3iWq3RURyN99iQ3G+3cJnmS0nINRERZGRHmNgmbKtVmmVOit0KIUCsuuv1BjUzTJcdIicUvnNRERH3iEe2noxYXWvc9WvErfjSaxNqJzoklev8A1QijtMNoSnW1TNCWtijLPqt4DEcM8VsT5t2WWd0V6i1emXy7VIyYcFgkLppxSeWhw1kZmsjJokKI9ylFkPPiHjbiLaGMxU12SmJajEyFBRlTykRpK3vRIdkJVrsPZmkkJNOR5lnvEkYWYAYcYUGmqUG34xVtSX0v1EtfXc4V1Ti8kmZkjMz26pFnkLtU8GsMaxeTd/1K0Ij9dbU24UpSl9Utv0ClII9RSk8hmRmA1YjaWGNp0mo3QdFcOFU6VVZsFMqlpZj09cYlm1qO65qkJVqES8yLIz2CQ6pjLi7Y9RTh5clQpVTuq5o1Pftx+PENtpS3XjRKI0b1JZStpWe/VIzMS1EwFwghS6rNj2FTUu1pt1qbmSlJcQ4ebiSSZ5IJR7T1SLMZNMs21ajWqTcU6hRH6nQkuJpspbebkUlo1Fkg+TNOwwGqlsaTuL9ZuRyovUGQVFmzKzAaYdpqW2IxQ+GJDqJGvrOqUpkjUnV2EezcNg8BqtfNyYXUC7b/AKpAm1SvQmKoSYUc2mo7bzSFpaLPaoyzPMz5T7g9EPBHCqn3FOuuLZMBuqVEnSkPESjJXClk4ZJM9VJqLMjNJEZ5nzjL6VS6dQ6XEotKiNxYUBhEaMw2WSWmkJJKUl3CIiIB7gAAAAAAAAAAAAAAAAAAABEGG/rhMX/ze3fmZIl8RBhv64TF/wDN7d+ZkgJCqnXBXgJ+sUy3CpVOuCvAT9YpluFsdFc9XIAAMAAADiN6fY8MR1pOdasP/dAo3yuCRY3p9jwxHWk51qw/90CjfK4IVJ09EzAACKQAAAAAAAAAAAAAAAAAAAAIpxD9XTCv/c135qMJWEU4h+rphX/ua781GASsAAACKsOfVuxb/O6R/wAOZEqiKsOfVuxb/O6R/wAOZASqAAAAAAAAAAAAAAAAAAAAAAAD5g6Rem/e9uabFuSbRiVWVh5ZC36TWFxmVqjyiUpCZrxmRZHwKja28moXZD6fCGbwt+hs4+4c01miwExJVCulT8dMZBNumpymaxqTlkoz5c94CWaVUoVapkWr059L0WYyh9lxJ5kpCizIy94x7R540aPDYbixGEMMtJJCG20klKEluIiLYRD0AIq0XXXX9HbDx55xTi129DNSlHmZnwZbTMxKoinRX9bnhz+rsL5ohKwAAAAAAAAAAAAAAAAAIq0mPUxifrlZ30jpwlQtwivSY9TGJ+uVnfSOnCVC3AIq0bvvIuD3QL0+kVQErCKdG77yLg90C9PpFUBKwAAAAAAAAAAAAAADjdtMcgA+XmLGnReFE086RWaJEqr+Fdook23U3WGlqjSWjdaRPmZkWSiZeUwWf/dp2lr7fp3HkMTY7UqM8l1l5CXG1oPNK0mWZGR8pGQh+u27b7ekfZFFbolPTT37Du43YiYqCZcNVRoBqNSMtU8z2nmW0TAxHajtIYjtobbaSSEIQkkpSkiyIiItxEXIA9AAADBsPryqd03LiNSZ6Gks2pdLdGhmgsjUydJp8szVznwktwu8RDORFODH3842+6Az9HaKJWAAAAAAAAAAAAAAAAAAAAAAAAABprcWn1QKFpvUzRw4WMdvORfO6dOPLNurumSmk63YkWST7rn9kblAAC1XLLfg25VJsZzUejw3nW1cykoMyPxkLHg/W6lcuEtk3HWH+Hn1W3KbNlO5Za7zsZta1e+pRmAzEAAAAAAAAAAAAAAAAAAAAAAAEQYb+uExf/N7d+ZkiXxEGG/rhMX/AM3t35mSAkKqdcFeAn6xTLcKlU64K8BP1imW4Wx0Vz1cgAAwAAAOI3p9jwxHWk51qw/90CjfK4JFjen2PDEdaTnWrD/3QKN8rghUnT0TMAAIpAAAAAAAAAAAAAAAAAAAAAinEP1dMK/9zXfmowlYRTiH6umFf+5rvzUYBKwAAAIqw59W7Fv87pH/AA5kSqIqw59W7Fv87pH/AA5kBKoAAAAAAAAAAAAAAAAAAAAAAAIqvX1xmGH6Auf/AB0wSpmXOIrvT1xmGH6Auf8Ax0wBKoALdPrdHpLkZmqVSJDcmucDGS+8lBvLyz1UEZ9UfcIBHWiv63PDn9XYXzRCVhDWitW6O7gRh7RG6rEXUW7ZhPLiJeSbyWzbIiUaM8yLu5CZQAAAAAAAAAAAAAAAAARVpMepjE/XKzvpHThKhbhFekx6mMT9crO+kdOEqFuARVo3feRcHugXp9IqgJWEU6N33kXB7oF6fSKoCVgAAAAAAAAAAAAAAAAARVcHrpLD/UG7P+I0ASqIquD10lh/qDdn/EaAJVAAAAEU4Mffzjb7oDP0doolYRTgx9/ONvugM/R2iiVgAAAAAAAAAAAAAAAAAAAAAUnEE42pvWUklEZZpPIy7wqgA0xq+hPo8y8f4NuyrQefVVrYrFelVJyUs5yp5VKAaXye3kpPCuEWzYSjIbixYxRIrMZLrjhNNpbJbqtZasiyzUfKZ8piM6h66W3v1BrP/EaaJVAWa8fvSrf6OkfNqGN4AeoPhv8AqjR//o2hkl4/elW/0dI+bUMbwA9QfDf9UaP/APRtAM9AAAAAAAAAAAAAAAAAAAAAAABEGG/rhMX/AM3t35mSJfEQYb+uExf/ADe3fmZICQqp1wV4CfrFMtwqVTrgrwE/WKZbhbHRXPVyAADAAAA4jen2PDEdaTnWrD/3QKN8rgkWN6fY8MR1pOdasP8A3QKN8rghUnT0TMAAIpAAAAAAAAAAAAAAAAAAAAAinEP1dMK/9zXfmowlYRTiH6umFf8Aua781GASsAAACKsOfVuxb/O6R/w5kZ3dtIm3BbFUotNq8mlS5sVxmPNjq1XI7hpPVcSfcPIx81tFKu6XN9aW10YfX3dsqDTLWmtSLllx2CadnnHaJiO2peW0lpQRnlvy7oD6hgOCLIshyAAAAAAAAAAAAAAAAAAA4HBqSRZqMgM4ddu7YIuvJh9ekHhrIbaWbTdCuUlrJJ6qTNdNyIz5M8j8RjMa5fdpW2hS63XokXV3kt0tYveLaMCqukthXCfStuoOTHEEokLYjmvLPeRHyZ5F/Ablnhuq1PO1RVMeqJcbVdoOF6Gdt+/TE+GYz7uqXs8y2CE9LzBDp84IVy0qc4uPcUJs6nQJTSjQ6zOaSZoJKi2lrlrI3/hZ8g87ullZKVZM02pOJ5+ByFSPpYWEvLjMSos7dv2g1ZeIbU8C4hEZ9FLnR204HNWPTx/frwhvzMTRzrmEWETl8Ygsy+i26jSWrMNSnYdPaMyYZLW2pI9q8tnoiLkG6hl3BGdI0iMMKspLabgbjrXsJL6TQefMM+plcpVXZKRTqgxIbPcppwlF/AaV/RanTfxrc0+cS62j4zoOIf6a9TV5TC4gOByNZ1AAAAAAAAAAAAABFWkx6mMT9crO+kdOEqFuEV6THqYxP1ys76R04SoW4BFWjd95Fwe6Ben0iqAlYRTo3feRcHugXp9IqgJWAAAAAAAAAAAAAAAAABFVweuksP8AUG7P+I0ASqIquD10lh/qDdn/ABGgCVQAAABFODH3842+6Az9HaKJWEU4Mffzjb7oDP0doolYAAAAAAAAAAAAAAAAAAAAAAAARVUPXS29+oNZ/wCI00SqIqqHrpbe/UGs/wDEaaJVAWa8fvSrf6OkfNqGN4AeoPhv+qNH/wDo2hD+n25jJbuC0rEjBe4pMSpWtryZ9PJBOMT4KkGl5K0HvNJHrl4IxrzNdeMlyYJRMQ8WrikvR6jEjUy3qXqE2xFp8VBNJdJPZL1cjM+w7oDcIAAAAAAAAAAAAAAAAAAAAAAAEQYb+uExf/N7d+ZkiXxEGG/rhMX/AM3t35mSAkKqdcFeAn6xTLcKlU64K8BP1imW4Wx0Vz1cgAAwAAAOI3p9jwxHWk51qw/90CjfK4JFjen2PDEdaTnWrD/3QKN8rghUnT0TMAAIpAAAAAAAAAAAAAAAAAAAi2tYkXjX7gmWthLQYNQcpbnA1Gq1F1SIcd7laTq9U4ouXLcAlIWKp2jRqvcdGueY24qfQUyUwlEvJKSfJBOZly7EJy5hg/F9KH8YYaf3U4OL6UP4ww0/upwCVQEVcX0ofxhhp/dTg4vpQ/jDDT+6nAJVFnp9rW7SaxUq/TaPFjVKsKQqdKbbInJBoSSUms+XIiIhgXF9KH8YYaf3U4OL6UP4ww0/upwCVQEVcX0ofxhhp/dTg4vpQ/jDDT+6nAJVARVxfSh/GGGn91ODi+lD+MMNP7qcAlUBE5o0oGiNZvYbvknbwaEzUqV3CM9he+L5YWI0i5Js21rpoyqFdFLSlcqApwlocaVnqvMrLYts8j28hkZGAzwAAAAAAAAAFIyIyzMtw1g0gscbhp1ek2ZbD6oLcYiTIkJ+6KUZZmST5C2jZ9RdTkXiGiOPuZYq1vnJxP8AhIev7FaKxrOIT6emKopjMRPTOYfLPtY4tquF8Hp+61zRNdURMx1xiZxlnWCGEtt4jQl3Nd9benvm6pBxje2pIj/DM9u3eNgKVhBhxSUlxK14JGn8JTeuZ98zGiFKrVXokgpdHqUiG6R56zLhpP8AhvGeUzSHxUpTSWk19EhKdmcholmY9Xxrs3xTVXqq9Ne/BPSnMxEerlyfNOynbvs/w7T02uIaXNyOteIqmZ8Zzzj2N0W7QthlOq3QoKS35cAj/QUpNkWnLI+HoEFee/8Aq6f9Bqe1pU4joM+FbgOlluNoyFGRpR4mupUll6CyZnsMmc8h52Ox3Gs/niPXun6Pc1/af2TmjnazHhthsVXsBsLq00rh7fYjKP8A6RhRtnnz7BrDfcObgzexwbKuuQbaUJeIkufczMzzSsi2GezxGLbW8asS7gSpqXc77baiyUhguDSfiGEuvOvuKffdW44o81KWozMz7pmPW8E7Pa3SzP3+7vomMbese+f2fM+1vbThPEYp/wAH0/oq4mJ3R+GfLEN3MBcUpWJdvPO1VhLdQgOEy+aPQrzLMlFzZ8wlPbntGt2hySfOyv59sNavwRsh1XPtHzPtFpbWi4ldtWYxTE8o84iX6B7CcQv8T4DY1Opq3VzE5nvnE45qgAA4z2AAAAAAAAAACKtJj1MYn65Wd9I6cJULcIr0mPUxifrlZ30jpwlQtwCKtG77yLg90C9PpFUBKwinRu+8i4PdAvT6RVASsAAAAAAAAAAAAAAAAACKrg9dJYf6g3Z/xGgCVRhlSsmRPxat7EYpyEsUW3qxRFxjSeu4ubJpzyVke4iSUBRGXLrlzGMzABi+JNTu+i2JXqxYVKiVS4YMF2TT4UpSktyXUJ1iaM07S1ssiPnMhlA4MiMsjAfPPQx01brx4x3uqzrQwvXT2K/XlXPccue8ZlTYrVKgQTbQSS2uKfibNbkcLmMfQ0RThFo64c4LXZfd4WZANmdiBViqs8zSREyer9yby3INw3XO+5luIhKwAAAAAAAAAAAAAAAAAA4HI4VuAUyzy5Rwt1DZGalpIu6Yg3GLSKi2RPdtq3IqZdUaLJ5aj+1sGZbCPnPuDBrVtjGTGuF5+1a8HafSnlGaUNKNOvkeR6qU8nJ7w79ns/enTRq9VVFu3PSZ6z5RDwet7c6ajWzw3h1ub96M5inERGOuZnwbBz3rEi3OzeFQqEJmqxID1ObeW+kjTHdcbcWnLPlUy2fvA7ilYLCjbcumnkouThiMRlC0T7XM0rrVeqU9fLruERe9yi7I0WMLkIyVDmLPnOSojEfu/CLfKq7VV5UxHzlZHEO1N7nRprdEf8qpmfgzV29sP69Depr9bpcqNLbU06y48k0uIMsjSZHyGQultNWzSKLDodsJhx6bAYRHix4xp4NppJZJSki5CIhF8nRUw3czKOmaxnzPmeXjFgqGjFV6UfGLLvuoxXW9qEOKPVz5th/KMxo+FXeVu/NM/wDKnl74lGri3aTSRuv6OmuP+NXP2RLYclEv0KhzmajGorONOKmE1wqtu9DRU0M6qlEsyNakHuUlZb9xjZSwr5pGIFvtV+kOmptZ6q0n6JCy3pMU8S4HqeHUU3qsVW6ulUc4ludn+2Wg49dq0tGaL1Od1FUYmMdfPDKQHBDkcd64AAAAAAAAAAAAAAAAARBhv64TF/8AN7d+ZkiXxEGG/rhMX/ze3fmZICQqp1wV4CfrFMtwqVTrgrwE/WKZbhbHRXPVyAADAAAA4jen2PDEdaTnWrD/AN0CjfK4JFjen2PDEdaTnWrD/wB0CjfK4IVJ09EzAACKQAAAAAAAAAAAAAAAAAibRhQhzBuj1FRZyKg5IlSXOVx1Ty81H3RLIirRe9Q62v8AdvfPLASqAAAANaaHSrmxJpFfxUquMNYtyXT6pJbhxo8hKKfAZYcNJIfay+2GZF1RmZbx6D0jbtiF0XPUGlSrGj1ddCdmNvq4446hKs5CUeh4MzQfU78jIBscA1Dr+kXirRrjtm/Lmo0OBaMqiVeqx4UKWa3ZOpwRNIfIyy1i1iPMthaxjwq0pcSb3KmUO2qZARXSrtOWw5HN9qFIjvtv5sOqdSR5pNGatXfqllvAblANX7l0oL1tygqh1WjW5AuOn1KZT6hwr7zsZXAER5sobI3Fa5HylknlHSTpaV52XaMiHb1Mg02vw4UpxyordRw5vr1TbZcSRoSpOeeTmWe4gG0YDWKy9LmVdmKUK126DGOi1WpyKVG4FLypTK2iUZPOq1eC4NWqe48y2ZjZ0AETXkSY2kLhzIYLUcn0iuMSFFvcQ0cRTZH3CNxZl4RiWRFV+er/AIW/o24vkggJVAAAAAAAAAB0WWW3mGh+P3qrVr/eo/wkN8F+hV3hpNiYw3J0g+LPtktt2rRULSZZkpJrQRkfvD2nYi5FjVXLs91Ez8YfIvtesTqeHWLMf7rkR7+SOnLauGPCKouUKciKZZk8bCiTlz55C1kRZZqH0ecp9NkU9NLkMMm280aSbNBZKTlkZZe+NQK1gbPLGJNmQ2XCpsp3jaXstiY2eatvOXoe+PXcI7ZW9bNyNRTs2xMxzzmI/d8w7TfZdqeD02a9FXNyK5iJ5YmJnp3zyRrCte5KhGVNp9DmyGElmbjbClJ8ZELWtDjajQ4k0qSeRkZZGRj6N0mkUqkU1mjQY7LbcZpKEtpSXUpyyLZ7w1rq2CkTEfEi6W6bVCgKgSEGtvgc0nrlnmWXeMV8M7a0aq5c+8U7aKYznnPLMRzjHrX8e+yjUcO09mdHc9JcrnE04iOeMzic92Guw7GnLcMmxIspVgXZKthc3jSoyG1cLq6pHrJI93viQKho5yqdYrt5OXChZNxClcElo9pGRHq5++PUXONaK1RarqrxFzG3lPPPTu9b5/p+y/FNTdvWbdvNVnO6Mxyx18+jOtDnrZcH5w1/hGyY1s0OetlwfnDX+EbJ/wCo+Ndq+fFr3nHyh+qvs2jHZvTx6p+cuQAB557sAAAAAAAAABFWkx6mMT9crO+kdOEqFuEV6THqYxP1ys76R04SoW4BFWjd95Fwe6Ben0iqAlYRTo3feRcHugXp9IqgJWAAAAAAAAAAAAAdHFGhtSi3kRmAwK8MYrYtSslbLMOq16ucGTq6bR4hyX2kHuNeWRIz5CMyMxauntO9hLEr9il5YoaLsVqVglat8yEk5WL5pka6atKMs3HpE1spBpNW80oJwm0luJKCIhLgCKuntO9hLEr9il5YdPad7CWJX7FLyxKoAIq6e072EsSv2KXlh09p3sJYlfsUvLEqgAirp7TvYSxK/YpeWHT2newliV+xS8sSqACKuntO9hLEr9il5YdPad7CWJX7FLyxKoAIq6e072EsSv2KXljorHtTCTdn4QYjRI6drj7tF6hBc55LM8veEsAAsVp3fb17UZqv2xUm5kN3NOsnMlIWW9C0ntSouUjLMX0RDCjN2ppKnS6Qk2Yd42lNrE6OjY2cyDLhspeJO4lrRNMlHy8GnPcJeAAAAAAABwW4dXPQK7w7FuHV37mrvGEI1/ll8/cX8umZcZ57ePL+oXDD/Gy9MPWE0+mvtyYCVaxR3izSnPfqnvIW/FzVTibcWz/rq/qGIaxmP0BpdHY1vDrVrUURVTtjlPlD8Sa7ies4XxvUanR1zTXFdXOJx39PXDZem6YqCQkqtajuv+EbDxGX8Re2dLy0lkrh6JOby3bEnmNSxzkY5tzsXwmqc7JjymXoNP8Aap2ltxj0sVecR9G1T+mDQEIPi9sznT5M1JIhiVwaXNzS0raoNFjw9Yti3VGtSfe3CAuq3bQ5duYts9juE2Z3bM+czP7tfV/ad2j1dM0Tf2x/xiIn34yudx3FV7oqr1YrU5cqW/6JauQi3EXMQ2i0RC//AAfUi/8A6s/8JDUreNtdEPPoPqWW7jn/ANpDR7ZW6LPB9luMRExiHU+ym/c1HaeLl2qaqpiqZmeczOO+U/jkcDkfGn6xAAAAAAAAAAAAAAAAAEQYb+uExf8Aze3fmZIl8RBhv64TF/8AN7d+ZkgJCqnXBXgJ+sUy3CpVOuCvAT9YpluFsdFc9XIAAMAAADiN6fY8MR1pOdasP/dAo3yuCRY3p9jwxHWk51qw/wDdAo3yuCFSdPRMwAAikAAAAAAAAAAAAAAAAAIq0XvUOtr/AHb3zyxKoirRe9Q62v8AdvfPLAZs9fdmM11NsP3TSm6urYUFUtBPmfNqZ5i9NutuEZtuJWRGZHqnnkfMNFrpcodEuKv1qBULYr7ci60uyaNVmFRrijSFSEkZR3U9UpKc808hpIx5aletWs+k1G2aViDcHHpVz1uQ425V24qmybMjQhT7hHq5ZkZNkWas9gDZS59HfCmoV6dX6rUarAi1KUibUqU1VDZp8x7WLJTrO49ZWWe0szHsRo24bIucrkbbqRR+NKnlRymH528ZUk0m9wGWWtkZ8uW0xrLT70r1dfp1+VC8pMqq1W1KMs4Knicjrc88ibcUlvLI1EW0z5zzEo4PXnUbgv2n1SuYs1A7gqMudHnWkpJKYjNNGRIIkEWbRp2dWfoswGa0zRmwgTVZBlKq1S4nHkQEU+RVFOsQWZBJNTaG/wAAtiTLlIWYsGsAqml6yV4k1GbV+OsPtqO5SVUIzkcjJtDZkeaCSSj2Zcu0ZlholRYs4pKNJkSqhAyPLf8A1Nsa1vyMITw8uyBwFLdxCcvKSVNREQXnmUjjxapkaerJJJzM89mrmA2CkaLOG0iFT2ETbhYlwVyVrqLNTUmXL4wZG8TzmWayXkWe4UW9FLDduNTac3U7mKn05DDZwjqqlMSUsrJbROpMuq1TIubcQiquYk4s0+vV3ClNbnoqVsw6lcsmeSNpwTimqI1nlkfVqUR91oeGt3pf+F9Nns1bEmv1Xz8tOnVRUlwkEqLLelG0rgjMtVpBpIiMz2JzMwGwFv4BWLbN2JuulPVdHAvuyo9NOco4Md5z0biGdxGe3ly2mJGlSo0JlUmZIbZZRlrLcUSUlmeRZmfdMiGlGGF84kYi1ZrDcsSKnT2Ga3LZckx6i1OlKipjNLSnjCSJKurcMyURcmQ5gXPibSbfoNRrF+1SundVEOTKZmtpUyytmdHQg0Iy6kzSs8z5T2gN3CMlkSkmRke0jIRZfnq/4W/o24vkgiMMPr4qVbxEZlVvFadCrh3JLpXQpqEpk4TRLJv7Vlmk8iSrhdx55cok+/PV/wALf0bcXyQQEqgAAAAAAAAAprLqT7w0nxNkMxNILjUhaW2matFccWo9iUktBmZ+8N2V83OQ0Px+L/8ANatl/wB6n/CQ9r2HtRf1d21PfRMfGHyH7YL9Wm4ZYvU/7bkT7synDGTF2k01q3q3a1ZYkvwJqVutMuZmpo05KSfcMhnUPF/DGTTU3GquQUOcDkalnk4kt5py37+QaKapGWZH1Q4398esr7EaWuzRb3zE0558szEznE/s+Y2vtb4ja1Fy9FumYqxynOKZiMZjzbaYU4y0et1+6K1cFYZhsvyW0QmnnCLJlKciy+U+6Y81iYjW9T8XbuI31uxKkthbcppJuNkaSMsjMt2eezvGNVMsi1hmuG2J1Vw0emyKXT48o56G0LJ0z6nUNRll8IxjWdkbVFu5Xp8zNUREU5iIjEx38/DKXDPtL1F29p7etmKaaKpqmrEzMzMTmJjPTnhsdfGF+F1712RdVVrElL8hKNcmjPVySkklkWXMRDKcTI8Kl4O1OJHcMmGacTbalnkZlkRFn3dwgMtK278upt6mkffUMPvnG697+hHS6nJaYhGZKUyynVJZlu1j5RxtP2a4teu2ab84otzExmYnERjlEQ9TrO3vZzTafU16OjN27TMTMRMZmc85mZ6ZnPKEw6HPWy4Pzhr/AAjZMxrZoc9bLg/OWv8ACNk8x5jtVGOK3fOPlD6N9m87uzmnn1T85cgADz73YAAAAAAAAACKtJj1MYn65Wd9I6cJULcIr0mfUwifrlZ30jpwlQtwCKtG77yLg90C9PpFUBKwinRu+8i4PdAvT6RVASsAAAAAAAAAAACm79yc8E/kFQU3fuTngn8gCMNFb1sGEH6iUH/h7IlMRZoretgwg/USg/8AD2RKYDqpRJSaj3EWYgah4pY5XnT04kWjZ9Ck2a7Pcai05x5wqpLhNvqaVJSf3NOsSTcSg9ppyLeYnlSSURpPcZZDXyNgdjFSqZIwwoeJFOg4fvVJ2S082w4mrxYTjxvKhtr9BlrKUgl7yQfOQDMIekVh1LupVsm9UGGTlyqexVnoqkwJEuMSzfYbe3KWgmnMy/sKy3DDYel9Zk+9W4PE51Ptdu0p90PVOoRHGVPNNSYzTC2CP7ohwn1mXLmSNm0eZOjTeE4o9i1+7aa5YFKrNVrcBEdhaaktyZxkyacWfUEltUxwyUW09VOfKLPWNFfEa/qemlYg3vQXI9Ms+RalMOBDcQa85EJ5qQ8RnltOEklJTs27AGUVrSztuIdAVTqDWHXpdwpolUpLsJRVKPwsGVIjqQyXouEVHSRHnlkaj2ZC/TdJ7D2LbtLuKNDrk5FSKWbkaNAUp+EUVZNyTkJPLg+DWZEojPPmzEdUbRbxAth+DeFp1KzaTdMO4I1V4JEeU5CXGZhS4vAqUtRumpRTXVZ7k8g8906I183DDgNv3bQ5zsxNXerTMxqQmMibPkJdORHQ2ojM20pNtJLPIyPM9oCWnNIrDs7optsRF1GeVRbgucfixVORY/HEkqMTqy9DwhGWWzLbtyFaz9IHD69rwKz6M9OS/IVJRTpb8Y0RqkqOZk+Udw/Rmg0qz7hGZZkIkb0Vb7KrWhKlXHbjXnBFokd+pQ2pDM4kQUoS4yjI9Rxt1KMvthGZcIoi5BdcHtFJ3DO/6bcEh6gvwbdXPcpr7LT5znzk65EbxrUbaDShxSc0F1XLygNlQAAEU1n10to/qDcX/EaMJWEU1n10to/qDcX/ABGjCVgAAAAAAAB0d+5q7xjuOjnoFd4ZjqhX+WWjNyUiLX8fZVGmEo2J1aSy7q79VRkRjZmtYD4c1OguU1m3Y0ZzgjS280WS0Ky2Hny7RrpJ6nSUIzPdX2v8SRsZiPiOVjXBa65LyfO+ovuRZW3YkjItVXvHl/Ee/wCNXdbFWltaWuYnZExETMc4jPt5Q+E9ktNwqbfEL/EaKav82aZmqInETOOs9MTPc1Fg4cVyXiAWHxtKKWmUbKzy2Egj2r72rtG39NwKw5p1DTTV21GeMm9Vbric1qPLaefIL2m2rUjXA9iA220mc5FJpb2sWrqFtz7+WzPmFkwxxDK/HbhnpdTxKLM4tE7raU+i98zM+9kNHinHtdxWiK7czRTREbsTMZqmcO32d7IcG7O3q7Op23K701bMxE4piM/3LV+rYMXNPuasxLPphy4MCYtlJ8KRmgt5EfvDBKzQ6lb9YdodVjqbmMLJDjRntJRkRkXiMht5g7U6eV7X9TlyWyfVVCcJszIlGnVyMy59wxDEPR5uW7MQKjdMGqQ240t5pxCV7yJKEpPP4Jj03D+1Ndm/On1sxFEUxMTOczMxE/vL5/xf7PLWr0dGt4VE1V11zFVMTGIpiZjl4YQlU8J79o1EcuGpURyPBbQTilLWWxJ7j/iNhdELPoOqWqf/AFw/8JDKcb4pwsGanHcMjU1EQ2ZluMyyIYtohmZWfUfzz/7SHL4nxi7xngly5diIxXERjw5PRdn+zNjsv2usaaxVMxVbmqc4znEx3NgAAB87ffAAAAAAAAAAAAAAAAABEGG/rhMX/wA3t35mSJfEQYb+uExf/N7d+ZkgJCqnXBXgJ+sUy3CpVOuCvAT9YpluFsdFc9XIAAMAAADiN6fY8MR1pOdasP8A3QKN8rgkWN6fY8MR1pOdasP/AHQKN8rghUnT0TMAAIpAAAAAAAAAAAAAAAAACKdF4y6SFuI/CQh5Ki5j4ZewSsIYjwL1wWqU9q3bVl3PaNRkuTWo8EyOXTnFnmtCUHlroMzMyy3AJMes605NWTXn7YpTtTSZGmYuG2b5GXLrmWt/EcTLMtCoLNyoWrSJK1PcYUp2C0szd7MzNO1Xd3jBunpUfYSxJ/Y6fLDp6VH2EsSf2OnywGeNWpbDBtGzblLbNhOo1qw2y1E555J2bCz25FyirHt+gRKm7W4tDp7NQfLJ2W3GQl5wuZSyLM/fMR909Kj7CWJP7HT5YdPSo+wliT+x0+WAk1uLHadcfaZQhx4yNxaUkSlmRZFmfLsFtZtC1I1TOtR7YpLVQUZqOWiE0l4zPeeuSdbP3xgnT0qPsJYk/sdPlh09Kj7CWJP7HT5YDJqNhxRKPdFfu5x2ROqFw6rb6pRktLbCSySwgstiNp7O6Yvk2g0OoMrjz6PCkNraJhSHY6FpU2R5kgyMvQ58m4R709Kj7CWJP7HT5YdPSo+wliT+x0+WAzymWrbNFWlykW7S4K0lqpVHiNtmRZZZEaSLkIiHoOi0c0ttnSohoZTqNp4BGSE5keRFlsLMiP3hHfT0qPsJYk/sdPlh09Kj7CWJP7HT5YCQUW5b7dWVXW6FT01JadRUxMZBPmnm18tbL3xHl89VpAYXkW000y4TPuEZQsvkMDxxq7iTbj4IYim6exBOUtKE591WvsLuj0WLat1Vm73cUsQILdPn8UOBSqS24TnEIxq1lGtRbFOLPLPLYRERcgCTwAAAAAAABwA6bNyRpbpJ2hW6Rf0y4Hoy1QKgZKafSWac8izSfMZDdLumLfWKJS6/DXAq0NqSw4WSkOIJRDtcA4vVwXV/eNu6JjEx6vU8f207L09q+HfdJq21Uzmme7MRjn6nzdHJd/IbcXXonWpU1Lk2/PfprqtpN+jbz+UhG9V0Tr8iqUVNqEGYnkM828/eMfV9L2v4XqoiZr2z4Ty+PR+a+I/Zj2h0FUxTZ3x40zE/Dqg/aQbTEqP6NOKTCtXzrjuZ8qXiMhUjaMeKUgiNUCI1n2T5HkOjPaDhsRmbtPvhxI7Gceqq2xpas+Uon3bjHJEZqJKczM9xENgKJoi3A+tC63X40dH4SWmzWr3j3CXbK0drDs9xuW5FOpy28jJ6TkeR85J3Dj63trw3TUz6Kd9XhEfvPJ6fg/2Uce4hXHp6It0d8zMZ93Vj2itaFat2151Uq0Zcfz0eS4y0sslaiSy1jLkzE6FzmQ6IQltJIQRJQRZFlyCoZ8g+QcR11fEdTXqrkYmqenh3Q/T/AADg9vgXD7egtzMxRGMz3z1mXYcgA1HZAAAAAAAAAARVpMepjE/XKzvpHThKhbhFekx6mMT9crO+kdOEqFuARVo3feRcHugXp9IqgJWEU6N33kXB7oF6fSKoCVgAAAAAAAAAAAU3fuTngn8gqCm79yc8E/kARfor7NF/CI//AAJQf+HsiBoF24gW/fEW4L3uO8YLlSvA48OrsOImWxMgPzlNRouqj7ipTRtt6x7ScPM94nrRV26MGEJH+QlB/wCHsjxxdGXDyHXG6kiZXzpzFUKtM0E6io6Y3MJ3hicSxlkWTv2wk55EraAiAtJzFO0sO6XULqK13azKqVyqeWo31EqNAqLjDbTbTZGvWPVNJLPqSJCc9qhdWsdb/rN2u1OchmNac5jD+oUyPFdNEpo6tNUhxLqtykmSTJSS3pSXOYz+bop4ZTpXG0T7kirU9U1uFGqimyWzPfS/KjHkX3FTqdbVLcZq27RcqZo34c0p+mvsKq7pUuDR6e029OUpC26ZJ4xCUssuqUheZZ8qTMgHgwjxUxHxCqVNr1WtakxbNumHInUR9iUapjLba08FxhB7D4VBmstX0OWR7RfsK65VqtXsT49SqDshul3gqHCSs8yYY864DnBp5i13HFd9Rjix8CLGw+uVVy0ByrKcQ3JZhRJM5TkWntvuk48iO0exBKUkufIiyLIhl1CtOjW5KrkulsrQ7cFROqTjUvW15BsNM5lzFqMNll3D5wGqtElX1bmE9Ox5axZuKXVl3W7EkUuoyUvQZUZdcXE4uhvIjQrgtUkmR5kZEMyuPSqrNHpNQjxLWjPXDb7FzzK3CU8ZJix6Wk+CXn/3xvQjLP8ABdUfIMwt7Rbwyt6rRKolyvz49PqTtXh0yfU1vQY0xbynuFQyZEWZOLUpOeeRmKFF0f6bULnxVue94cRTmJLaaQ63BWpJppjbJtEZqPc6sj6oy2dQ3zAMZqWkPiLakK66bfFuW9Tq9S4dGqUBKZa1R0sVB91kkOmRGpTjSmVmZII9fYSdot1saTmI9+QIFMsu1aJLrS5VZiS5L7rrMRJQWo7nCpSoic1V8YQnIyzIzz3CWL7wFsPEGdMqtZRUGKhLbprZS4ko2nWTgPuPxltnkeqpLjqzz5cxSsTR+sPD6pyKxR3qvJmSVSluuzpynzUuShlD69peiXxdszPnIwETU3SOvuu02lO3VbcWkNXNS6NclI87phm81FfnxGFtvqMsjM+MJV1Ow05lvEgYc4rYg3xcUOrKteltWTV6jUqbCfRKPjrSoi3m+GcQew0uLYUREnaWZGYyBOAuHZMUSN53StS36TEosH+sHmmLGfYeaSfOZLjNGZ8uR8462zgPYto3gu9KSurE6mRKlxYDk5SoMN+SZm+4yzuSpZqWZ7/Rqy3gPHWfXS2j+oNxf8RowlYRTWfXS2j+oNxf8RowlYAAAAAAAAdHfuau8Y7jo5tQoi5hmOqFf5ZaA4qS5ELFSvTIjy2X2agpbbiDyUlRZZGRjHarclfryW01mryphMnm2Tzhq1T7gyPGiHKhYnV9uSwto3JSnE6xZayTIjIy7gwsjVyD9CcLtWrujs3JiJmKYxPsjvfh3j96/Y4lqbMVTETXOYzMR174XhV43Yun+darinHF1dXgeHVq5c3eFKk3RcdDZXHpFalw21q1lJZcNJGfOLX1JBnmeZjd+6afE07IxPqhy/8AEtXuiv0lWYjETmcxHhHPolLCa+bHoEipVO/Y0qZPkuIWw+kla5ERHrZmR8p5eISirH/CM06qoNUWkvwTJWR/xGrh8wGZjh6zsxpNdem9cqqzPdE4iMcuUdz1nC+3/E+EaanTWYpmIzzmImZzOec9/VN+L2kO3fFBXa1vUpyJDdNPCuuqLWUlJ5kki5C2CRtELPoPqOXbp/4SGpRb9u0bd6JkKVGsmZJfYWhqTLNTalFlrkScsyHB7UcO0vCeDTp9PGImqJ9cy9n9nvGtf2i7V06zWzumKZjlGIiMco5dE9AAD5O/TQAAAAAAAAAAAAAAAAAiDDf1wmL/AOb278zJEviIMN/XCYv/AJvbvzMkBIVU64K8BP1imW4VKp1wV4CfrFMtwtjornq5AABgAAAcRvT7HhiOtJzrVh/7oFG+VwSLG9PseGI60nOtWH/ugUb5XBCpOnomYAARSAAAAcDkAFMjy2GOTyy2mOPQmMQxJxNtrC+hqrdwySQjc00R9W4rmIhZY093V3abNmmaqquURHWVF+/b01ubt2cUx1mWYZZbeQcZ5luGlFc07rlOcrzgtmKmKSup4dRmoy94SVhBpf2/fVRZt+6IhUqc+ZJac1vtS1c2fIPUavsPxvRaedRcs/hjnOJiZj2Q8/p+1vC9VeizRc5zyjMYifa2P/8AKOR50zYp5ZSW9u7qiHoSZKLMh5WaZjq9JTXTX0cgACKYAAAAAAAAAAAAAAAAAAAAAAAAAAKa1pbQpazySkjUZ8xEMIi414XTsO5eK8W86e7akAnDk1Ql/am+DXqLz5cyVsy5xmNQJSoElKczM2VkRFynqmPnXTsMLvj4OOYJMWjU+hy6LekXjNI2FcG2+1FcJcMy3k45KJt4i5doD6IU6qU+rU+PVafJQ9FlNpdadSexSVFmR+IYTRsecKK/dKbNpV3MPVR1xbTKODWlt5aM9ZLbhlqLMsj2EZ7jGv8AQIt8wcR6Dg9FVUzpdVjwrzcPXNKY7DEbglwjPenXkpSvLdlmQxe0FTYlStSzsPp9deWmqOtyLQrlHNaqBm06lTzczVLLUUoiI8zzJQDZ9WkXg4i5itNV5xuPKk8TJeovgDfzy4PhstTWz2ZZ79gzqkV2k1zjSqTMbklDkuRHzR+A82eqtJ90jLIaR3FinQ7Y0d4GAUzDitt3WtlNImNppa1Ip8tLrZJmrcJORo1lG4ThHnsEyYR4oWvY9YrOHlyLqaKzMuSUbOVOfU26TruaF8ISdXIyMjzzASff2NGGuGVRi0u8rkTBmTWFSWWCYcdWppJ5GvJCTyLPZmYyWgXLb9z0aLcNAq8WbTpqSWxIacI0LLuH9QhbE69rfw7x/plyXZDnHTZFpritvMQHJKTdKSpRoPUSeRmRlvEA3lEuCn2jSIb1qTaNAuKp3JXaZGkolJZjk/JJcVlTMbqifNKyUhJmSU5qzAw3vTVaYqovUlE9hUyO0h91gllrobUZklRlyEZpVt7hilNuCjU6VBhTKgy09UlrbipNX3VSU6yiI+4W0aIuSpUWjyrxnUq4JNwXFYFtMTJOrJbzUia43KU4aS1iJJcHrpSWsaTPLeZijbE+lPU2nU/EtNaXa1MveRwXndFnJZbhvU4jbMjWXDcApZr2nymW4B9AzdaTq6ziC1vQ5qLb3hzwjevweunXyz1c9uXeHzjxAqOIp2i3TmItbQuJQqjPtOTUCmrecaOZJOIlpLRbJCGEMmZu8ik7N4zxdYuKTjnAuCjSqrVKpUHoxRWHmpcd+MyqnltTs4ByNr9UolZK1z7gDeBDjazNKVpUad5EeeQqDSnRIaxGcxLgSK3WXlOooMgrpjnHmazlQNxrg1Pqe+1k6nJ4iJvYZGfMQ3WAAAAAAAAAAARVpMepjE/XKzvpHThKhbhFekx6mMT9crO+kdOEqFuARVo3feRcHugXp9IqgJWEU6N33kXB7oF6fSKoCVgAAAAAAAAAcbCIByOqkkpJpPlLIc6xc45AQXhTd9Gwat+n4KYjTEUZ61GSp1GnSeoi1CltdTFWh0+pJaWiQhaTMjJST5DEh9OPCf2SLa/abPlDIqpRqPW2OK1qkw57BHnwcphLqc+8ojIWjpZ4c+x/bf7KY8gB5OnHhP7JFtftNnyg6ceE/skW1+02fKHr6WeHPsf23+ymPIDpZ4c+x/bf7KY8gB5OnHhP7JFtftNnyg6ceE/skW1+02fKHr6WeHPsf23+ymPIDpZ4c+x/bf7KY8gB5OnHhP7JFtftNnyg6ceE/skW1+02fKHr6WeHPsf23+ymPIDpZ4c+x/bf7KY8gB5OnHhP7JFtftNnyg6ceE/skW1+02fKHr6WeHPsf23+ymPIDpZ4c+x/bf7KY8gB5OnHhP7JFtftNnyhRkY0YURmVPrxGt9SUFmZNz21qPvJSZmfvC49LPDn2P7b/ZTHkDlnDrD+O6l6PYtvNOIPNK0UthKiPuGSQGDWDxzEXE6TjAcJ+JQYNGcoFAOQ2aHZiHn2npMjVPals1R2Eoz2nqqPmEvDolKUJJKUkSSLIiIthEO4AAAAAA4MyIszAcgKXCtanC8InU7LPZ4xVAR7iXg7a+JTJLqTJszm0mlqU0WS09w+chrjdOi3f1GcW7R+BqkcvQ6itVw//KY3HTJZcUbbb6FKR6IkmRmQFKjKdOOT7RulvQSy1i94d7hnaXX8Kpi3aqzR4Tzj2d7w/aH7P+Ddoq5u6iiabk/7qeUz590vnvUMOL6pSzRPtWooJJ5HkwavkFqct+uNnqro8xJ78jYUX1D6PqaacLahJl3sx5nYtKQZcO1G1j3a5JI/4j09v7Qr0R/mWonymfo+f3/sQ001ZsaiqI9cRP7w+dzFq3NJMij2/UHNbdqx1H9Qyei4H4l1xxKI1svtIV/0j5aiS7+Y3wahxWyyQw2XNkkhWJCE7SbIhXe+0HU1RizbiPOZn6L9J9iWhoqidRfqqjwiIj482tNh6JyWXmpt71EniSZKOKxsSfcUrm7w2KpdLgUSA1TaZFQxHZSSW20FkSSHrLVLItncIdj5x5DiPGNZxWvdqK846R0iPY+ncB7LcM7N25t6C3tmetU85nzl3AAHNejAAAAAAAAAAAAAAAAAEQYb+uExf/N7d+ZkiXxEGG/rhMX/AM3t35mSAkKqdcFeAn6xTLcKlU64K8BP1imW4Wx0Vz1cgAAwAAAOI3p9jwxHWk51qw/90CjfK4JFjen2PDEdaTnWrD/3QKN8rghUnT0TMAAIpAAAAAAApHkRZmY+fGmHecu4MT3qNxk1Q6Ukm20ErNOtyn3xtJpR4lVHDfDpb9JcNE6pOcVacLegsuqMu7kPnTPqE2qS3Z9QkuPyHlGpbi1ZqUffH2H7Luz9dy7PF7uNsZppjvzyzP7PmHb7jNNNEcPt5zymry8HnHdl52O6h9hxSHGzJSVJPIyMuUdAH3Oad/4ZfJoq284ZAq/72VLRNVdNT4ZGWqrjKtmXczyG22ihpDVe65SrIvOcT8lCNaJJWeSlkX4J85jSkeqnVKfSJjdQpst2NIZUSkONqNJkY8vx/srouM6KrTxRFNWPw1Y5xP0eg4Nx7VcN1NN6apmO+M9YfXkjJW3PYBZbc+URDow4jz8RsOGJ1WXwk2Es4zznZmW4xLpbh+XdfobvDtTXpb35qJmJffdFq6Ndp6L9HSqMwqAADVbYAAAAAAAAAAAAAAAAAAAAAAAAAAMdp1lW3TbpqV6xaeRVmrNNMSZSlmpRttl1KCI9iSLMzyLlMxfySklGoklme88to7gApLaacIyW2lRKLI8yI8y5hUIiIsiLIiHIAA4MiPeRHkOQAddVJlkZFkGqnLLVLI+4OwAODSR5Zlu3DjVTnnkWe7PIdgAdSIizMiIs947AAAAAAAAAAAACKtJj1MYn65Wd9I6cJULcIr0mPUxifrlZ30jpwlQtwCKtG77yLg90C9PpFUBKwinRu+8i4PdAvT6RVASsAAAAA4HIAPDUqlDpMB+p1B9LUaK2p11xR5ElKSzMxo/i3pkXZWapIpuH7pU6mNKNCZOrm67l+EXMQm/TBviFQMLJtDYqjbVSqjjTSWCX1amtbqzy5tg+fA+xfZv2T02vtVcQ11G7nimJjly6zjv9T5f237RajS3qdFpK9vLNUx1593qSxb2k/jHQZ6Jjl1SKgglZqZlZLSoubuDb7CzSesa9LVVV7jqcWjzYpkiU085kWZl6JPOR5GPnSOSUZFkRmRGPecc7BcL4xREUURaqj/dTERy8JjpLyPCu12v4ZXM1VTXTPdVMz7cvq1bWJNjXk4bNtXLCnOJ3obdLW8W8ZOW0fI+gXDWLYqkes0Oe9ElRlktC21GR5l8pD6TYH4uUnFGzoE9E9hVVbZSmdHJXVocLYZ5cx7x8f7X9h7nZymm/Zqmu3PKcxzifXjlifF9K7NdrKON1VWb1MUVxzjnymPVnvScAAPAvaAAAAAAAAAAAAAAAAAAAAAsN8KWmza4ttakLKnSDSpJ5GR8Ge0jF+HnlRWJsZ2JKaS6y8g23EK3KSZZGRgPm0u6r2PRHgYBru+pef8KkM3K9UyeVxo6HxNM5Lil555Kf1o2eeeWQ2RZxtvZdyOYSSp0WJV4c5yXKlk3rGzbxQSeRJNPObpKZz5yzE1nhLhsbamjsul6qqOm31fadp01OWrGz38GWRbBbbdwngUrEu4sTKrKZnzqxAYo8RviyUFDp7Zmo2c969ZaszM+YiAao2c5WMNV2pXH6Zw9TrMGYmn3TRa0qUzX3VQ3HELkxlmaka2WvsLqVERbhc6nGwztjBuycSbXvF97FCstQKjEmeea1yKpOcU2UhhTZq1TSanFINGRZFs5Bs7bOBOElnVzoitqx4EKoFwmo6nXUTWvnr8GlRmlGeZ+hIt4tUnRgwHlVxNxrw3piak3JKYzIRrpNh8lkvhGyI9VCtYiPqSIBVwMrbMi1ZrM6qocl9ENXbJtx4jcyKY6SU5Gee7LIhgN9WTYV+aQVciYhPr4pTrSjPRc6g5HSwtT7ms4kkqItbIi2iUImBeE0C6ujaHZUNmt8aObxtDjhK4czzNerrauZnt3CreWCuFuINXbr142ZCqlQaZKOmQ6ayVwRHnqHqqLMs9uRgNWDx9xHtvDqgRLdumbPcgxaxO4QqcmXIlwY05TUZx5azSlLRt6pG4W09hlvF7kYw4lU2ZdVyFe6UKrsC1VUmnNwCkKiuzUuG4lhGZa69hkWsZEZmWe4bFXHghhTdvncdwWNTZXnTHOJDTqGhLTB5fa9VJkRo2F1J5lsHlnYAYOVGNxSbYVPcb4pHgkWayMmWFazKSMlZlqHtI95c4DXy2sTMUcTZVqmzeca3KvCqdcpT8udFQlb6GIyVpNTBK1CczVtLM8iIxZ7i0t8TEUaNXqW8SnqJCQ9VYkOmk7HdXxt5gnHnlKI2m3EsmtGqRntMbISNGnA2TCapzmHNN4uxJVLaSlTiTQ8pBIUsjJWeZpLI+flHqq2j9g1XXmHaph5S3jjQ0U9stVSU8XRnqoNJGRKIszyzzMszAQrVdIHEu3MS6158vN+cTTsqPTYaIRLjSSbjcIjVkpMzJ7XzzQostUhedGnGrFLEK6G6XetLlHAqdvorrUh+CiLxZ1Smy4FsiUZuN5LPJZ5Hs7olinYG4UUy4DuiHZMFupmjUN4zWovQE2Z6pnq5mgiLPLPIXCzMKMPcO5EqXZlrRKW9NIifca1jUpJHmSSNRnqpz/BLIgGYAAAAAAAAAAAAAAAAAIgw39cJi/+b278zJEviIMN/XCYv/m9u/MyQEhVTrgrwE/WKZbhUqnXBXgJ+sUy3C2OiuerkAAGAAABxG9PseGI60nOtWH/ALoFG+VwSLG9PseGI60nOtWH/ugUb5XBCpOnomYAARSAAAAcDkcAIi0kcL5OKFgO0+mFnUIa+Mxk9keW1Pvj511m2K/b85ynVekyYz7SjSpK2zIfW7VLmHglW/RJy+Em0eG+vsnGEKPxmQ952V7d3+zdmdNVb30ZzHPExM9e6eTxnaHsja43ei/TXtrxieWYl8keKSf9g78Aw4pJ/wBg78Ax9aOhG1vycpvxZv8A0DoRtb8nKb8Wb/0Hrv8A3e//AFv/AOv6POf+28/zo939XyX4rJ7Vd+AYuNDta4bjnt02j0iVKedUSUpQ2Z7+cfVXoQtXkt2nfFm/9B6IdBotPXwkGkxGV9k2wlJ+MiFdz7XKqqJijT8+7M8vknR9nGKo33uXqhHejnhnJwxw9j0iokRTZCuMSEl+Co+T3hKZDncWwCy8Q+Q63W3eIamvU3pzVXMzL6To9LRobFFi30pjEO4AA120AAAAAAAAAAAAAAAAAAAAAAAAAAAAAAAAAAAAAAAAAAAAAAAAAAAAAAAACKtJj1MYn65Wd9I6cJULcIr0mPUxifrlZ30jpwlQtwCKtG77yLg90C9PpFUBKwinRu+8i4PdAvT6RVASsAAAAA6OHqtqMuQh3HVRayTIIRq508nyqxYvKsX1f1YrlYkuLUuU4hptR7Gm0qMkpIuTIiGIDZjSH0X7ppd0zrpsmmuVCl1B1T6mWSzXHWo81FlylnnkIS6VWI5f/oyq/Flf6D9Vdn+OcKu8PteguU0xFMRjMRMYjpMPzzxjhfELesuRdoqmczOcTOfXligDK+lTiN+RdW+LK/0DpU4jfkXVviyv9B2/8X0H82n/AMo+rlf4dq/5dXuligz7BC8qtZmJdDqFLfcST0tuM82k9jja1EkyMuXeLaWFOI5nl0GVb4sr/QTvo36MN0v3RDvG9qcuBT6esnmY7pZOPOFtTs5CIxwe0fHOFW+G3vTXKZiaZjGYmZzHSIdbgnC+IV6636OiqMTE5xMY59ct4UHmhJnykOw6pLJJFzDsPyw/QtP5QAAEgAAAAAAAAAAAAAAAAAAAAAAAAAAAAAAAAAAAAAAAAAAAAAAAAAAAAAAAABEGG/rhMX/ze3fmZIl8RBhv64TF/wDN7d+ZkgJCqnXBXgJ+sUy3CpVOuCvAT9YpluFsdFc9XIAAMAAADiN6fY8MR1pOdasP/dAo3yuCRY3p9jwxHWk51qw/90CjfK4IVJ09EzAACKQAAAAAxS+8S7Mw4gx514VdMNEtw2o6CbU446oizMkoSRqPIt+wBlYCw2jeNt31RWa/a9VbnwXjNKXEZlkot6TI9pGXKRi8m+ykyJTyCM9xGogFUBRN9gkcKbzepu1tYsvGPLV6xTKFTXqxVZaI8NgiNx1R9SkjMiL+JkAuACgiQythMlLieCUklEozyLI+UdjeZJJLN1BJPcesWRgKoC3NVimPVCTTG5KeMQ0oW8kyMiSSizSee7cPclSVpJSFEoj3GR5kA7gAAAAAAAAAAAAAAAAAAAAAAAAAAAAAAAAAAAAAAAAAAAAAAAAAAAAAAAAAAAirSY9TGJ+uVnfSOnCVC3CK9Jj1MYn65Wd9I6cJULcAirRu+8i4PdAvT6RVASsIp0bvvIuD3QL0+kVQErAAAAAAAA4yI95DrwTfYJ8Q7jgyzDKM0xU6cG12BeINRvsC8Q75kGZBljZT4OvBN9gnxDtkRFsICLIchlmKYpAAASAAAAAAAAAAAAAAAAAAAAAAAAAAAAAAAAAAAAAAAAAAAAAAAAAAAAAAAAAAAABEGG/rhMX/AM3t35mSJfEQYb+uExf/ADe3fmZICQqp1wV4CfrFMtwqVTrgrwE/WKZbhbHRXPVyAADAAAA4jen2PDEdaTnWrD/3QKN8rgkWN6fY8MR1pOdasP8A3QKN8rghUnT0TMAAIpADDroxHpVsXHTrckNGt2XHenSHNYiREitF1Tqz5s9gxtrSZwNkPpjNYg09TinkMkRErevYk93oTM8tbd3QEqjX3SbZpbVYtOs1SZcFBOAt84tx0pjjJQXVERG26zkeslZFvEkHjRhkV1Kss7uhFVk5kbOZ5a2Werr5autlt1c8xal4/YaVBmos27ckCqzae2h1cfhNRKkm4SDMlqLVPIz5OXYAgGz8Rq/ZlPjXNdkKpPUiQursRajAo7jB1FRlm084wgupWvkPIszFuese475oVcuqouXYxNiRaIdLbQ+80pvhDRwxknlVqqMlcw2EpukthNMhVmdLrhwW6HVF0l8nmV5rfQRGfBpIs1lke8iFzrGPGGNKhRHWrrgSJNTiKmU5hLuRyUER7SPkLNJkZnu5QGt9XofQfcSrcvFq5iwzi1uZwyGlyHOrNpJtayk5rNGtrZZbMxJ1JZuNWipN892Km84lk3YrclClyjiJkJUjWL0Rq1C3bxIicdMMkVOn29U7phR6vUOCSUTWNeo4tJKSk1EWRZkezPePZScZ8Mq5dJ2XSLvhSKxrLQmMgzzWaPRap5ZKy5cjAQpiHi1aWIlr0GnwVXCq3afOY6JiYgyWHOL6hkkj6klGjWLqtXbuEZvTmafCVJvl+7G8OEFVnraQ2p/jBGSj4A1EX2zIkZamt7428rWLWHtBuyPY1WuaMxWZWqTcZRGe1RZpJRkWSTPkIzLMR9iNe+j5eSKo3Xq03UJtrQZUhbUV5xpa2kJzdbSpORLI8sjIs8swEB28/c1Qs2gzrucuV6z3k0xdYWjhTfXH4A8tY09UadbLXy255DavAoqcWHkQ6K3WW6YbrpwU1bW4cmNY9T0XVauW7PbkMMwY0lsLrugQ7ZhtecL7EaIlqE4SjQkn0mbSCXlkZ5EJDPGHDQoZVErxp5xzXIb4QnMy1mDInS76TMiPvgM2ARy1j9hG5brt1KvWE3TWZBRHHXSUg0vGRmlBpMtbMyLMtm3kHoj404cVCu9CtIueJKrTjRrYiaxp4VermTesZZEr+znmXMAz4Bjli3hCvq3WK/CYcjmtS2nmHPRsuoM0qQrukZDIwAAAAAAAAAAAAAAAAAAAAAAAAAAAAAAAAAAAAAAAAAAAAAAAAAAAAABFWkx6mMT9crO+kdOEqFuEV6THqYxP1ys76R04SoW4BFWjd95Fwe6Ben0iqAlYRTo3feRcHugXp9IqgJWAAAAARBB0krOqNyJo8ai19VLcrS7earxQjOnrnoeNg2icI8/uyVN5mWWsW8S+NM2rEv6FekVNp4f3bbNzKu9qZVHIsgnLYlxOPcJIk6izPJTjJrURERGTplzANunK5Ro8dMt2pxUMLS4tLhupJJpbIzWeee5JEefNkLe1ftkPvtxmLtpDjr0k4baEzGzUt8v+jIs9qu5vGqdzW/i9ctnSMMouF1ejvUWhXrGVUlmko8qRJZfbhIZVnmrhCdI89mqZZC+3ro4NxKjeUmzLAbbPzotBNFcZLJSZcae+qWtvbscJkmdZe9RERGZgNmmbotx+tO22xXYDlVZRwjkJMhJvITzmjPMiFNu6KW5d0qzEG754xKcxVHC1eo4F1x1tGR8+syvZ3hrNZeHl3sX5blIlYc1CHcFEvur3BV7vWRExNpjy5imkJdz1nNdD8dvgjLJGofYiSb1rl02FjRJuunYbXFc9PqlsQqeTtJZS4TLzMqStSV5mWWaXkmXvgJUcum22a43bT1dgIqzqOERCVIST6k85IzzyHiqF+2rAaqerWokuVSWXXZEOO+hb5cGg1qTqZ562qW4ayVWxbxr1zzofSuqzNzV2+aTdES6nUESIFLbciurZW4R5oUhpl1g2i2KM8/whGESkyq9ULQsC3bEkKuqFQLyaq1eZeSpNXlKgvMGpKiVmvhH3UKzURahkSdgDfNm77adqcehHXISKpKYTIbgrfSUg0GWeepnmL2NWbPsOuUfElcO4MJZ1TrEq62K2zdhqJLMWnpitpSjhM9YjQSFNcDlkoz1j3jaYAAAAAAAAAAAAAAAAAAAAAAAAAAAAAAAAAAAAAAAAAAAAAAAAAAAAAAAAAAAAAEQYb+uExf8Aze3fmZIl8RBhv64TF/8AN7d+ZkgJCqnXBXgJ+sUy3CpVOuCvAT9YpluFsdFc9XIAAMAAADiN6fY8MR1pOdasP/dAo3yuCRY3p9jwxHWk51qw/wDdAo3yuCFSdPRMwAAikg/Fi1qpPxKRIjsLdYuS1JtvtLMvtbUgzNadc/wSMlZZiyVvR3qkm2ZtNptJo7Ux626fSWnCJKcnWXEKXty3dSeRjYg0pVlrJI8tpZluHcBqw3gXigaY1hOUGjlR4tdOvdEHGknIc6lWTRt5a2sZqyNWeWRD13Zo33PNty16Rb0Olxl0mE8xLJKyQS1rfbcLbl1XoVH3xs4ADWCRhBivbd6uXpQ7Uo9aTArU6bGhOzUN8ZalNpLWzMskKQactu8jHW1NGy76a5OnVaJSDkzbTmU1CUKJSY0x95xeogzLYgiWRZkNoQAa4zdHqvvWRXKU1GpzdXqUimOIlEotckR0oJXVZZkZEk8hGWEHRLJxXw6stFtUxcK0Dqxv1aPnw7hKMiSbiTSRozPPee0yzG7Y87cOIy8uQ1FaQ656NaUESld895gNbsWsF8RrixYXctm0hmK1PXE4aqIqSUo1GyyVw8ZST4RRFmSVJMstgtVNwIxVm0qnWTWLdocODbMGqsxqs1JSpypOSW1IQRoIs0FmeatYbXAA1pruBF/yqFcFIo0emxJkug00qXUCdTnHqcVBJIjTl6HZ6LmMYbStE3Ey1oNxx6DUaWbL9IZ86oxmWaai6tK57msrMk65kZJPk2GNyAAadWRo2YntV/jly0VjiD1y0yuOJqFWROdJDEZbS0KPVIlGSjSZbMvEPZS9Gq7aPiudeqTDztAg3JIuZM/z5yZSlRKMkFFJOtrlrGRnnlsG3I6mRKIyMiMj2GRgIxwBpdRi2hUKtUYr0Q69WZtVajukaVtNOumpKTLk2CUB1IiSRERERFuIh2AAAAAAAAAAAAAAAAAAAAAAAAAAAAAAAAAAAAAAAAAAAAAAAAAAAAAAEVaTHqYxP1ys76R04SoW4RXpMepjE/XKzvpHThKhbgEVaN33kXB7oF6fSKoCVFKJCTUo8iIszMRXo3feRcHugXp9IqgJReZS+y4wv0LiTQeXMZZAINY0pbcp9r0W5LjpNQWu6Ys+t0WJTYypDq6PHdbIpCyLd9qeadUXISst5D3U/SswyqNLqlUQmrtFAYp8qKy7CUl2pMznFNxFxk73CccQpBbtqTzyFmwuwYrsS3bYhVZwoMmy7QrFgEhxGfGELdjJZlpPsFNxELy3/bMuQc3Jo3VufUoFx0O6Ykaq0OhW7ApnCsKUyUulyJLmu4Rb23EylIyLaW/kIBfnNJ+wGqbGfVT66dVk1N+i+chQVHPbntRuMmwpvkUbJkstuRkZbRYLk0raJSaSm6aBSJlep0hq21NQ4rCiltHU6nIhLU4R7C1FMKSSd+ug0nvIXexcELipd4t4kXjXadLuCZXJVZqCIbKkx0muntQWm2dbaWq0ykzM9pmpQxeLouXDSqHW4tKu6AdQnKpEiG48ws2234NxTawnXItppVxpDezb1BnykAz6BpEWHPusrXQipobdmyqZGqi4plCkzo6Vm9Gbd3G4ngnSMt2aFER7BjlL0sbAq1NK9mHpUe00W/OrpyJMNxD0hiOuGRvMkfomi43qme81Fs2EPFSNHq94tTptv1G7aW7ZNBuOo3RTmW46ynLkylSVpZdUfU8G25LcMjLaZJSR8oqNaMs1uybNtN244yztewDst1ZsGaJCzdp6zeIuROUFRZH2ZcwC/o0m7CVBluLp1dbqkepNUtqjLgqKdKddZW80bTX4SVtNuLJW7JCs8shkFCxtsKu4X1TF5ic/Ht2jJqC5zshlSFscSWtEglIPaRpU0ssu4Ipxvw1um3sSI+OVpSlPVJNRpiI7JQlyGYzbUOew8p9KOq1FJl7DTtJRJ5DMXjA3D6+ZejdWLZvBxmFcV2zLinrXJhkbaOPzpLrSnGD5DQ6hRoPnMgF/jaS1lPW8msHRrganPVBulxaOuCfHZT62VPIJpBHkojaSpeZHkRJPPIRbd2kXZ1jV2k3PhjheUxupUK4q5XH2qeaJTBU5SEuxjIvubhyHE6+ezYR7cyMe62tGDEe1pEW6qJc1v0+uUartVClUxpEhylNt8UkRn0mSzNxKnEyTVsPIjaRlvMZJT9Gyrpp76qvdEZ6p1ah3XBqjrTBpbVMrUiM6a2y5G2+L6pEe0yyPfmAyRrSWw4jRKUuuuzKRLqlYpdAbiS2TQ6mbPjpfYQZc2qoyM9xGlRcg81e0pMN7fY49IZrD0FpUtUyYzDM2YbEeU7GcfcVyN8Iy5kZZ5kWe4YhfeifVsQKqm5KteMeJU1WOdCUUZlXAs1xsjKLVGiPaSmiceIuXJRcwx3EXQtuG7aPHtqBd1Nep6bOjW2a6kh5TkWU3wynZjSWzJKlvLdI16+foCyAS1WdJrDWh1u5KFKXUlu2s8xDnOtxFG1xt/gOAjIVuU65xlvVSXdzyHWn4+0itFb9Uo0daaZLuDoXrbUtJtS6XUHW0qjpWjd1S1tJMv++QZbMxi9y6MlUuqzLuo9WrlNdqlxXXTbua+1OFFTIixYTXAuZGSzQpUNW0jzJKy5SFvouAtatalW7ZTVPpprrN9RburcimNrRFhswSadaQRuGa1qUuNHRmZ59WrkSA2XAAAAAAAAAAAAAAAAAAAAAAAAAAAAAAAAAAAAAAAAAAAAAAAAAAAAAAAAARBhv64TF/83t35mSJfEQYb+uExf8Aze3fmZICQqp1wV4CfrFMtwqVTrgrwE/WKZbhbHRXPVyAADAAAA4jen2PDEdaTnWrD/3QKN8rgkWN6fY8MR1pOdasP/dAo3yuCFSdPRMwAAikAAAAAAAAAAAAAAAAAAAAAAAAAAAAAAAAAAAAAAAAAAAAAAAAAAAAAAAAAAAAAAAAAAAAAAAAAAAAAAAAirSY9TGJ+uVnfSOnCVC3CK9Jj1MYn65Wd9I6cJULcAirRu+8i4PdAvT6RVASsIp0bvvIuD3QL0+kVQErAAAAAAAAAAAAAAAAAAAAAAAAAAAAAAAAAAAAAAAAAAAAAAAAAAAAAAAAAAAAAAAAAAAAAAAAAAAAAAAAAAiDDf1wmL/5vbvzMkS+Igw39cJi/wDm9u/MyQEhVTrgrwE/WKZbhUqnXBXgJ+sUy3C2OiuerkAAGAAABxG9PseGI60nOtWH/ugUb5XBIsXrgx4QxjG/Du4cR7eo0O1arAgVOiV+FXGHJza1srNg1HqKJG3brCFSdPRJACKeI6Tv48w8+LSw4jpO/jzDz4tLEUkrAIp4jpO/jzDz4tLDiOk7+PMPPi0sBKwCKeI6Tv48w8+LSw4jpO/jzDz4tLASsAiniOk7+PMPPi0sOI6Tv48w8+LSwErAIp4jpO/jzDz4tLDiOk7+PMPPi0sBKwCKeI6Tv48w8+LSw4jpO/jzDz4tLASsAiniOk7+PMPPi0sOI6Tv48w8+LSwErAIp4jpO/jzDz4tLDiOk7+PMPPi0sBKwCKeI6Tv48w8+LSw4jpO/jzDz4tLASsAiniOk7+PMPPi0sOI6Tv48w8+LSwErAIp4jpO/jzDz4tLDiOk7+PMPPi0sBKwCKeI6Tv48w8+LSw4jpO/jzDz4tLASsAiniOk7+PMPPi0sOI6Tv48w8+LSwErAIp4jpO/jzDz4tLDiOk7+PMPPi0sBKwCKeI6Tv48w8+LSw4jpO/jzDz4tLASsAiniOk7+PMPPi0sOI6Tv48w8+LSwErAIp4jpO/jzDz4tLDiOk7+PMPPi0sBKwCKeI6Tv48w8+LSw4jpO/jzDz4tLASsAiniOk7+PMPPi0sOI6Tv48w8+LSwErAIp4jpO/jzDz4tLDiOk7+PMPPi0sBKwCKeI6Tv48w8+LSw4jpO/jzDz4tLASsAiniOk7+PMPPi0sOI6Tv48w8+LSwErAIp4jpO/jzDz4tLDiOk7+PMPPi0sBKwCKeI6Tv48w8+LSw4jpO/jzDz4tLASsAiniOk7+PMPPi0sOI6Tv48w8+LSwHOkx6mMT9crO+kdOEqFuEHXXh9j3fsKn0C6bjslmlM1yj1aScKNJ4dSYNRjzNRGtsI1HHJOZ9kJyARTo3feRcHugXp9IqgJWGu9mr0icNWrgtumYLU2uQJF1XBWIc/omYYN6POqkmW1m2pOaTJD6SMj5SMZF0xNJf2utO/e6N5ICZgEM9MTSX9rrTv3ujeSHTE0l/a60797o3kgJmAQz0xNJf2utO/e6N5IdMTSX9rrTv3ujeSAmYBDPTE0l/a60797o3kh0xNJf2utO/e6N5ICZgEM9MTSX9rrTv3ujeSHTE0l/a60797o3kgJmAQz0xNJf2utO/e6N5IdMTSX9rrTv3ujeSAmYBDPTE0l/a60797o3kh0xNJf2utO/e6N5ICZgEM9MTSX9rrTv3ujeSHTE0l/a60797o3kgJmAQz0xNJf2utO/e6N5IdMTSX9rrTv3ujeSAmYBDPTE0l/a60797o3kh0xNJf2utO/e6N5ICZgEM9MTSX9rrTv3ujeSHTE0l/a60797o3kgJmAQz0xNJf2utO/e6N5IdMTSX9rrTv3ujeSAmYBDPTE0l/a60797o3kh0xNJf2utO/e6N5ICZgEM9MTSX9rrTv3ujeSHTE0l/a60797o3kgJmAQz0xNJf2utO/e6N5IdMTSX9rrTv3ujeSAmYBDPTE0l/a60797o3kh0xNJf2utO/e6N5ICZgEM9MTSX9rrTv3ujeSHTE0l/a60797o3kgJmAQz0xNJf2utO/e6N5IdMTSX9rrTv3ujeSAmYBDPTE0l/a60797o3kh0xNJf2utO/e6N5ICZgEM9MTSX9rrTv3ujeSHTE0l/a60797o3kgJmAQz0xNJf2utO/e6N5IdMTSX9rrTv3ujeSAmYBDPTE0l/a60797o3kh0xNJf2utO/e6N5ICZgEM9MTSX9rrTv3ujeSHTE0l/a60797o3kgJmAQz0xNJf2utO/e6N5IdMTSX9rrTv3ujeSAmYBDPTE0l/a60797o3kh0xNJf2utO/e6N5ICZhEGG/rhMX/wA3t35mSKHTE0l/a60797o3kjtgtQcS037f9+4i2hEtxVyFSmoURipommaYzbyVqUpBERZm4WRAJHqnXBXgJ+sUy3CpVOuCvAT9YpluFsdFc9XIAAMAAACnwimHkPpTmaDzyHtO4Wy/6o54yHlNJGKZspPeQTESzEzD29EbfajnwiDojb7Uc+EQ8XAp7EOBT2Ixtg3S9vRG32o58Ig6I2+1HPhEPFwKexDgU9iG2DdL29EbfajnwiDojb7Uc+EQ8XAp7EOBT2IbYN0vb0Rt9qOfCIOiNvtRz4RDxcCnsQ4FPYhtg3S9vRG32o58Ig6I2+1HPhEPFwKexDgU9iG2DdL29EbfajnwiDojb7Uc+EQ8XAp7EOBT2IbYN0vb0Rt9qOfCIOiNvtRz4RDxcCnsQ4FPYhtg3S9vRG32o58Ig6I2+1HPhEPFwKexDgU9iG2DdL29EbfajnwiDojb7Uc+EQ8XAp7EOBT2IbYN0vb0Rt9qOfCIOiNvtRz4RDxcCnsQ4FPYhtg3S9vRG32o58Ig6I2+1HPhEPFwKexDgU9iG2DdL29EbfajnwiDojb7Uc+EQ8XAp7EOBT2IbYN0vb0Rt9qOfCIOiNvtRz4RDxcCnsQ4FPYhtg3S9vRG32o58Ig6I2+1HPhEPFwKexDgU9iG2DdL29EbfajnwiDojb7Uc+EQ8XAp7EOBT2IbYN0vb0Rt9qOfCIOiNvtRz4RDxcCnsQ4FPYhtg3S9vRG32o58Ig6I2+1HPhEPFwKexDgU9iG2DdL29EbfajnwiDojb7Uc+EQ8XAp7EOBT2IbYN0vb0Rt9qOfCIOiNvtRz4RDxcCnsQ4FPYhtg3S9vRG32o58Ig6I2+1HPhEPFwKexDgU9iG2DdL29EbfajnwiDojb7Uc+EQ8XAp7EOBT2IbYN0vb0Rt9qOfCIOiNvtRz4RDxcCnsQ4FPYhtg3S9vRG32o58Ig6I2+1HPhEPFwKexDgU9iG2DdL29EbfajnwiDojb7Uc+EQ8XAp7EOBT2IbYN0vb0Rt9qOfCIOiNvtRz4RDxcCnsQ4FPYhtg3S9vRG32o58Ig6I2+1HPhEPFwKexDgU9iG2DdL29EbfajnwiDojb7Uc+EQ8XAp7EOBT2IbYN0vb0Rt9qOfCIOiNvtRz4RDxcCnsQ4FPYhtg3S9vRG32o58Ig6I2+1HPhEPFwKexDgU9iG2DdL29EbfajnwiDojb7Uc+EQ8XAp7EOBT2IbYN0vb0Rt9qOfCIOiNvtRz4RDxcCnsQ4FPYhtg3S9vRG32o58Ig6I2+1HPhEPFwKexDgU9iG2DdL29EbfajnwiDojb7Uc+EQ8XAp7EOBT2IbYN0vb0Rt9qOfCIOiNvtRz4RDxcCnsQ4FPYhtg3S9vRG32o58Ig6I2+1HPhEPFwKexDgU9iG2DdL29EbfajnwiDojb7Uc+EQ8XAp7EOBT2IbYN0vb0Rt9qOfCIOiNvtRz4RDxcCnsQ4FPYhtg3S9vRG32o58Ig6I2+1HPhEPFwKexDgU9iG2DdL29EbfajnwiDojb7Uc+EQ8XAp7EOBT2IbYN0vb0Rt9qOfCIOiNvtRz4RDxcCnsQ4FPYhtg3S9vRG32o58Ig6I2+1HPhEPFwKexDgU9iG2DdL29EbfajnwiDojb7Uc+EQ8XAp7EOBT2IbYN0vb0Rt9qOfCIOiNvtRz4RDxcCnsQ4FPYhtg3S9vRG32o58Ig6I2+1HPhEPFwKexDgU9iG2DdL29EbfajnwiDojb7Uc+EQ8XAp7EOBT2IbYN0vb0Rt9qOfCIOiNvtRz4RDxcCnsQ4FPYhtg3S9vRG32o58Ig6I2+1HPhEPFwKexDgU9iG2DdL29EbfajnwiDojb7Uc+EQ8XAp7EOBT2IbYN0vb0Rt9qOfCIOiNvtRz4RDxcCnsQ4FPYhtg3S9vRG32o58Ig6I2+1HPhEPFwKexDgU9iG2DdL29EbfajnwiDojb7Uc+EQ8XAp7EOBT2IbYN0vb0Rt9qOfCICuJo/+qOeMh4uBT2IcCkvwQ2wbpdnn+Nvm/qapGRERd4di3DhKSIdhlgAAAAAAAAAAAAAAAAAAAAAAAAAAAAAAAAAAAAAAAAAAAAAAAAAAAAAAAAAAAAAAAAAAAAAAAAAAAAAAAAAAAAAAAAAAAAAAAAAAAAAAAAAAAAAAAAAAAAAAAAAAAAAAAAAAAAAAAAAAAAAAAAAAAAAAAAAAAAAAAAAAAAAAAAAAAAAAAAAAAAAAAAAAAAAB/9k=;" vertex="1" parent="1">
          <mxGeometry width="890" height="890" as="geometry" />
        </mxCell>
        <mxCell id="EOirtJMXRNqf9kbRObzp-2" value="&lt;b&gt;&lt;font style=&quot;font-size: 14px;&quot;&gt;DNS&lt;/font&gt;&lt;/b&gt;" style="text;html=1;strokeColor=none;fillColor=none;align=center;verticalAlign=middle;whiteSpace=wrap;rounded=0;" vertex="1" parent="1">
          <mxGeometry x="470" y="37" width="60" height="30" as="geometry" />
        </mxCell>
      </root>
    </mxGraphModel>
  </diagram>
</mxfile>
